<svg id="Layer_1" data-name="Layer 1" xmlns="http://www.w3.org/2000/svg" viewBox="0 0 424.2 151.6"><defs><style>.cls-1{fill:#f1f1f1;}</style></defs><title>address</title><path class="cls-1" d="M10.7,58.7H4.6c-.1,0-.1.3,0,.3H25c.1,0,.1-.3,0-.3H18.9c-.3,0-.5-.1-.5-.3V34.6h3c5.5,0,8.6,3.1,8.6,7.7a.1.1,0,1,0,.3,0V26.6c0-.1-.3-.1-.3,0,0,4.7-3,7.7-8.6,7.7h-3V11.7c0-.1.1-.3.5-.3h8.7c8.6,0,11.9,5.7,11.9,11.9a.1.1,0,1,0,.3,0v-12a.2.2,0,0,0-.2-.2H4.6c-.1,0-.1.3,0,.3h6.1c.3,0,.4.1.4.3V58.5C11.1,58.7,11,58.7,10.7,58.7Z" transform="translate(-3.9 -11.2)"/><path class="cls-1" d="M51.9,58.7H45.9c-.1,0-.1.3,0,.3H66.2c.1,0,.1-.3,0-.3H60.2c-.3,0-.5-.1-.5-.3V11.7c0-.1.1-.3.5-.3h6.1c.1,0,.1-.3,0-.3H45.9c-.1,0-.1.3,0,.3h6.1c.3,0,.4.1.4.3V58.5C52.3,58.7,52.2,58.7,51.9,58.7Z" transform="translate(-3.9 -11.2)"/><path class="cls-1" d="M77.5,58.7H71.4c-.1,0-.1.3,0,.3H91.8c.1,0,.1-.3,0-.3H85.7c-.3,0-.5-.1-.5-.3V34.6h3c5.5,0,8.6,3.1,8.6,7.7a.1.1,0,1,0,.3,0V26.6c0-.1-.3-.1-.3,0,0,4.7-3,7.7-8.6,7.7h-3V11.7c0-.1.1-.3.5-.3h8.7c8.6,0,11.9,5.7,11.9,11.9a.1.1,0,1,0,.3,0v-12a.2.2,0,0,0-.2-.2H71.4c-.1,0-.1.3,0,.3h6.1c.3,0,.4.1.4.3V58.5C77.9,58.7,77.8,58.7,77.5,58.7Z" transform="translate(-3.9 -11.2)"/><path class="cls-1" d="M111.7,25.4c0-7.8,3.6-14,13.5-14h1.7c.3,0,.4.1.4.3V58.5c0,.2-.1.3-.4.3h-6.1c-.1,0-.1.3,0,.3h20.4c.1,0,.1-.3,0-.3h-6.1c-.3,0-.4-.1-.4-.3V11.7c0-.1.1-.3.4-.3h1.7c10,0,13.8,6.1,13.8,14,0,.1.3.1.3,0v-14c0-.1,0-.2-.1-.2H111.6a.2.2,0,0,0-.2.2v14C111.4,25.6,111.7,25.6,111.7,25.4Z" transform="translate(-3.9 -11.2)"/><path class="cls-1" d="M151.2,11.5h6.2a.7.7,0,0,1,.6.3l13.8,26.4V58.5c0,.2-.1.3-.5.3h-6.1c-.1,0-.1.3,0,.3h20.4c.1,0,.1-.3,0-.3h-6c-.3,0-.5-.1-.5-.3V37l10.8-22.7c1.2-2.6,1.6-2.8,2-2.8h5.3c.1,0,.1-.3,0-.3H183.6c-.1,0-.1.3,0,.3h6.8c.5,0,.5.2-.8,2.8L179.1,36.5,166.2,11.7c-.1-.1-.1-.3.2-.3h7.3c.1,0,.1-.3,0-.3H151.2C151,11.2,151,11.5,151.2,11.5Z" transform="translate(-3.9 -11.2)"/><path class="cls-1" d="M189.3,44.4c-.1.1-.1.3,0,.3h16.9a5.1,5.1,0,0,1,.9-3.2c.1-.1.1-.3,0-.3H190.2A5.1,5.1,0,0,1,189.3,44.4Z" transform="translate(-3.9 -11.2)"/><path class="cls-1" d="M202.6,25.4c0-7.8,3.6-14,13.6-14h1.7c.3,0,.4.1.4.3V58.5c0,.2-.1.3-.4.3h-6.1c-.1,0-.1.3,0,.3h20.4c.1,0,.1-.3,0-.3h-6.1c-.3,0-.4-.1-.4-.3V11.7c0-.1.1-.3.4-.3h1.7c10,0,13.8,6.1,13.8,14,0,.1.3.1.3,0v-14c0-.1,0-.2-.1-.2H202.6a.2.2,0,0,0-.2.2v14C202.4,25.6,202.6,25.6,202.6,25.4Z" transform="translate(-3.9 -11.2)"/><path class="cls-1" d="M251.8,58.7h-6c-.1,0-.1.3,0,.3h19.7c.1,0,.1-.3,0-.3h-5.4c-.3,0-.5-.1-.5-.3V34.3h20.7V58.5c0,.2-.1.3-.4.3h-5.4c-.1,0-.1.3,0,.3h19.7c.1,0,.1-.3,0-.3h-6.1c-.3,0-.4-.1-.4-.3V11.7c0-.1.1-.3.4-.3h6.1c.1,0,.1-.3,0-.3H274.6c-.1,0-.1.3,0,.3H280c.3,0,.4.1.4.3V34H259.7V11.7c0-.1.1-.3.5-.3h5.4c.1,0,.1-.3,0-.3H245.8c-.1,0-.1.3,0,.3h6c.3,0,.5.1.5.3V58.5C252.3,58.7,252.2,58.7,251.8,58.7Z" transform="translate(-3.9 -11.2)"/><path class="cls-1" d="M305.5,58.7h-6.1c-.1,0-.1.3,0,.3h22.2c.1,0,.1-.3,0-.3h-7.9c-.3,0-.5-.1-.5-.3V34.3h6.9c6.3,0,11.1,2.5,11.1,8.4v4.4c0,9.6,4.2,13.1,9.9,13.1a9.3,9.3,0,0,0,5-1.3h38.7a.2.2,0,0,0,.2-.2V45.4c0-.1-.3-.1-.3,0,0,6.9-3.9,13.3-15.2,13.3h-9c-.3,0-.4-.1-.4-.3V34.6h3.6c5.5,0,8.6,3.1,8.6,7.7a.1.1,0,1,0,.3,0V26.6c0-.1-.3-.1-.3,0,0,4.7-3,7.7-8.6,7.7h-3.6V11.7c0-.1.1-.3.4-.3h8.8c8.6,0,11.8,5.7,11.8,11.9a.1.1,0,1,0,.3,0v-12a.2.2,0,0,0-.2-.2H346.3c-.1,0-.1.3,0,.3h6.1c.3,0,.4.1.4.3V58.5c0,.2-.1.3-.4.3h-5.9l1.1-.9c.1-.1,0-.3-.1-.2a6.1,6.1,0,0,1-4.3,2c-2.6,0-4.2-2.8-4.2-6.3V47.2c0-7.9-5.4-13.1-17.3-13.1,8.6,0,15.2-4.9,15.2-11.2s-6.2-11.7-16.4-11.7h-21c-.1,0-.1.3,0,.3h6.1c.3,0,.5.1.5.3V58.5C306,58.7,305.8,58.7,305.5,58.7Zm7.8-47c0-.1.1-.3.5-.3h4.9c6.5,0,10.8,3.3,10.8,11.7S327,34,320.3,34h-6.9Z" transform="translate(-3.9 -11.2)"/><path class="cls-1" d="M427.8,45.4c0,6.9-3.9,13.3-15.2,13.3h-9c-.3,0-.4-.1-.4-.3V34.6h3.6c5.5,0,8.6,3.1,8.6,7.7a.1.1,0,1,0,.3,0V26.6c0-.1-.3-.1-.3,0,0,4.7-3,7.7-8.6,7.7h-3.6V11.7c0-.1.1-.3.4-.3h8.8c8.6,0,11.8,5.7,11.8,11.9a.1.1,0,1,0,.3,0v-12a.2.2,0,0,0-.2-.2H389.3c-.1,0-.1.3,0,.3h6.1c.3,0,.4.1.4.3V58.5c0,.2-.1.3-.4.3h-6.1c-.1,0-.1.3,0,.3h38.6a.2.2,0,0,0,.2-.2V45.4C428.1,45.3,427.8,45.3,427.8,45.4Z" transform="translate(-3.9 -11.2)"/><path class="cls-1" d="M48.6,64.9H55c.1,0,.1-.3,0-.3H34.2c-.1,0-.1.3,0,.3h5.7c.3,0,.4.1.4.3V88.7H18.5V65.2c0-.1.1-.3.5-.3h5.7c.1,0,.1-.3,0-.3H4c-.1,0-.1.3,0,.3h6.3c.4,0,.5.1.5.3v49.2c0,.2-.1.3-.5.3H4c-.1,0-.1.3,0,.3H24.7c.1,0,.1-.3,0-.3H19c-.4,0-.5-.1-.5-.3V88.9H40.3v25.5c0,.2-.1.3-.4.3H34.2c-.1,0-.1.3,0,.3H55c.1,0,.1-.3,0-.3H48.6c-.3,0-.4-.1-.4-.3V65.2C48.2,65.1,48.3,64.9,48.6,64.9Z" transform="translate(-3.9 -11.2)"/><path class="cls-1" d="M108.5,89.9c0-14.6-10.6-26.4-23.6-26.4S61.3,75.7,61.3,89.9s10.6,26.3,23.6,26.3S108.5,104.4,108.5,89.9Zm-39,0c0-12.6,2.1-19.9,6.1-23.4s5.5-2.8,9.2-2.8,6.8.6,9.3,2.8,6.1,10.8,6.1,23.4c0,14.3-2.1,19.9-6.1,23.4s-5.5,2.8-9.3,2.8-6.7-.7-9.2-2.8S69.5,104.2,69.5,89.9Z" transform="translate(-3.9 -11.2)"/><path class="cls-1" d="M106.7,64.9h6.5a.6.6,0,0,1,.6.3L134,116.1c.1.2.3.3.4,0L147.3,79,161,116.1a.3.3,0,0,0,.4,0l16.7-48.1c.9-2.7,1.3-3,1.8-3h5.9c.1,0,.1-.3,0-.3H171.5c-.1,0-.1.3,0,.3h6.8c.5,0,.5.3-.4,2.6l-13.1,37.9L150.3,65.2c-.1-.1,0-.3.4-.3h7.7c.1,0,.1-.3,0-.3H136.1c-.1,0-.1.3,0,.3h5.4c.1,0,.6.1.6.3l5,13.3-9.2,26.6-15.8-40c-.1-.1,0-.3.4-.3h6.6c.1,0,.1-.3,0-.3H106.7A.1.1,0,1,0,106.7,64.9Z" transform="translate(-3.9 -11.2)"/><path class="cls-1" d="M190.1,114.7h-6.5c-.4,0-.4-.4.6-3l5.3-14.2h17.5l6.2,17c0,.1-.1.2-.4.2h-6.8c-.1,0-.1.3,0,.3h22.2c.1,0,.1-.3,0-.3h-6a.9.9,0,0,1-.6-.2L201.8,63.7c-.1-.2-.3-.2-.4,0l-17.6,48.1c-1,2.8-1.1,3-1.8,3h-5.4c-.1,0-.1.3,0,.3h13.4C190.2,115,190.2,114.7,190.1,114.7Zm8-41,8.6,23.5H189.4Z" transform="translate(-3.9 -11.2)"/><path class="cls-1" d="M324.9,89.9c0-13.9-10.6-25.2-23.6-25.2H278.1c-.1,0-.1.3,0,.3h6.3c.4,0,.5.1.5.3v49.2c0,.2-.1.3-.5.3h-6.2l1.2-1c.1-.1,0-.3-.1-.2a6.4,6.4,0,0,1-4.5,2.1c-2.8,0-4.4-3-4.4-6.6v-6.4c0-8.3-5.7-13.8-18.2-13.8,9,0,16-5.2,16-11.8s-6.5-12.4-17.3-12.4H228.7c-.1,0-.1.3,0,.3h6.4c.4,0,.5.1.5.3v49.2c0,.2-.1.3-.5.3h-6.4c-.1,0-.1.3,0,.3h23.4c.1,0,.1-.3,0-.3h-8.3c-.4,0-.5-.1-.5-.3V88.9h7.3c6.6,0,11.6,2.6,11.6,8.9v4.6c0,10.2,4.5,13.8,10.4,13.8a9.8,9.8,0,0,0,5.3-1.3h23.3C314.3,115,324.9,103.7,324.9,89.9Zm-81.6-1.2V65.2c0-.1.1-.3.5-.3h5.1c6.8,0,11.4,3.5,11.4,12.4s-2.6,11.4-9.7,11.4Zm49.3,25.8V65.2c0-.1.1-.3.5-.3h8.2c3.3,0,6.8.6,9.2,2.6,4,3.3,6.2,10.3,6.2,22.3,0,13.7-2.1,18.9-6.2,22.2-2.4,2-6,2.6-9.2,2.6h-8.2C292.8,114.7,292.7,114.6,292.7,114.4Z" transform="translate(-3.9 -11.2)"/><path class="cls-1" d="M363.1,85.5c-9.1-3.2-13.6-7.2-13.6-12.4s4.5-9.4,10.2-9.4,12.4,4.8,12.4,11.6c0,.1.3.1.3,0V63.7c0-.2-.2-.2-.3,0s-.9,1.7-2.9,1.7-5.7-1.9-9.5-1.9c-7.3,0-13.6,6.9-13.6,14.6s5.4,11.9,12.2,14.4c11.1,3.9,16,6.7,16,13.6,0,4.6-5.1,10-13.5,10s-15.8-9.8-15.8-15.5c0-.2-.2-.2-.2,0v15.5a.1.1,0,1,0,.2,0,4.1,4.1,0,0,1,4-2.8c3.5,0,6.7,2.9,11.9,2.9,11.4,0,17.4-9.3,17.4-15.5C378.4,92.1,372.5,88.7,363.1,85.5Z" transform="translate(-3.9 -11.2)"/><path class="cls-1" d="M407.1,64.9h1.8c10.5,0,14.6,6.5,14.6,14.7,0,.1.3.1.3,0V64.9c0-.1,0-.2-.1-.2H382.3a.2.2,0,0,0-.2.2V79.6c0,.1.3.1.3,0,0-8.2,3.8-14.7,14.3-14.7h1.8c.3,0,.4.1.4.3v49.2c0,.2-.1.3-.4.3H392c-.1,0-.1.3,0,.3h21.4c.1,0,.1-.3,0-.3h-6.4c-.3,0-.4-.1-.4-.3V65.2C406.6,65.1,406.8,64.9,407.1,64.9Z" transform="translate(-3.9 -11.2)"/><path class="cls-1" d="M424.8,109.2a3.3,3.3,0,1,0,3.2,3.3A3.2,3.2,0,0,0,424.8,109.2Z" transform="translate(-3.9 -11.2)"/><path class="cls-1" d="M114,120.7h4.4c.2,0,.2-.2.1-.2h-9.9c-.1,0-.2.2,0,.2h4.5c.2,0,.3,0,.3.2l-8.6,27.4-9.3-26.9c-.2-.7-.5-.9-.9-.9h-10c-.1,0-.2.2,0,.2H89c.3,0,.3,0,.3.2l-11,34.7c-.1.1-.2.2-.4.2H73.5c-.1,0-.2.2-.1.2h9.9c.1,0,.1-.2,0-.2H78.8c-.2,0-.3-.1-.2-.2L89.4,121l12.7,35.6c.1.2.3.2.3,0l11.2-35.7C113.7,120.8,113.8,120.7,114,120.7Z" transform="translate(-3.9 -11.2)"/><path class="cls-1" d="M125.5,134.3c-6.7,0-12.8,6.6-12.8,13.8,0,5,3.4,8.4,7.9,8.4s5.4-1.2,7.8-4.1h-.1c-1.9,2.3-3.8,4-7.9,4s-4.5-2.5-4.5-4.9a31.2,31.2,0,0,1,1.3-6.7H121c5.7,0,10.1-2.3,10.1-6.4C131,136.6,129.7,134.3,125.5,134.3Zm-5.7,10.2h-2.5c1.7-6.2,3.3-10.1,8.2-10.1a2.2,2.2,0,0,1,2.5,2.4C128,140,125.9,144.5,119.8,144.5Z" transform="translate(-3.9 -11.2)"/><path class="cls-1" d="M162.8,134.3c-1.1,0-1.8,1-1.8,2.3s1.2,2.7,1.2,5.5c0,5-6.8,13.6-10.7,13.6-1.9,0-3.1-1.3-2-4.3l5.2-16.9-4,.3-4.4,13.8c-2.2,4.4-4.8,5.9-7.2,5.9a2.2,2.2,0,0,1-2.2-2.1c0-4.6,4.5-10.5,4.5-14.5,0-1.8-.3-3.5-2.8-3.5s-3.7,1.1-5.3,4.5v.2c1.3-2.6,2.7-3.6,3.6-3.6s1.2.4,1.2,1.5c0,3.3-4.8,11.5-4.8,15.7s1.8,3.9,3.3,3.9,7.2-2.4,9.4-6.9c-1,3.9.3,6.9,4.7,6.9s14.4-12,14.4-19.4C165,135.6,164.4,134.3,162.8,134.3Z" transform="translate(-3.9 -11.2)"/><path class="cls-1" d="M209.1,122.8c1.5-1.9,1.8-2.1,2.1-2.1h3.9c.1,0,.2-.2.1-.2H205.1c-.1,0-.2.2,0,.2h5c.3,0,.3.1-1.2,2.1l-13,16.5-3.8-18.4c0-.1,0-.2.3-.2h5.4c.2,0,.2-.2.1-.2H181.6c-.1,0-.2.2-.1.2h4.6c.2,0,.3.1.3.2l3.8,18.6-5,16.1c0,.1-.2.2-.4.2h-4.5c-.1,0-.1.2,0,.2h15.1c.1,0,.2-.2,0-.2H191c-.2,0-.3-.1-.2-.2l5-15.9Z" transform="translate(-3.9 -11.2)"/><path class="cls-1" d="M214.5,134.3c-6.7,0-12.7,6.6-12.7,13.8,0,5,3.4,8.4,7.9,8.4,6.7,0,12.8-6.6,12.8-13.8C222.4,137.7,219,134.3,214.5,134.3Zm.9,18.4a6.2,6.2,0,0,1-6,3.6c-3.6,0-4.5-2.5-4.5-4.9s2.7-11.4,3.8-13.4a6.3,6.3,0,0,1,6-3.6c3.7,0,4.5,2.4,4.5,4.9S216.5,150.7,215.4,152.7Z" transform="translate(-3.9 -11.2)"/><path class="cls-1" d="M240.5,134.3c-2.4,0-4.6,2.3-7.2,8.3,2.1-5.7,1.2-8.3-1.9-8.3s-3.8,1.1-5.4,4.5l.2.2c1.2-2.6,2.6-3.6,3.6-3.6s1.5,1,1,2.4L225.1,156h4l4-12.6c3.1-6.4,4.8-7.5,5.8-7.5s1.3.4,1.3,1.2-.7.9-.7,2,.9,1.7,2.3,1.7,2.3-1.4,2.3-3A3.3,3.3,0,0,0,240.5,134.3Z" transform="translate(-3.9 -11.2)"/><path class="cls-1" d="M265.3,151.9a2.6,2.6,0,0,0-2.3-2.6,1.9,1.9,0,0,0-2,1.8c0,1.9,2.8,1.7,2.8,3.2s-.9,1.6-2.2,1.6c-6.1,0-2-10.7-7.4-13.4,3.2-2.2,4.9-7.1,7.1-7.1a.9.9,0,0,1,1.1,1.1c0,.6-.6.7-.6,1.5s.5,1.5,1.8,1.5a2.3,2.3,0,0,0,2.3-2.5c0-1.7-1-2.7-3.1-2.7-4.7,0-5.5,8.7-11.7,9.1l7.6-24.1c0-.1,0-.2-.1-.2l-6.9.2c-.2,0-.2.2-.1.2h2.8c.2,0,.3.1.3.2L243,156h3.9l4-12.4c4,2,1,12.9,8.9,12.9C263.5,156.4,265.3,154.4,265.3,151.9Z" transform="translate(-3.9 -11.2)"/><path class="cls-1" d="M270.1,151.3a2.5,2.5,0,0,0-2.5,2.7c0,1.4,1.2,2.2,1.2,3.5s-2.2,3.6-4,4.5a9.1,9.1,0,0,1-2.1.7c-.1,0-.2.2,0,.2,5.3-1.1,9.6-6,9.6-9.1A2.2,2.2,0,0,0,270.1,151.3Z" transform="translate(-3.9 -11.2)"/><path class="cls-1" d="M328.5,120.5h-9.9c-.1,0-.1.2,0,.2h4.5c.2,0,.3,0,.3.2l-8.6,27.4-9.4-26.9c-.2-.7-.5-.9-.9-.9h-10c-.1,0-.2.2,0,.2h4.5c.3,0,.3,0,.3.2l-11,34.7c-.1.1-.2.2-.4.2h-4.5c-.1,0-.2.2-.1.2h9.9c.1,0,.1-.2,0-.2h-4.5c-.2,0-.3-.1-.2-.2L299.4,121l12.7,35.6c.1.2.3.2.3,0l11.2-35.7c0-.1.2-.2.4-.2h4.5C328.6,120.7,328.6,120.5,328.5,120.5Z" transform="translate(-3.9 -11.2)"/><path class="cls-1" d="M352.9,120.5c-.1,0-.2.2-.1.2h5.1c.3,0,.3.1-1.2,2.1l-13,16.5-3.8-18.4c0-.1,0-.2.3-.2h5.4c.1,0,.2-.2.1-.2H329.4c-.1,0-.1.2-.1.2h4.6c.2,0,.3.1.3.2l3.8,18.6-5,16.1c0,.1-.2.2-.4.2h-4.5c-.1,0-.1.2,0,.2h15.1c.1,0,.2-.2,0-.2h-4.5c-.2,0-.3-.1-.2-.2l5.1-15.9,13.3-16.9c1.5-1.9,1.8-2.1,2.2-2.1h3.8c.2,0,.2-.2.1-.2Z" transform="translate(-3.9 -11.2)"/></svg>