<?xml version="1.0" standalone="no"?>
<!DOCTYPE svg PUBLIC "-//W3C//DTD SVG 1.1//EN" "http://www.w3.org/Graphics/SVG/1.1/DTD/svg11.dtd" >
<svg>
<metadata>
Created by FontForge 20090914 at Tue Sep 26 10:39:29 2017
 By www-data
HTF Didot   1992 The Hoefler Type Foundry, Inc. This typeface and the digital software that describes it are the exclusive property of HTF.
</metadata>
<defs>
<font id="Didot-HTF-L64-Light" horiz-adv-x="668" >
  <font-face 
    font-family="Didot"
    font-weight="500"
    font-stretch="normal"
    units-per-em="1000"
    panose-1="2 0 6 3 9 0 0 2 0 4"
    ascent="800"
    descent="-200"
    x-height="425.996"
    cap-height="709"
    bbox="-114.998 -362.999 1063 941.501"
    underline-thickness="20"
    underline-position="-123"
    unicode-range="U+0020-U+FB02"
  />
<missing-glyph horiz-adv-x="500" 
 />
    <glyph glyph-name=".notdef" horiz-adv-x="500" 
 />
    <glyph glyph-name="space" unicode=" " horiz-adv-x="176" 
 />
    <glyph glyph-name="space" unicode="&#xa0;" horiz-adv-x="176" 
 />
    <glyph glyph-name="exclam" unicode="!" horiz-adv-x="203" 
d="M155 650c0 28 -4.83301 47.667 -14.5 59s-22.5 17 -38.5 17c-16.667 0 -29.667 -5.66699 -39 -17s-14 -31 -14 -59c0 -22 2.66699 -51.167 8 -87.5l17 -120.5c6 -44 11.667 -89.833 17 -137.5s8 -93.5 8 -137.5c0 -1.33301 1 -2 3 -2s3 0.666992 3 2
c0 44 2.66699 89.833 8 137.5s11 93.5 17 137.5l17 120.5c5.33301 36.333 8 65.5 8 87.5zM147 35c0 13.333 -4.33301 24.666 -13 33.999s-19.334 14 -32.001 14s-23.334 -4.66699 -32.001 -14s-13 -20.666 -13 -33.999s4.33301 -24.5 13 -33.5s19.334 -13.5 32.001 -13.5
s23.334 4.5 32.001 13.5s13 20.167 13 33.5z" />
    <glyph glyph-name="quotedbl" unicode="&#x22;" horiz-adv-x="329" 
d="M281 672c0 5.33301 -0.668945 11.166 -2.00195 17.499s-3.5 12.166 -6.5 17.499s-7.33301 9.83301 -13 13.5s-12.5 5.5 -20.5 5.5s-14.5 -1.83301 -19.5 -5.5s-9.16699 -8.16699 -12.5 -13.5s-5.66602 -11.166 -6.99902 -17.499s-2 -12.166 -2 -17.499
c0 -12.667 1.5 -26.334 4.5 -41.001s6.66699 -29.834 11 -45.501l13 -48.5c4.33301 -16.667 7.83301 -33.334 10.5 -50.001v-11c0.666992 -0.666992 1.33398 -1 2.00098 -1c1.33301 0 2 0.333008 2 1c0.666992 0 1 1.66699 1 5v6c2.66699 16.667 6.16699 33.334 10.5 50.001
l13 48.5c4.33301 15.667 8 30.834 11 45.501s4.5 28.334 4.5 41.001zM131.998 672c0 5.33301 -0.668945 11.166 -2.00195 17.499s-3.5 12.166 -6.5 17.499s-7.16699 9.83301 -12.5 13.5s-12 5.5 -20 5.5s-14.5 -1.83301 -19.5 -5.5s-9.16699 -8.16699 -12.5 -13.5
s-5.66602 -11.166 -6.99902 -17.499s-2 -12.166 -2 -17.499c0 -12.667 1.5 -26.334 4.5 -41.001s6.66699 -29.834 11 -45.501l13 -48.5c4.33301 -16.667 7.83301 -33.334 10.5 -50.001v-11c0.666992 -0.666992 1.33398 -1 2.00098 -1c1.33301 0 2 0.333008 2 1
c0.666992 0 1 1.66699 1 5v6c2.66699 16.667 6.16699 33.334 10.5 50.001l12.5 48.5c4 15.667 7.5 30.834 10.5 45.501s4.5 28.334 4.5 41.001z" />
    <glyph glyph-name="numbersign" unicode="#" horiz-adv-x="479" 
d="M463 296c1.33301 0 2.00098 1 2.00098 3s-0.666992 3 -2 3h-117l46 165c0.666992 1.33301 0.166992 2.16602 -1.5 2.49902s-2.83398 -0.166992 -3.50098 -1.5l-47 -166h-136l47 165c0.666992 1.33301 0 2.16602 -2 2.49902s-3.33301 -0.166992 -4 -1.5l-47 -166h-116
c-1.33301 0 -2 -1 -2 -3s0.666992 -3 2 -3h115l-47 -165h-117c-1.33301 0 -2 -1 -2 -3s0.666992 -3 2 -3h116l-49 -167c0 -1.33301 1 -2.16602 3 -2.49902s3.33301 0.166992 4 1.5l47 168h136l-48 -167c-0.666992 -1.33301 0 -2.16602 2 -2.49902s3.33301 0.166992 4 1.5
l49 168h118c1.33301 0 2 1 2 3s-0.666992 3 -2 3h-117l46 165h119zM338.001 296l-46 -165h-135l46 165h135z" />
    <glyph glyph-name="dollar" unicode="$" horiz-adv-x="551" 
d="M502 203c0 29.333 -4.00293 54.6689 -12.0029 76.002s-19.833 40 -35.5 56s-35.334 30.333 -59.001 43s-50.834 24.667 -81.501 36v303c28 -4.66699 47.5 -13.834 58.5 -27.501s16.5 -30.167 16.5 -49.5c0 -8.66699 -2.16699 -15.167 -6.5 -19.5s-9 -8.5 -14 -12.5
s-9.5 -9 -13.5 -15s-6 -14.667 -6 -26c0 -15.333 5.5 -28.833 16.5 -40.5s24.167 -17.5 39.5 -17.5c14 0 27.667 6 41 18s20 28.667 20 50c0 14 -2.83301 28.833 -8.5 44.5s-14.5 30.334 -26.5 44.001s-27.667 25.667 -47 36s-42.666 17.166 -69.999 20.499v88
c0 1.33301 -1.33301 2 -4 2s-4 -0.666992 -4 -2v-86c-6.66699 0.666992 -13.5 1.16699 -20.5 1.5s-14.5 0.5 -22.5 0.5c-11.333 0 -23 -1 -35 -3v87c0 1.33301 -1 2 -3 2s-3 -0.666992 -3 -2v-90c-21.333 -4.66699 -41.333 -13.334 -60 -26.001s-35 -28 -49 -46
s-25.167 -38 -33.5 -60s-12.5 -44.667 -12.5 -68c0 -28.667 3.83301 -53.667 11.5 -75s18.334 -39.833 32.001 -55.5s30 -29 49 -40s39.833 -20.833 62.5 -29.5v-329c-36 3.33301 -60.5 11.833 -73.5 25.5s-19.5 29.5 -19.5 47.5c0 8.66699 1.83301 15 5.5 19
s7.83398 7.83301 12.501 11.5s8.83398 8.33398 12.501 14.001s5.5 14.167 5.5 25.5c0 15.333 -5.66699 28.666 -17 39.999s-24.666 17 -39.999 17c-14 0 -27.5 -6 -40.5 -18s-19.5 -28.667 -19.5 -50c0 -14.667 4 -29.5 12 -44.5s19.5 -28.833 34.5 -41.5
s33.333 -23.667 55 -33s45.834 -15.333 72.501 -18v-87c0 -1.33301 1 -2 3 -2s3 0.666992 3 2v85c5.33301 -0.666992 10.666 -1 15.999 -1h16c18 0 33.333 1.33301 46 4v-88c0 -1.33301 1.33301 -2 4 -2s4 0.666992 4 2v90c30.667 6 57.667 16.833 81 32.5s43 33.667 59 54
s28 41.833 36 64.5s12 43.667 12 63zM305.997 416.003c-14 5.33301 -27.667 10.833 -41 16.5s-25.666 11.5 -36.999 17.5v266c10.667 2.66699 22.667 4 36 4h23c7.33301 0 13.666 -0.666992 18.999 -2v-302zM221.997 453.003c-71.333 37.333 -107 83.332 -107 137.999
c0 28 10.167 53.333 30.5 76s45.833 38.334 76.5 47.001v-261zM445.997 126.002c0 -14 -3.00098 -27.832 -9.00098 -41.499s-14.833 -26.5 -26.5 -38.5s-25.667 -22.5 -42 -31.5s-34.5 -15.5 -54.5 -19.5v290c23.333 -10 43.333 -20.333 60 -31
s30.334 -22.334 41.001 -35.001s18.5 -26.5 23.5 -41.5s7.5 -32.167 7.5 -51.5zM305.996 -6.99707c-12.667 -2.66699 -28.333 -4 -47 -4h-16c-4.66699 0 -9.66699 0.333008 -15 1v328l41.5 -15c13 -4.66699 25.167 -9.66699 36.5 -15v-295z" />
    <glyph glyph-name="percent" unicode="%" horiz-adv-x="719" 
d="M384 587c0 40 -11.333 71 -34 93s-51 33 -85 33c-32.667 0 -63 -7.16699 -91 -21.5s-52.167 -32.5 -72.5 -54.5s-36.333 -46.5 -48 -73.5s-17.5 -53.5 -17.5 -79.5c0 -40 11.333 -71 34 -93s51 -33 85 -33c32.667 0 63 7.16699 91 21.5s52.167 32.5 72.5 54.5
s36.333 46.5 48 73.5s17.5 53.5 17.5 79.5zM586 725c0.666992 1.33301 0.167969 2.66602 -1.49902 3.99902s-2.83398 1.33301 -3.50098 0l-448 -749c-0.666992 -1.33301 0 -2.66602 2 -3.99902s3.33301 -1.33301 4 0zM683.001 220c0 40 -11.165 71 -33.498 93
s-50.833 33 -85.5 33c-32.667 0 -63 -7.16699 -91 -21.5s-52.333 -32.5 -73 -54.5s-36.834 -46.5 -48.501 -73.5s-17.5 -53.5 -17.5 -79.5c0 -40 11.167 -71 33.5 -93s50.833 -33 85.5 -33c32.667 0 63.167 7.16699 91.5 21.5s52.666 32.5 72.999 54.5s36.333 46.5 48 73.5
s17.5 53.5 17.5 79.5zM324.003 639c0 -15.333 -1.83203 -35.166 -5.49902 -59.499s-9.5 -49.333 -17.5 -75s-18.167 -49.834 -30.5 -72.501s-27.166 -39.334 -44.499 -50.001c-11.333 -7.33301 -22.5 -12.166 -33.5 -14.499s-23.167 -3.5 -36.5 -3.5
c-22.667 0 -38.167 5.33301 -46.5 16s-12.5 28 -12.5 52c0 14.667 1.83301 34.334 5.5 59.001s9.33398 49.834 17.001 75.501s17.667 49.667 30 72s27.166 39.166 44.499 50.499c11.333 7.33301 22.666 12.166 33.999 14.499s23.666 3.5 36.999 3.5
c22 0 37.333 -5.33301 46 -16s13 -28 13 -52zM623.004 272c0 -15.333 -1.83594 -35.166 -5.50293 -59.499s-9.5 -49.333 -17.5 -75s-18.167 -49.834 -30.5 -72.501s-27.166 -39.334 -44.499 -50.001c-11.333 -7.33301 -22.666 -12.166 -33.999 -14.499
s-23.666 -3.5 -36.999 -3.5c-22 0 -37.333 5.33301 -46 16s-13 28 -13 52c0 14.667 1.83301 34.334 5.5 59.001s9.5 49.834 17.5 75.501s18 49.667 30 72s26.667 39.166 44 50.499c11.333 7.33301 22.833 12.166 34.5 14.499s24.167 3.5 37.5 3.5
c22 0 37.333 -5.33301 46 -16s13 -28 13 -52z" />
    <glyph glyph-name="ampersand" unicode="&#x26;" 
d="M682 377c1.33301 0 1.99902 0.99707 1.99902 2.99707s-0.666992 3 -2 3h-233c-1.33301 0 -2 -1 -2 -3s0.666992 -3 2 -3h36c26 0 45 -5.5 57 -16.5s17.333 -30.5 16 -58.5c-2 -36 -9 -71.333 -21 -106s-26.333 -65 -43 -91l-58 93l-58.5 101.5
c-19 34.333 -36.333 68.666 -52 102.999s-28.167 66.833 -37.5 97.5c36 20.667 64.667 43.667 86 69s32 50 32 74s-6 43.833 -18 59.5s-33.667 23.5 -65 23.5c-20 0 -38.5 -4.33301 -55.5 -13s-31.667 -21.167 -44 -37.5s-22.166 -36.166 -29.499 -59.499
s-11 -49.333 -11 -78s5.66699 -61 17 -97c-52.667 -34.667 -93.334 -72.334 -122.001 -113.001s-43 -87 -43 -139c0 -30 5.66699 -57.667 17 -83s27 -47.166 47 -65.499s43.667 -32.5 71 -42.5s57 -15 89 -15c60.667 0 116.667 16.333 168 49c34 -32 70 -48 108 -48
c29.333 0 58 7 86 21s47.667 34 59 60c0.666992 1.33301 0.333984 2.5 -0.999023 3.5s-2.33301 1.16699 -3 0.5c-3.33301 -9.33301 -9 -18.666 -17 -27.999s-18.333 -16.666 -31 -21.999c-5.33301 -2 -10.666 -3 -15.999 -3c-7.33301 0 -15.5 1.66699 -24.5 5
s-18.333 8 -28 14s-18.834 12.833 -27.501 20.5s-16 15.834 -22 24.501c-3.33301 6 -5.33301 9 -6 9l-6 9c17.333 27.333 31.833 58.5 43.5 93.5s19.167 71.833 22.5 110.5c2.66699 28 10.167 47.5 22.5 58.5s30.833 16.5 55.5 16.5h40zM399.999 642.997
c0 -24.667 -10.834 -49 -32.501 -73s-48.5 -45 -80.5 -63c-6 20.667 -10.167 40.5 -12.5 59.5s-3.5 37.167 -3.5 54.5c0 33.333 6.83301 57.5 20.5 72.5s28.834 22.5 45.501 22.5c22 0 38 -6.66699 48 -20s15 -31 15 -53zM423.998 36.9971
c-15.333 -7.33301 -29.168 -12.998 -41.501 -16.998s-27.5 -6 -45.5 -6c-34 0 -64.333 6.5 -91 19.5s-49.167 31 -67.5 54s-32.333 50.5 -42 82.5s-14.5 67 -14.5 105c0 33.333 8 64.166 24 92.499s34.333 50.833 55 67.5c8.66699 -26 19.334 -52.833 32.001 -80.5
s26.5 -55.334 41.5 -83.001l46 -82l45.5 -76.5c18.667 -32 38 -57.333 58 -76z" />
    <glyph glyph-name="quotesingle" unicode="'" horiz-adv-x="182" 
d="M132 672c0 5.33301 -0.666992 11.166 -2 17.499s-3.5 12.166 -6.5 17.499s-7.16699 9.83301 -12.5 13.5s-12 5.5 -20 5.5s-14.667 -1.83301 -20 -5.5s-9.5 -8.16699 -12.5 -13.5s-5.16699 -11.166 -6.5 -17.499s-2 -12.166 -2 -17.499c0 -12.667 1.5 -26.334 4.5 -41.001
s6.66699 -30 11 -46l13 -48.5c4.33301 -16.333 7.83301 -32.833 10.5 -49.5v-11c0 -0.666992 0.666992 -1 2 -1s2 0.333008 2 1c0.666992 0 1 1.66699 1 5v6c2.66699 16.667 6.16699 33.167 10.5 49.5l12.5 48.5c4 16 7.5 31.333 10.5 46s4.5 28.334 4.5 41.001z" />
    <glyph glyph-name="parenleft" unicode="(" horiz-adv-x="265" 
d="M326 -240c-30 19.333 -56 40.6748 -78 64.0078s-40.333 53.166 -55 89.499s-25.5 81.166 -32.5 134.499s-10.5 119.666 -10.5 198.999s3.5 145.833 10.5 199.5s17.833 98.5 32.5 134.5s33 65.667 55 89s48 44.666 78 63.999
c0.666992 0.666992 0.333984 1.66699 -0.999023 3s-2.66602 1.66602 -3.99902 0.999023c-38 -26 -72.333 -56.333 -103 -91s-56.834 -72.834 -78.501 -114.501s-38.334 -86.5 -50.001 -134.5s-17.5 -98.333 -17.5 -151s5.83301 -103 17.5 -151s28.334 -92.667 50.001 -134
s47.834 -79.333 78.501 -114s65 -65.334 103 -92.001c1.33301 -0.666992 2.66602 -0.333984 3.99902 0.999023s1.66602 2.33301 0.999023 3z" />
    <glyph glyph-name="parenright" unicode=")" horiz-adv-x="265" 
d="M197 247c0 52.667 -5.83301 102.991 -17.5 150.991s-28.167 92.833 -49.5 134.5s-47.333 79.834 -78 114.501s-65 65 -103 91c-1.33301 0.666992 -2.83301 0.333984 -4.5 -0.999023s-2.16699 -2.33301 -1.5 -3c30 -19.333 56.167 -40.666 78.5 -63.999
s40.666 -53 54.999 -89s25.166 -80.833 32.499 -134.5s11 -120.167 11 -199.5s-3.66699 -145.666 -11 -198.999s-18.166 -98.166 -32.499 -134.499s-32.666 -66.166 -54.999 -89.499s-48.5 -44.666 -78.5 -63.999c-0.666992 -0.666992 -0.166992 -1.66699 1.5 -3
s3.16699 -1.66602 4.5 -0.999023c38 26.667 72.333 57.334 103 92.001s56.667 72.667 78 114s37.833 86 49.5 134s17.5 98.333 17.5 151z" />
    <glyph glyph-name="asterisk" unicode="*" horiz-adv-x="329" 
d="M278 545c0 8 -3.33398 14 -10.001 18c-5.33301 3.33301 -10.833 5.33301 -16.5 6s-12.167 1.66699 -19.5 3s-15.833 3.66602 -25.5 6.99902s-21.5 9 -35.5 17c14 8.66699 25.833 14.667 35.5 18s18.167 5.5 25.5 6.5s13.833 1.83301 19.5 2.5s11.167 2.66699 16.5 6
c6.66699 4 10 10 10 18c0 6.66699 -2 12.834 -6 18.501s-9.33301 8.5 -16 8.5c-7.33301 0 -13 -2 -17 -6s-8.5 -9.16699 -13.5 -15.5s-11.333 -13.666 -19 -21.999s-18.834 -16.833 -33.501 -25.5l-5 -3v6c0 14.667 1.16699 26.834 3.5 36.501s4.66602 17.667 6.99902 24
s4.66602 12.166 6.99902 17.499s3.5 11 3.5 17s-2.33301 11.333 -7 16s-10.334 7 -17.001 7s-12.167 -2.33301 -16.5 -7s-6.5 -10 -6.5 -16s1 -11.667 3 -17s4.33301 -11.166 7 -17.499s5 -14.333 7 -24s3 -21.834 3 -36.501v-6l-5 3
c-14.667 8.66699 -25.834 17.167 -33.501 25.5s-14 15.666 -19 21.999s-9.5 11.5 -13.5 15.5s-9.33301 6 -16 6s-12.167 -2.83301 -16.5 -8.5s-6.5 -11.834 -6.5 -18.501c0 -8.66699 3.66699 -14.667 11 -18c5.33301 -3.33301 10.666 -5.33301 15.999 -6l19 -2.5
c7.33301 -1 15.833 -3.16699 25.5 -6.5s21.5 -9.33301 35.5 -18c-14 -8 -25.833 -13.667 -35.5 -17s-18.167 -5.66602 -25.5 -6.99902s-13.666 -2.33301 -18.999 -3s-10.666 -2.66699 -15.999 -6c-7.33301 -4 -11 -10 -11 -18c0 -6 2.16699 -11.833 6.5 -17.5
s9.83301 -8.5 16.5 -8.5s12 2 16 6s8.5 9.16699 13.5 15.5s11.333 13.5 19 21.5s18.834 16.333 33.501 25l5 3v-6c0 -14.667 -1 -26.667 -3 -36s-4.33301 -17.333 -7 -24l-7 -17.5c-2 -5 -3 -10.833 -3 -17.5c0 -6 2.16699 -11.167 6.5 -15.5s9.83301 -6.5 16.5 -6.5
s12.334 2.16699 17.001 6.5s7 9.5 7 15.5c0 6.66699 -1.16699 12.5 -3.5 17.5s-4.66602 10.833 -6.99902 17.5s-4.66602 14.667 -6.99902 24s-3.5 21.333 -3.5 36v6l5 -3c14.667 -8.66699 25.834 -17 33.501 -25s14 -15.167 19 -21.5s9.5 -11.5 13.5 -15.5s9.66699 -6 17 -6
c6.66699 0 12 2.83301 16 8.5s6 11.5 6 17.5z" />
    <glyph glyph-name="plus" unicode="+" horiz-adv-x="418" 
d="M366 209c1.33301 0 2 1.33301 2 4s-0.666992 4 -2 4h-153v157c0 1.33301 -1.33301 2 -4 2s-4 -0.666992 -4 -2v-157h-154c-1.33301 0 -2 -1.33301 -2 -4s0.666992 -4 2 -4h154v-155c0 -1.33301 1.33301 -2 4 -2s4 0.666992 4 2v155h153z" />
    <glyph glyph-name="comma" unicode="," horiz-adv-x="163" 
d="M130 24c0 18 -3.99805 32.3281 -11.998 42.9951s-19.667 16 -35 16c-12.667 0 -23.334 -4.5 -32.001 -13.5s-13 -20.167 -13 -33.5c0 -9.33301 1.83301 -17.166 5.5 -23.499s8.16699 -11.5 13.5 -15.5c10 -7.33301 17.333 -15.166 22 -23.499s7 -16.833 7 -25.5
c0 -9.33301 -2.83301 -18.666 -8.5 -27.999s-13.5 -18 -23.5 -26c-6.66699 -6 -15.334 -11 -26.001 -15c-0.666992 0 -0.666992 -0.833008 0 -2.5s1.33398 -2.16699 2.00098 -1.5c13.333 4 26.166 11.833 38.499 23.5s23 24.834 32 39.501s16.167 29.834 21.5 45.501
s8 29.167 8 40.5z" />
    <glyph glyph-name="hyphen" unicode="-" horiz-adv-x="321" 
d="M291 261c1.33301 2.66699 1.33301 4 0 4h-248c-1.33301 -11.333 -2.66602 -20.5 -3.99902 -27.5s-4.66602 -14.167 -9.99902 -21.5c-1.33301 -2.66699 -1.33301 -4 0 -4h248c1.33301 11.333 2.66602 20.5 3.99902 27.5s4.66602 14.167 9.99902 21.5z" />
    <glyph glyph-name="period" unicode="." horiz-adv-x="163" 
d="M127 35c0 13.333 -4.33301 24.5 -13 33.5s-19.334 13.5 -32.001 13.5c-12 0 -22.5 -4.5 -31.5 -13.5s-13.5 -20.167 -13.5 -33.5s4.5 -24.666 13.5 -33.999s19.5 -14 31.5 -14c12.667 0 23.334 4.66699 32.001 14s13 20.666 13 33.999z" />
    <glyph glyph-name="slash" unicode="/" horiz-adv-x="356" 
d="M385 754c0.666992 1.33301 0 2.5 -2 3.5s-3.33301 0.833008 -4 -0.5l-317 -777c0 -1.33301 1 -2.5 3 -3.5s3.33301 -0.833008 4 0.5z" />
    <glyph glyph-name="zero" unicode="0" horiz-adv-x="518" 
d="M472 212c0 30.667 -5.5 59.334 -16.5 86.001s-26.167 50 -45.5 70s-42 35.833 -68 47.5s-53.667 17.5 -83 17.5s-56.833 -5.83301 -82.5 -17.5s-48.167 -27.5 -67.5 -47.5s-34.5 -43.333 -45.5 -70s-16.5 -55.334 -16.5 -86.001s5.5 -59.5 16.5 -86.5
s26.167 -50.5 45.5 -70.5s41.833 -35.833 67.5 -47.5s53.167 -17.5 82.5 -17.5s57 5.83301 83 17.5s48.667 27.5 68 47.5s34.5 43.5 45.5 70.5s16.5 55.833 16.5 86.5zM387 212c0 -30 -0.833008 -55.5 -2.5 -76.5s-4.5 -39 -8.5 -54s-9.16699 -27.333 -15.5 -37
s-13.833 -18.167 -22.5 -25.5c-10.667 -9.33301 -22.5 -15.5 -35.5 -18.5s-27.5 -4.5 -43.5 -4.5s-30.5 1.5 -43.5 4.5s-24.5 9.16699 -34.5 18.5c-8.66699 7.33301 -16.167 15.833 -22.5 25.5s-11.5 22 -15.5 37s-6.83301 33 -8.5 54s-2.5 46.5 -2.5 76.5
c0 52 3.83301 93.333 11.5 124s20.167 53.334 37.5 68.001c10 9.33301 21.5 15.5 34.5 18.5s27.5 4.5 43.5 4.5s30.5 -1.5 43.5 -4.5s24.833 -9.16699 35.5 -18.5c17.333 -14.667 29.833 -37.334 37.5 -68.001s11.5 -72 11.5 -124z" />
    <glyph glyph-name="one" unicode="1" horiz-adv-x="312" 
d="M267 0c1.33301 0 2 1 2 3s-0.666992 3 -2 3h-64c-4.66699 0 -7 1.33301 -7 4v407c0 2 2.33301 3 7 3h64c1.33301 0 2 1 2 3s-0.666992 3 -2 3h-221c-1.33301 0 -2 -1 -2 -3s0.666992 -3 2 -3h64c4.66699 0 7 -1 7 -3v-407c0 -2.66699 -2.33301 -4 -7 -4h-64
c-1.33301 0 -2 -1 -2 -3s0.666992 -3 2 -3h221z" />
    <glyph glyph-name="two" unicode="2" horiz-adv-x="451" 
d="M415 3v147.999c0 1.33301 -1 2 -3 2s-3 -0.666992 -3 -2c0 -30 -6.83301 -52.833 -20.5 -68.5s-36.5 -23.5 -68.5 -23.5h-177c-5.33301 0 -6 1 -2 3c40 24 74.667 46 104 66s53.5 39.167 72.5 57.5s33.167 36.333 42.5 54s14 36.167 14 55.5
c0 24.667 -4.83301 45.834 -14.5 63.501s-23 32.167 -40 43.5s-36.667 19.666 -59 24.999s-45.833 8 -70.5 8c-20 0 -37.5 -2.5 -52.5 -7.5s-27.667 -11.333 -38 -19s-18 -16.334 -23 -26.001s-7.5 -19.167 -7.5 -28.5c0 -10.667 3 -20.5 9 -29.5s16 -13.5 30 -13.5
c15.333 0 26.166 3.5 32.499 10.5s9.5 14.833 9.5 23.5c0 8 -1.16699 14.167 -3.5 18.5s-3.5 10.5 -3.5 18.5c0 16 4.5 27.833 13.5 35.5s20.167 11.5 33.5 11.5c30.667 0 55.667 -9 75 -27s29 -50.333 29 -97c0 -34 -4.83301 -64.667 -14.5 -92
s-25.167 -52.666 -46.5 -75.999s-49.666 -45.166 -84.999 -65.499s-78.333 -40.833 -129 -61.5c-2.66699 -1.33301 -3.5 -3.33301 -2.5 -6s2.16699 -4 3.5 -4h392c2 0 3 1 3 3z" />
    <glyph glyph-name="three" unicode="3" horiz-adv-x="399" 
d="M380 -71c0 24.667 -3.99902 48.668 -11.999 72.001s-19.833 44 -35.5 62s-35 32.333 -58 43s-49.5 16 -79.5 16h-18c-5.33301 0 -11.333 -0.666992 -18 -2c18.667 6.66699 38.5 15.667 59.5 27s40.333 24.5 58 39.5s32.334 31.667 44.001 50s17.5 37.833 17.5 58.5
c0 24.667 -5 46 -15 64s-23.5 32.5 -40.5 43.5s-37 19.167 -60 24.5s-47.167 8 -72.5 8c-19.333 0 -36.333 -2.5 -51 -7.5s-27 -11.333 -37 -19s-17.5 -16 -22.5 -25s-7.5 -17.833 -7.5 -26.5c0 -11.333 3 -21.5 9 -30.5s16 -13.5 30 -13.5c15.333 0 26.333 3.5 33 10.5
s10 15.167 10 24.5c0 7.33301 -1.16699 13.166 -3.5 17.499s-3.5 10.5 -3.5 18.5c0 16 4 27.5 12 34.5s18.333 10.5 31 10.5c15.333 0 29.333 -2 42 -6s23.5 -10.667 32.5 -20s16 -22 21 -38s7.5 -36 7.5 -60c0 -28 -3 -52.5 -9 -73.5s-15.5 -39.833 -28.5 -56.5
s-29.333 -32.167 -49 -46.5s-43.167 -29.166 -70.5 -44.499c-1.33301 -0.666992 -1.5 -2 -0.5 -4s2.16699 -2.33301 3.5 -1c18 11.333 32.333 19.833 43 25.5s21.334 8.5 32.001 8.5c18 0 34.333 -2.5 49 -7.5s27.334 -14.5 38.001 -28.5s19 -33.667 25 -59s9 -58.333 9 -99
s-3.83301 -74 -11.5 -100s-18.167 -46.333 -31.5 -61s-28.833 -24.834 -46.5 -30.501s-36.167 -8.5 -55.5 -8.5c-18.667 0 -34 3.5 -46 10.5s-18 21.5 -18 43.5c0 8 1.5 14.333 4.5 19s4.5 10.667 4.5 18c0 8.66699 -3.5 16.5 -10.5 23.5s-17.833 10.5 -32.5 10.5
s-24.834 -4.5 -30.501 -13.5s-8.5 -18.833 -8.5 -29.5c0 -23.333 11.5 -43.833 34.5 -61.5s57.167 -26.5 102.5 -26.5c25.333 0 51.666 4.66699 78.999 14s52.166 23 74.499 41s40.666 40.5 54.999 67.5s21.5 58.167 21.5 93.5z" />
    <glyph glyph-name="four" unicode="4" horiz-adv-x="455" 
d="M461 0c1.33301 0 2.00293 1.00293 2.00293 3.00293s-0.666992 3 -2 3h-111v207c0 1.33301 -0.666992 2 -2 2s-2.33301 -0.666992 -3 -2c-2.66699 -7.33301 -6 -15.166 -10 -23.499s-9.16699 -16.333 -15.5 -24s-13.5 -14.334 -21.5 -20.001
s-17.333 -8.83398 -28 -9.50098v-130h-242l381 523c0 0.666992 -0.666992 1.5 -2 2.5s-2.33301 0.833008 -3 -0.5c-7.33301 -8.66699 -16.5 -16.834 -27.5 -24.501s-22.5 -14.167 -34.5 -19.5s-23.833 -8.83301 -35.5 -10.5s-21.834 -0.833984 -30.501 2.49902l-189 -358
c-10.667 -22.667 -21.834 -44.167 -33.501 -64.5s-22.5 -37.5 -32.5 -51.5c-1.33301 -1.33301 -1.83301 -2.5 -1.5 -3.5s1.16602 -1.5 2.49902 -1.5h248v-278h80v278h111z" />
    <glyph glyph-name="five" unicode="5" horiz-adv-x="408" 
d="M378 -52c0 28 -3.16992 54.999 -9.50293 80.999s-16.5 48.667 -30.5 68s-31.667 34.833 -53 46.5s-47 17.5 -77 17.5c-32 0 -57.333 -6.16699 -76 -18.5s-32.667 -29.833 -42 -52.5v317c4.66699 -8.66699 12.167 -16.834 22.5 -24.501s22 -14.167 35 -19.5
s26.833 -9.66602 41.5 -12.999s28.667 -5 42 -5c14.667 0 28.667 1.83301 42 5.5s25 8.66699 35 15s18 13.666 24 21.999s9 17.5 9 27.5c0 11.333 -2.5 20 -7.5 26s-14.833 9 -29.5 9c-10 0 -19 -2.83301 -27 -8.5l-26 -18.5
c-9.33301 -6.66699 -20.166 -12.834 -32.499 -18.501s-27.833 -8.5 -46.5 -8.5c-19.333 0 -36.333 2.16699 -51 6.5s-26 10.5 -34 18.5c-0.666992 0.666992 -1.5 0.833984 -2.5 0.500977s-1.5 -1.16602 -1.5 -2.49902s0.333008 -2.33301 1 -3s1 -2.66699 1 -6v-334
c0 -4 -0.666992 -9.33301 -2 -16s-2 -11.667 -2 -15c0 -4 0.5 -6.5 1.5 -7.5s2.5 -1.5 4.5 -1.5c4 0 6 2.66699 6 8c0 6 -0.666992 11.167 -2 15.5s-1 10.833 1 19.5c6.66699 25.333 19 43.833 37 55.5s37.333 17.5 58 17.5c18 0 33.5 -3.16699 46.5 -9.5s24 -17.5 33 -33.5
s15.667 -37.833 20 -65.5s6.5 -62.834 6.5 -105.501c0 -44 -3.16699 -80.167 -9.5 -108.5s-15.166 -50.666 -26.499 -66.999s-25 -27.666 -41 -33.999s-33.667 -9.5 -53 -9.5s-34.833 3.5 -46.5 10.5s-17.5 21.5 -17.5 43.5c0 8 1.16699 14.333 3.5 19s3.5 10.667 3.5 18
c0 8.66699 -3.16699 16.5 -9.5 23.5s-17.166 10.5 -32.499 10.5c-14 0 -24 -4.5 -30 -13.5s-9 -18.833 -9 -29.5c0 -23.333 11.5 -43.833 34.5 -61.5s57.5 -26.5 103.5 -26.5c25.333 0 50.833 5 76.5 15s48.667 24.833 69 44.5s37 44.167 50 73.5s19.5 63.333 19.5 102z" />
    <glyph glyph-name="six" unicode="6" horiz-adv-x="515" 
d="M470 196c0 27.333 -5.33496 53.3291 -16.002 77.9961s-25.167 46.334 -43.5 65.001s-39.833 33.5 -64.5 44.5s-51 16.5 -79 16.5s-51.667 -7.16699 -71 -21.5s-36.666 -32.166 -51.999 -53.499c1.33301 47.333 5.66602 93.833 12.999 139.5s17.5 86.5 30.5 122.5
s29 65 48 87s40.833 33 65.5 33c12.667 0 22.334 -3.5 29.001 -10.5s10 -18.5 10 -34.5c0 -8 -1.16699 -14.333 -3.5 -19s-3.5 -10.667 -3.5 -18c0 -8.66699 3.16699 -16.5 9.5 -23.5s17.166 -10.5 32.499 -10.5c14.667 0 25 4.5 31 13.5s9 18.833 9 29.5
c0 8.66699 -2.16699 17.667 -6.5 27s-11.166 17.833 -20.499 25.5s-21.166 14 -35.499 19s-31.5 7.5 -51.5 7.5c-36.667 0 -69.667 -12 -99 -36s-54.333 -55.667 -75 -95s-36.667 -84.166 -48 -134.499s-17 -101.5 -17 -153.5s5.16699 -97 15.5 -135s24.5 -69.5 42.5 -94.5
s39.5 -43.5 64.5 -55.5s52.5 -18 82.5 -18c28 0 54.333 5.5 79 16.5s46.167 25.833 64.5 44.5s32.833 40.334 43.5 65.001s16 51 16 79zM384.998 195.996c0 -27.333 -0.832031 -50.6689 -2.49902 -70.002s-4.33398 -36 -8.00098 -50s-8.33398 -25.667 -14.001 -35
s-12.5 -17.333 -20.5 -24c-9.33301 -7.33301 -20.833 -12.5 -34.5 -15.5s-26.5 -4.5 -38.5 -4.5c-12.667 0 -25.667 1.5 -39 4.5s-24.666 8.16699 -33.999 15.5c-8 6.66699 -15.167 14.5 -21.5 23.5s-11.5 20.167 -15.5 33.5s-7.16699 29.5 -9.5 48.5s-3.5 41.833 -3.5 68.5
v106c0 6.66699 3 15.5 9 26.5s14.5 21.833 25.5 32.5s24 19.834 39 27.501s31.5 11.5 49.5 11.5c12 0 24.833 -1.5 38.5 -4.5s25.167 -8.5 34.5 -16.5c16 -13.333 27.5 -34.666 34.5 -63.999s10.5 -67.333 10.5 -114z" />
    <glyph glyph-name="seven" unicode="7" horiz-adv-x="418" 
d="M402 422c2.66699 2.66699 2.66699 4 0 4h-9h-338c-1.33301 0 -2 -1 -2 -3v-149c0 -1.33301 0.666992 -2 2 -2s2 0.666992 2 2c0 30 7 51.5 21 64.5s37 19.5 69 19.5h221l-304 -636h80l196 545c12 34 23 63.5 33 88.5s19.667 47.167 29 66.5z" />
    <glyph glyph-name="eight" unicode="8" horiz-adv-x="522" 
d="M471 178c0 44.667 -14.6729 84.3389 -44.0059 119.006s-68.666 68.667 -117.999 102c18 7.33301 35 16.666 51 27.999s29.833 24.166 41.5 38.499s20.834 29.666 27.501 45.999s10 33.166 10 50.499c0 25.333 -5.16699 47.5 -15.5 66.5s-23.833 34.667 -40.5 47
s-35.667 21.666 -57 27.999s-43 9.5 -65 9.5c-26.667 0 -50.167 -5 -70.5 -15s-37.333 -22.667 -51 -38s-24 -32.5 -31 -51.5s-10.5 -37.833 -10.5 -56.5c0 -20 3 -38.5 9 -55.5s13.833 -32.833 23.5 -47.5s20.834 -28.167 33.501 -40.5s26 -23.833 40 -34.5
c-43.333 -18 -78.666 -44.5 -105.999 -79.5s-41 -74.5 -41 -118.5c0 -30.667 5.83301 -57.5 17.5 -80.5s27 -42.333 46 -58s40.667 -27.334 65 -35.001s49.5 -11.5 75.5 -11.5c30 0 57.833 5 83.5 15s47.834 23.5 66.501 40.5s33.334 36.833 44.001 59.5s16 46.667 16 72z
M379.994 559.005c0 -24.667 -2.33496 -45.498 -7.00195 -62.498s-10.5 -31.333 -17.5 -43s-15 -21.5 -24 -29.5s-17.833 -15.333 -26.5 -22c-18.667 12.667 -37.167 26 -55.5 40s-34.666 29.333 -48.999 46s-26 34.667 -35 54s-13.5 40.666 -13.5 63.999
c0 28 9.33301 51.833 28 71.5s45.667 29.5 81 29.5c16 0 31.333 -2.33301 46 -7s27.334 -12.834 38.001 -24.501s19.167 -27 25.5 -46s9.5 -42.5 9.5 -70.5zM411.992 133.007c0 -27.333 -5.16895 -49.667 -15.502 -67s-23 -31.333 -38 -42s-31.333 -18 -49 -22
s-33.834 -6 -48.501 -6c-19.333 0 -37.166 3 -53.499 9s-30.666 16 -42.999 30s-22 33 -29 57s-10.5 54 -10.5 90c0 29.333 2.5 54 7.5 74s11.333 37 19 51s16.334 26 26.001 36s19.5 19.333 29.5 28c22 -17.333 45.167 -34.333 69.5 -51s46.5 -34.167 66.5 -52.5
s36.5 -38.333 49.5 -60s19.5 -46.5 19.5 -74.5z" />
    <glyph glyph-name="nine" unicode="9" horiz-adv-x="508" 
d="M466 129c0 54 -5.33203 100.329 -15.999 138.996s-25.5 70.334 -44.5 95.001s-41.333 42.834 -67 54.501s-53.5 17.5 -83.5 17.5c-29.333 0 -56.5 -5.66699 -81.5 -17s-46.5 -26.666 -64.5 -45.999s-32.167 -42 -42.5 -68s-15.5 -53.333 -15.5 -82
c0 -29.333 5.16699 -56.833 15.5 -82.5s24.5 -48.167 42.5 -67.5s39.5 -34.666 64.5 -45.999s52.167 -17 81.5 -17c21.333 0 43 4.33301 65 13s40.333 22.667 55 42c-2 -45.333 -6.16699 -88.833 -12.5 -130.5s-15.833 -78.334 -28.5 -110.001s-28.834 -57 -48.501 -76
s-43.167 -28.5 -70.5 -28.5c-32.667 0 -49 16.667 -49 50c0 7.33301 1.33301 13.333 4 18s4 11 4 19c0 8.66699 -3.16699 16.334 -9.5 23.001s-17.166 10 -32.499 10c-14 0 -24 -4.33301 -30 -13s-9 -18.334 -9 -29.001c0 -8.66699 2.33301 -18 7 -28s12 -19.167 22 -27.5
s22.667 -15.166 38 -20.499s33.666 -8 54.999 -8c40 0 75.5 11.833 106.5 35.5s57.333 55 79 94s38 83.5 49 133.5s16.5 101 16.5 153zM385.001 223.996c0 -9.33301 -0.168945 -21.334 -0.501953 -36.001s-1 -29.167 -2 -43.5s-2 -27.166 -3 -38.499s-1.83301 -18 -2.5 -20
c-2 -8 -6.66699 -16.167 -14 -24.5s-16.333 -16 -27 -23s-23 -12.833 -37 -17.5s-28.667 -7 -44 -7c-13.333 0 -26.5 1.66699 -39.5 5s-25.167 9 -36.5 17c-17.333 14 -28.666 36 -33.999 66s-8 70 -8 120c0 28 0.666992 52.167 2 72.5s3.5 37.666 6.5 51.999
s7.16699 26.333 12.5 36s12.333 17.834 21 24.501c11.333 8.66699 23.5 14.5 36.5 17.5s26.167 4.5 39.5 4.5s27 -1.5 41 -4.5s26.333 -8.83301 37 -17.5c8.66699 -6.66699 16.334 -14.667 23.001 -24s12.167 -21 16.5 -35s7.5 -31.167 9.5 -51.5s3 -44.5 3 -72.5z" />
    <glyph glyph-name="colon" unicode=":" horiz-adv-x="163" 
d="M127 328c0 13.333 -4.33301 24.5 -13 33.5s-19.334 13.5 -32.001 13.5c-12 0 -22.5 -4.5 -31.5 -13.5s-13.5 -20.167 -13.5 -33.5s4.5 -24.666 13.5 -33.999s19.5 -14 31.5 -14c12.667 0 23.334 4.66699 32.001 14s13 20.666 13 33.999zM127 35
c0 13.333 -4.33301 24.5 -13 33.5s-19.334 13.5 -32.001 13.5c-12 0 -22.5 -4.5 -31.5 -13.5s-13.5 -20.167 -13.5 -33.5s4.5 -24.666 13.5 -33.999s19.5 -14 31.5 -14c12.667 0 23.334 4.66699 32.001 14s13 20.666 13 33.999z" />
    <glyph glyph-name="semicolon" unicode=";" horiz-adv-x="163" 
d="M127 328c0 13.333 -4.33301 24.5 -13 33.5s-19.334 13.5 -32.001 13.5c-12 0 -22.5 -4.5 -31.5 -13.5s-13.5 -20.167 -13.5 -33.5s4.5 -24.666 13.5 -33.999s19.5 -14 31.5 -14c12.667 0 23.334 4.66699 32.001 14s13 20.666 13 33.999zM130 24
c0 18 -3.99805 32.3281 -11.998 42.9951s-19.667 16 -35 16c-12.667 0 -23.334 -4.5 -32.001 -13.5s-13 -20.167 -13 -33.5c0 -9.33301 1.83301 -17.166 5.5 -23.499s8.16699 -11.5 13.5 -15.5c10 -7.33301 17.333 -15.166 22 -23.499s7 -16.833 7 -25.5
c0 -9.33301 -2.83301 -18.666 -8.5 -27.999s-13.5 -18 -23.5 -26c-6.66699 -6 -15.334 -11 -26.001 -15c-0.666992 0 -0.666992 -0.833008 0 -2.5s1.33398 -2.16699 2.00098 -1.5c13.333 4 26.166 11.833 38.499 23.5s23 24.834 32 39.501s16.167 29.834 21.5 45.501
s8 29.167 8 40.5z" />
    <glyph glyph-name="less" unicode="&#x3c;" horiz-adv-x="333" 
d="M292 78l-232 134.998l232 136c1.33301 0.666992 1.5 1.83398 0.5 3.50098s-2.16699 2.16699 -3.5 1.5l-238 -139c-1.33301 -1.33301 -1.33301 -2.66602 0 -3.99902l238 -139c1.33301 -0.666992 2.5 0 3.5 2s0.833008 3.33301 -0.5 4z" />
    <glyph glyph-name="equal" unicode="=" horiz-adv-x="377" 
d="M326 270c1.33301 0 2 0.666992 2 2c0 2 -0.666992 3 -2 3h-274c-1.33301 0 -2 -1 -2 -3c0 -1.33301 0.666992 -2 2 -2h274zM326 151c1.33301 0 2 1 2 3s-0.666992 3 -2 3h-274c-1.33301 0 -2 -1 -2 -3s0.666992 -3 2 -3h274z" />
    <glyph glyph-name="greater" unicode="&#x3e;" horiz-adv-x="333" 
d="M283 211c1.33301 1.33301 1.33301 2.66797 0 4.00098l-238 139c-1.33301 0.666992 -2.5 0.166992 -3.5 -1.5s-0.833008 -2.83398 0.5 -3.50098l232 -136l-232 -135c-1.33301 -0.666992 -1.5 -2 -0.5 -4s2.16699 -2.66699 3.5 -2z" />
    <glyph glyph-name="question" unicode="?" horiz-adv-x="410" 
d="M376 518c0 30.667 -5.33398 58.8252 -16.001 84.4922s-25.667 47.667 -45 66s-42.166 32.5 -68.499 42.5s-54.833 15 -85.5 15c-23.333 0 -43.5 -3.16699 -60.5 -9.5s-31 -14.833 -42 -25.5s-19.333 -22.5 -25 -35.5s-8.5 -25.833 -8.5 -38.5
c0 -17.333 4.33301 -29.833 13 -37.5s20 -11.5 34 -11.5s25.167 4 33.5 12s12.5 17.667 12.5 29c0 6.66699 -0.666992 11.834 -2 15.501s-2.83301 7.16699 -4.5 10.5s-3.16699 7.16602 -4.5 11.499s-2 10.5 -2 18.5c0 20 3.16699 34.167 9.5 42.5s21.833 12.5 46.5 12.5
c13.333 0 26.5 -1.5 39.5 -4.5s24.833 -9.16699 35.5 -18.5c17.333 -14.667 30.333 -35.5 39 -62.5s13 -65.833 13 -116.5c0 -35.333 -0.5 -63.666 -1.5 -84.999s-2.66699 -38.166 -5 -50.499s-5.33301 -21.5 -9 -27.5s-7.83398 -11 -12.501 -15
c-7.33301 -5.33301 -16.833 -9.66602 -28.5 -12.999s-22.5 -5 -32.5 -5c-12 0 -25.667 2.5 -41 7.5s-26.333 14.167 -33 27.5c-0.666992 0.666992 -1.5 0.833984 -2.5 0.500977s-1.5 -1.16602 -1.5 -2.49902c0 -0.666992 0.166992 -1.16699 0.5 -1.5
s0.5 -1.16602 0.5 -2.49902v-184c0 -1.33301 1 -2 3 -2s3 0.666992 3 2v176c8.66699 -10.667 19.834 -17.834 33.501 -21.501s26.167 -5.5 37.5 -5.5c24 0 46.667 4.83301 68 14.5s40 23.334 56 41.001s28.833 38.834 38.5 63.501s14.5 52.334 14.5 83.001zM169.999 34.9912
c0 13.333 -4.33301 24.666 -13 33.999s-19.334 14 -32.001 14s-23.5 -4.66699 -32.5 -14s-13.5 -20.666 -13.5 -33.999s4.5 -24.5 13.5 -33.5s19.833 -13.5 32.5 -13.5s23.334 4.5 32.001 13.5s13 20.167 13 33.5z" />
    <glyph glyph-name="at" unicode="@" horiz-adv-x="818" 
d="M752 404c0 51.333 -8.6709 97.0049 -26.0039 137.005s-41.166 73.667 -71.499 101s-65.833 48.166 -106.5 62.499s-84 21.5 -130 21.5c-50.667 0 -98.167 -9.66699 -142.5 -29s-83.166 -45.833 -116.499 -79.5s-59.666 -73 -78.999 -118s-29 -93.167 -29 -144.5
s9.66699 -99.5 29 -144.5s45.666 -84.333 78.999 -118s72.166 -60.334 116.499 -80.001s91.833 -29.5 142.5 -29.5c44 0 85.667 7.5 125 22.5s75 35.5 107 61.5c1.33301 1.33301 1.33301 2.66602 0 3.99902s-2.66602 1.66602 -3.99902 0.999023
c-31.333 -26 -66.166 -46.333 -104.499 -61s-79.5 -22 -123.5 -22c-50 0 -96.833 9.66699 -140.5 29s-81.834 45.5 -114.501 78.5s-58.5 71.667 -77.5 116s-28.5 91.833 -28.5 142.5s9.5 98.167 28.5 142.5s44.833 83 77.5 116s70.834 59 114.501 78s90.5 28.5 140.5 28.5
c45.333 0 88 -7 128 -21s74.833 -34.5 104.5 -61.5s53 -60.167 70 -99.5s25.5 -84.333 25.5 -135c0 -33.333 -5.83301 -63.333 -17.5 -90s-27 -49.334 -46 -68.001s-40.667 -32.834 -65 -42.501s-49.166 -14.5 -74.499 -14.5c-28.667 0 -42.667 13.667 -42 41
s11 72.666 31 135.999l49 160h-59l-12 -36c-2 6.66699 -5.5 12.834 -10.5 18.501s-11 10.334 -18 14.001s-14.5 6.5 -22.5 8.5s-15.667 3 -23 3c-30.667 0 -59.5 -7 -86.5 -21s-50.5 -32.167 -70.5 -54.5s-35.833 -47 -47.5 -74s-17.5 -53.5 -17.5 -79.5
c0 -16 1.83301 -31.5 5.5 -46.5s9.5 -28.5 17.5 -40.5s18.667 -21.667 32 -29s29.666 -11 48.999 -11c10 0 21 1.83301 33 5.5s24.167 9.66699 36.5 18s24 18.833 35 31.5s20.167 28 27.5 46c-3.33301 -13.333 -5.16602 -26 -5.49902 -38s2.16699 -22.667 7.5 -32
s13.833 -16.833 25.5 -22.5s27.834 -8.5 48.501 -8.5c24 0 49.167 4.5 75.5 13.5s50.666 22.667 72.999 41s40.833 41.833 55.5 70.5s22 62.667 22 102zM504.996 471.005l-57.9971 -184c-2.66699 -9.33301 -7.83398 -19.833 -15.501 -31.5s-17 -22.667 -28 -33
s-23.333 -19 -37 -26s-27.834 -10.5 -42.501 -10.5c-18 0 -32.5 5.33301 -43.5 16s-16.5 25 -16.5 43c0 16.667 2.33301 37 7 61s11.167 48 19.5 72s18.333 46.5 30 67.5s24.5 37.5 38.5 49.5c12.667 11.333 24.834 19.666 36.501 24.999s25.167 8 40.5 8
c10 0 19.667 -1.66699 29 -5s17.166 -7.66602 23.499 -12.999s11.166 -11.5 14.499 -18.5s4 -13.833 2 -20.5z" />
    <glyph glyph-name="A" unicode="A" 
d="M696 0c1.33301 0 1.99902 0.999023 1.99902 2.99902s-0.666992 3 -2 3h-85c-3.33301 0 -6 1 -8 3l-273 714c-0.666992 1.33301 -2 2 -4 2c-1.33301 0 -2.33301 -0.666992 -3 -2l-244 -675c-7.33301 -19.333 -12.166 -31.166 -14.499 -35.499s-5.83301 -6.5 -10.5 -6.5
h-75c-1.33301 0 -2 -1 -2 -3s0.666992 -3 2 -3h188c1.33301 0 2 1 2 3s-0.666992 3 -2 3h-90c-3.33301 0 -4.5 2.5 -3.5 7.5s4.83301 16.5 11.5 34.5l72 196h242l85 -235c0 -2 -1.66699 -3 -5 -3h-94c-1.33301 0 -2 -1 -2 -3s0.666992 -3 2 -3h311zM396.999 249.999h-239
l120 329z" />
    <glyph glyph-name="B" unicode="B" horiz-adv-x="655" 
d="M610 188c0 30 -6.66797 56.667 -20.001 80s-31.5 43.166 -54.5 59.499s-50 28.833 -81 37.5s-63.833 13 -98.5 13c24 0 48 4.16699 72 12.5s45.667 20 65 35s35 32.667 47 53s18 42.5 18 66.5c0 28 -6.33301 52.167 -19 72.5s-29.834 37.333 -51.501 51
s-46.667 23.834 -75 30.501s-57.833 10 -88.5 10h-284c-1.33301 0 -2 -1 -2 -3s0.666992 -3 2 -3h88c4 0 6 -1.33301 6 -4v-689c0 -2.66699 -2 -4 -6 -4h-88c-1.33301 0 -2 -1 -2 -3s0.666992 -3 2 -3h334c39.333 -0 73.833 5.33301 103.5 16s54.334 24.667 74.001 42
s34.334 37.333 44.001 60s14.5 46 14.5 70zM451.999 541c0 -30.667 -2.16602 -56.334 -6.49902 -77.001s-11 -37.167 -20 -49.5s-20.5 -21 -34.5 -26s-30.333 -7.5 -49 -7.5h-99v318c0 2.66699 2.33301 4 7 4h58c51.333 0 88.166 -12.167 110.499 -36.5
s33.5 -66.166 33.5 -125.499zM503 182c0 -33.333 -3.66699 -61.167 -11 -83.5s-17.833 -40.333 -31.5 -54s-30.167 -23.5 -49.5 -29.5s-41 -9 -65 -9h-96c-4.66699 0 -7 1.33301 -7 4v365h89c25.333 0 48.5 -2.5 69.5 -7.5s39 -14.667 54 -29s26.667 -34 35 -59
s12.5 -57.5 12.5 -97.5z" />
    <glyph glyph-name="C" unicode="C" horiz-adv-x="655" 
d="M606 -15l-0.00390625 229.998c0 1.33301 -1 2 -3 2s-3 -0.666992 -3 -2c0 -32.667 -5.5 -62.834 -16.5 -90.501s-26.167 -51.667 -45.5 -72s-42.166 -36.166 -68.499 -47.499s-54.833 -17 -85.5 -17c-23.333 0 -47.166 2.83301 -71.499 8.5s-44.833 15.834 -61.5 30.501
c-28 24.667 -49.167 63.334 -63.5 116.001s-21.5 123 -21.5 211c0 88.667 7.16699 159.167 21.5 211.5s35.5 90.833 63.5 115.5c16.667 15.333 36.334 25.666 59.001 30.999s45.667 8 69 8c24.667 0 49.167 -5.66699 73.5 -17s46 -26.333 65 -45s34.5 -39.834 46.5 -63.501
s18 -47.834 18 -72.501c0 -1.33301 0.666992 -2 2 -2c2 0 3 0.666992 3 2v201c0 1.33301 -1 2 -3 2c-1.33301 0 -2 -0.666992 -2 -2c-1.33301 -5.33301 -6.5 -10.666 -15.5 -15.999s-20.833 -8 -35.5 -8c-11.333 0 -23.333 1.33301 -36 4s-25.5 5.83398 -38.5 9.50098
s-26.167 6.83398 -39.5 9.50098s-26 4 -38 4c-48 0 -92 -10 -132 -30s-74.5 -47 -103.5 -81s-51.667 -73.5 -68 -118.5s-24.5 -92.5 -24.5 -142.5s8.33301 -97.333 25 -142s39.834 -84 69.501 -118s64.834 -61 105.501 -81s85 -30 133 -30c14 0 28.5 1.66699 43.5 5
s30 7 45 11s29.5 7.66699 43.5 11s27 5 39 5c14 0 24.667 -3.5 32 -10.5s11.666 -13.5 12.999 -19.5c0.666992 -0.666992 1.66699 -1 3 -1c2 0 3 0.333008 3 1z" />
    <glyph glyph-name="D" unicode="D" horiz-adv-x="742" 
d="M691 354c0 48.667 -8.66699 94.667 -26 138s-40.833 81 -70.5 113s-64.334 57.333 -104.001 76s-82.167 28 -127.5 28h-323c-1.33301 0 -2 -1 -2 -3s0.666992 -3 2 -3h88c4 0 6 -1.33301 6 -4v-689c0 -2.66699 -2 -4 -6 -4h-88c-1.33301 0 -2 -1 -2 -3s0.666992 -3 2 -3
h323c45.333 -0 87.833 9.33301 127.5 28s74.334 44 104.001 76s53.167 69.5 70.5 112.5s26 88.833 26 137.5zM576 354c0 -48 -1.83301 -89.001 -5.5 -123.001s-9 -63 -16 -87s-15.833 -43.833 -26.5 -59.5s-23 -29.5 -37 -41.5c-17.333 -14 -37.333 -23.667 -60 -29
s-45.334 -8 -68.001 -8h-113c-4.66699 0 -7 1.33301 -7 4v689c0 2.66699 2.33301 4 7 4h113c22.667 0 45.334 -2.66699 68.001 -8s42.667 -15 60 -29c28 -23.333 49.167 -60.166 63.5 -110.499s21.5 -117.5 21.5 -201.5z" />
    <glyph glyph-name="E" unicode="E" horiz-adv-x="634" 
d="M609 3l0.000976562 199.999c0 1.33301 -1 2 -3 2s-3 -0.666992 -3 -2c0 -26 -3.83301 -50.833 -11.5 -74.5s-20.334 -44.5 -38.001 -62.5s-40.667 -32.5 -69 -43.5s-63.5 -16.5 -105.5 -16.5h-129c-4 0 -6 1.33301 -6 4v351h51c40.667 0 71.834 -10.5 93.501 -31.5
s32.5 -48.5 32.5 -82.5c0 -1.33301 1 -2 3 -2s3 0.666992 3 2v234c0 1.33301 -1 2 -3 2s-3 -0.666992 -3 -2c0 -34.667 -10.833 -62.334 -32.5 -83.001s-52.834 -31 -93.501 -31h-51v332c0 2.66699 2 4 6 4h126c31.333 0 58 -4.83301 80 -14.5s40 -22.667 54 -39
s24.167 -35.166 30.5 -56.499s9.5 -43.666 9.5 -66.999c0 -1.33301 1 -2 3 -2s3 0.666992 3 2v180c0 2 -1 3 -3 3h-513c-1.33301 0 -2 -1 -2 -3s0.666992 -3 2 -3h88c4 0 6 -1.33301 6 -4v-689c0 -2.66699 -2 -4 -6 -4h-88c-1.33301 0 -2 -1 -2 -3s0.666992 -3 2 -3h566
c2 0 3 1 3 3z" />
    <glyph glyph-name="F" unicode="F" horiz-adv-x="608" 
d="M556 526l0.000976562 179.999c0 2 -1 3 -3 3h-513c-1.33301 0 -2 -1 -2 -3s0.666992 -3 2 -3h89c3.33301 0 5 -1.33301 5 -4v-689c0 -2.66699 -1.66699 -4 -5 -4h-89c-1.33301 0 -2 -1 -2 -3s0.666992 -3 2 -3h299c1.33301 0 2 1 2 3s-0.666992 3 -2 3h-89
c-4.66699 0 -7 1.33301 -7 4v351h44c40.667 0 71.834 -10.5 93.501 -31.5s32.5 -48.5 32.5 -82.5c0 -1.33301 0.666992 -2 2 -2c2 0 3 0.666992 3 2v234c0 1.33301 -1 2 -3 2c-1.33301 0 -2 -0.666992 -2 -2c0 -34.667 -10.833 -62.334 -32.5 -83.001
s-52.834 -31 -93.501 -31h-44v332c0 2.66699 2.33301 4 7 4h125c31.333 0 58.166 -4.83301 80.499 -14.5s40.5 -22.667 54.5 -39s24.167 -35.166 30.5 -56.499s9.5 -43.666 9.5 -66.999c0 -1.33301 1 -2 3 -2s3 0.666992 3 2z" />
    <glyph glyph-name="G" unicode="G" horiz-adv-x="679" 
d="M709 268c1.33301 0 2.00195 0.998047 2.00195 2.99805s-0.666992 3 -2 3h-298c-1.33301 0 -2 -1 -2 -3s0.666992 -3 2 -3h88c4.66699 0 7 -1 7 -3v-178c0 -28 -12 -51.5 -36 -70.5s-59 -28.5 -105 -28.5c-23.333 0 -46.5 2.83301 -69.5 8.5s-43.167 15.834 -60.5 30.501
c-14 12 -25.333 27 -34 45s-15.5 40 -20.5 66s-8.5 56.667 -10.5 92s-3 76.666 -3 123.999c0 88.667 7.16699 159.167 21.5 211.5s35.5 90.833 63.5 115.5c17.333 15.333 37.166 25.666 59.499 30.999s45.166 8 68.499 8c26 0 50.167 -5.66699 72.5 -17
s41.833 -26.166 58.5 -44.499s29.834 -39.333 39.501 -63s14.5 -47.834 14.5 -72.501c0 -1.33301 1 -2 3 -2s3 0.666992 3 2v200c0 1.33301 -1 2 -3 2c-1.33301 0 -2.33301 -0.666992 -3 -2c-1.33301 -5.33301 -6.5 -10.666 -15.5 -15.999s-20.5 -8 -34.5 -8
c-11.333 0 -22.5 1.33301 -33.5 4s-22 5.83398 -33 9.50098s-22.167 6.83398 -33.5 9.50098s-23 4 -35 4c-48 0 -92.167 -10 -132.5 -30s-75 -47 -104 -81s-51.667 -73.5 -68 -118.5s-24.5 -92.5 -24.5 -142.5c0 -48 7.16699 -94.333 21.5 -139s35 -84.167 62 -118.5
s60 -61.833 99 -82.5s82.833 -31 131.5 -31c28.667 0 52.667 2.83301 72 8.5s36 12 50 19l37.5 19.5c11 6 22.167 9 33.5 9c7.33301 0 13.833 -1.5 19.5 -4.5s10.667 -6.83301 15 -11.5s7.66602 -9.33398 9.99902 -14.001s3.83301 -8.66699 4.5 -12
c0 -1.33301 1.33301 -2.16602 4 -2.49902s4 0.166992 4 1.5v269c0 2 2 3 6 3h88z" />
    <glyph glyph-name="H" unicode="H" horiz-adv-x="789" 
d="M749 0c1.33301 0 2 1 2 3s-0.666992 3 -2 3h-89c-4 0 -6 1.33301 -6 4v689c0 2.66699 2 4 6 4h89c1.33301 0 2 1 2 3s-0.666992 3 -2 3h-290c-1.33301 0 -2 -1 -2 -3s0.666992 -3 2 -3h79c4 0 6 -1.33301 6 -4v-327h-301v327c0 2.66699 2.33301 4 7 4h79
c1.33301 0 2 1 2 3s-0.666992 3 -2 3h-289c-1.33301 0 -2 -1 -2 -3s0.666992 -3 2 -3h88c4 0 6 -1.33301 6 -4v-689c0 -2.66699 -2 -4 -6 -4h-88c-1.33301 0 -2 -1 -2 -3s0.666992 -3 2 -3h289c1.33301 0 2 1 2 3s-0.666992 3 -2 3h-79c-4.66699 0 -7 1.33301 -7 4v356h301
v-356c0 -2.66699 -2 -4 -6 -4h-79c-1.33301 0 -2 -1 -2 -3s0.666992 -3 2 -3h290z" />
    <glyph glyph-name="I" unicode="I" horiz-adv-x="378" 
d="M339 0c1.33301 0 2 1 2 3s-0.666992 3 -2 3h-89c-4.66699 0 -7 1.33301 -7 4v689c0 2.66699 2.33301 4 7 4h89c1.33301 0 2 1 2 3s-0.666992 3 -2 3h-299c-1.33301 0 -2 -1 -2 -3s0.666992 -3 2 -3h88c4 0 6 -1.33301 6 -4v-689c0 -2.66699 -2 -4 -6 -4h-88
c-1.33301 0 -2 -1 -2 -3s0.666992 -3 2 -3h299z" />
    <glyph glyph-name="J" unicode="J" horiz-adv-x="472" 
d="M458 703c1.33301 0 2 0.999023 2 2.99902s-0.666992 3 -2 3h-300c-1.33301 0 -2 -1 -2 -3s0.666992 -3 2 -3h89c4 0 6 -1.33301 6 -4v-629c0 -28 -8.33301 -48.667 -25 -62s-36 -20 -58 -20c-8 0 -15.833 1.66699 -23.5 5s-14.5 7.5 -20.5 12.5s-10.667 10.833 -14 17.5
s-5 13.334 -5 20.001c0 10 2.16699 17.333 6.5 22s9 9.16699 14 13.5s9.66699 9.5 14 15.5s6.5 15.333 6.5 28c0 18 -6.33301 33.333 -19 46s-27.667 19 -45 19c-16 0 -31.5 -6.66699 -46.5 -20s-22.5 -32 -22.5 -56c0 -15.333 3.83301 -30.5 11.5 -45.5
s18.167 -28.667 31.5 -41s29.5 -22.333 48.5 -30s40.167 -11.5 63.5 -11.5c62.667 0 110.5 16 143.5 48s49.5 77.333 49.5 136v532c0 2.66699 2 4 6 4h89z" />
    <glyph glyph-name="K" unicode="K" horiz-adv-x="658" 
d="M748 0c1.33301 0 1.99805 1 1.99805 3s-0.666992 3 -2 3h-93c-3.33301 0 -6 1 -8 3l-334 417l203 235l20.5 22.5c5 5.66699 9 10 12 13s5.16699 4.83301 6.5 5.5s3 1 5 1h84c1.33301 0 2 1 2 3s-0.666992 3 -2 3h-200c-1.33301 0 -2 -1 -2 -3s0.666992 -3 2 -3h90
c1.33301 0 2.33301 -0.333008 3 -1s0.333984 -2.5 -0.999023 -5.5s-4.16602 -7.16699 -8.49902 -12.5l-19.5 -23l-265 -304v342c0 2.66699 2.33301 4 7 4h88c1.33301 0 2 1 2 3s-0.666992 3 -2 3h-298c-1.33301 0 -2 -1 -2 -3s0.666992 -3 2 -3h88c4 0 6 -1.33301 6 -4v-689
c0 -2.66699 -2 -4 -6 -4h-88c-1.33301 0 -2 -1 -2 -3s0.666992 -3 2 -3h298c1.33301 0 2 1 2 3s-0.666992 3 -2 3h-88c-4.66699 0 -7 1.33301 -7 4v341l267 -342c2 -2 1 -3 -3 -3h-101c-1.33301 0 -2 -1 -2 -3s0.666992 -3 2 -3h342z" />
    <glyph glyph-name="L" unicode="L" horiz-adv-x="602" 
d="M582 3l0.000976562 209c0 1.33301 -1 2 -3 2s-3 -0.666992 -3 -2c0 -25.333 -3.16699 -50.333 -9.5 -75s-17.333 -46.667 -33 -66s-36.334 -35 -62.001 -47s-57.5 -18 -95.5 -18h-126c-4 0 -6 1.33301 -6 4v689c0 2.66699 2 4 6 4h89c1.33301 0 2 1 2 3s-0.666992 3 -2 3
h-299c-1.33301 0 -2 -1 -2 -3s0.666992 -3 2 -3h89c3.33301 0 5 -1.33301 5 -4v-689c0 -2.66699 -1.66699 -4 -5 -4h-89c-1.33301 0 -2 -1 -2 -3s0.666992 -3 2 -3h539c2 0 3 1 3 3z" />
    <glyph glyph-name="M" unicode="M" horiz-adv-x="883" 
d="M844 0c1.33301 0 1.99902 1 1.99902 3s-0.666992 3 -2 3h-88c-4.66699 0 -7 1.33301 -7 4v689c0 2.66699 2.33301 4 7 4h88c1.33301 0 2 1 2 3s-0.666992 3 -2 3h-199c-5.33301 0 -10 -6.33301 -14 -19l-180 -535l-200 536c-5.33301 12 -10.666 18 -15.999 18h-200
c-1.33301 0 -2 -1 -2 -3s0.666992 -3 2 -3h88c4 0 6 -1.33301 6 -4v-689c0 -2.66699 -2 -4 -6 -4h-88c-1.33301 0 -2 -1 -2 -3s0.666992 -3 2 -3h197c1.33301 0 2 1 2 3s-0.666992 3 -2 3h-89c-4 0 -6 1.33301 -6 4v683l259 -706c0.666992 -1.33301 2 -2 4 -2
s3.33301 0.666992 4 2l236 706v-683c0 -2.66699 -2.33301 -4 -7 -4h-88c-1.33301 0 -2 -1 -2 -3s0.666992 -3 2 -3h299z" />
    <glyph glyph-name="N" unicode="N" horiz-adv-x="738" 
d="M710 703c0.666992 0 0.999023 1.00195 0.999023 3.00195s-0.333008 3 -1 3h-197c-1.33301 0 -2 -1 -2 -3s0.666992 -3 2 -3h89c4 0 6 -1.33301 6 -4v-521l-340 513c-4.66699 7.33301 -8.66699 12.166 -12 14.499s-6.66602 3.5 -9.99902 3.5h-211c-1.33301 0 -2 -1 -2 -3
s0.666992 -3 2 -3h89c3.33301 0 5 -1.33301 5 -4v-689c0 -2.66699 -1.66699 -4 -5 -4h-89c-1.33301 0 -2 -1 -2 -3s0.666992 -3 2 -3h197c1.33301 0 2 1 2 3s-0.666992 3 -2 3h-89c-4 0 -6 1.33301 -6 4v686l470 -709c1.33301 -2 3 -2.83301 5 -2.5s3 1.16602 3 2.49902v712
c0 2.66699 2 4 6 4h89z" />
    <glyph glyph-name="O" unicode="O" horiz-adv-x="759" 
d="M708 354c0 51.333 -8.66797 99.667 -26.001 145s-40.833 84.833 -70.5 118.5s-64.5 60.167 -104.5 79.5s-82.667 29 -128 29c-48 0 -92 -10 -132 -30s-74.5 -47 -103.5 -81s-51.667 -73.5 -68 -118.5s-24.5 -92.5 -24.5 -142.5c0 -51.333 8.66699 -99.5 26 -144.5
s40.833 -84.333 70.5 -118s64.334 -60.167 104.001 -79.5s82.167 -29 127.5 -29s88 9.66699 128 29s74.833 45.833 104.5 79.5s53.167 73 70.5 118s26 93.167 26 144.5zM591.999 354.001c0 -50 -1.83301 -93 -5.5 -129s-9.16699 -66.5 -16.5 -91.5s-16.166 -46 -26.499 -63
s-22.5 -31.5 -36.5 -43.5c-17.333 -14.667 -36.5 -24.834 -57.5 -30.501s-44.5 -8.5 -70.5 -8.5s-49.5 2.83301 -70.5 8.5s-40.167 15.834 -57.5 30.501c-13.333 12 -25.333 26.5 -36 43.5s-19.5 38 -26.5 63s-12.333 55.5 -16 91.5s-5.5 79 -5.5 129
c0 88.667 7.16699 159.167 21.5 211.5s35.166 90.833 62.499 115.5c17.333 15.333 36.5 25.666 57.5 30.999s44.5 8 70.5 8s49.5 -2.66699 70.5 -8s40.167 -15.666 57.5 -30.999c28 -24.667 49.167 -63.167 63.5 -115.5s21.5 -122.833 21.5 -211.5z" />
    <glyph glyph-name="P" unicode="P" horiz-adv-x="650" 
d="M618 486c0 30.667 -6.16602 59.5 -18.499 86.5s-30.333 50.667 -54 71s-52.834 36.333 -87.501 48s-74.667 17.5 -120 17.5h-298c-1.33301 0 -2 -1 -2 -3s0.666992 -3 2 -3h89c3.33301 0 5 -1.33301 5 -4v-689c0 -2.66699 -1.66699 -4 -5 -4h-89c-1.33301 0 -2 -1 -2 -3
s0.666992 -3 2 -3h299c1.33301 0 2 1 2 3s-0.666992 3 -2 3h-89c-4 0 -6 1.33301 -6 4v280c14 -3.33301 30 -6.16602 48 -8.49902s38 -3.5 60 -3.5c39.333 0 75.333 5.16699 108 15.5s60.667 24.666 84 42.999s41.5 40.333 54.5 66s19.5 53.5 19.5 83.5zM510.001 486
c0 -36 -3.83496 -66.833 -11.502 -92.5s-18.5 -46.5 -32.5 -62.5s-30.667 -27.833 -50 -35.5s-40.666 -11.5 -63.999 -11.5c-21.333 0 -40.833 1 -58.5 3s-34.167 6.33301 -49.5 13v399c0 2.66699 2 4 6 4h88c24 0 46.333 -4.5 67 -13.5s38.834 -22.5 54.501 -40.5
s28 -40.667 37 -68s13.5 -59 13.5 -95z" />
    <glyph glyph-name="Q" unicode="Q" horiz-adv-x="759" 
d="M708 354c0 51.333 -8.66797 99.6689 -26.001 145.002s-40.833 84.833 -70.5 118.5s-64.5 60.167 -104.5 79.5s-82.667 29 -128 29c-48 0 -92 -10 -132 -30s-74.5 -47 -103.5 -81s-51.667 -73.5 -68 -118.5s-24.5 -92.5 -24.5 -142.5c0 -51.333 8.66699 -99.5 26 -144.5
s40.833 -84.333 70.5 -118s64.334 -60.167 104.001 -79.5s82.167 -29 127.5 -29c9.33301 0 18.833 0.333008 28.5 1s19.167 2 28.5 4l-71 -24c-24 -8 -46.333 -16.667 -67 -26c-10.667 -1.33301 -18.834 -3.33301 -24.501 -6s-8.5 -5.33398 -8.5 -8.00098
c0 -4 2.66699 -6 8 -6c3.33301 0 8 2.5 14 7.5s13.333 7.5 22 7.5c24.667 0 43.167 -4.66699 55.5 -14s23 -20.833 32 -34.5l30 -45c11 -16.333 27.333 -31.333 49 -45s51.167 -25.167 88.5 -34.5s87 -14 149 -14c1.33301 0 2 1 2 3c0 1.33301 -0.666992 2 -2 2
c-34.667 0 -61.334 4.66699 -80.001 14s-33.834 21 -45.501 35s-22.667 29 -33 45s-24.5 31 -42.5 45s-42.5 25.667 -73.5 35s-73.167 14 -126.5 14c16.667 6.66699 34.334 13 53.001 19s37.667 12.5 57 19.5s38.333 14.333 57 22s36 16.167 52 25.5
c26 14.667 49.833 33.167 71.5 55.5s40.334 47.5 56.001 75.5s27.834 58.667 36.501 92s13 68.666 13 105.999zM591.999 354.003c0 -50 -1.83496 -93 -5.50195 -129s-9.16699 -66.5 -16.5 -91.5s-16.166 -46 -26.499 -63s-22.5 -31.5 -36.5 -43.5
c-17.333 -14.667 -36.5 -24.834 -57.5 -30.501s-44.5 -8.5 -70.5 -8.5s-49.667 2.83301 -71 8.5s-40.333 15.834 -57 30.501c-14 12 -26.167 26.5 -36.5 43.5s-19.166 38 -26.499 63s-12.833 55.5 -16.5 91.5s-5.5 79 -5.5 129c0 88.667 7.16699 159.167 21.5 211.5
s35.5 90.833 63.5 115.5c16.667 15.333 35.667 25.666 57 30.999s45 8 71 8s49.5 -2.66699 70.5 -8s40.167 -15.666 57.5 -30.999c28 -24.667 49.167 -63.167 63.5 -115.5s21.5 -122.833 21.5 -211.5z" />
    <glyph glyph-name="R" unicode="R" horiz-adv-x="690" 
d="M746 18c1.33301 0.666992 1.33105 1.83398 -0.00195312 3.50098s-2.66602 2.16699 -3.99902 1.5c-6.66699 -7.33301 -15.334 -13.833 -26.001 -19.5s-22.667 -8.5 -36 -8.5c-19.333 0 -34.333 8.66699 -45 26s-16 38.666 -16 63.999v90c0 58 -20.333 104.833 -61 140.5
s-104 53.5 -190 53.5c30.667 0 59.334 4.33301 86.001 13s50 20.5 70 35.5s35.667 32.5 47 52.5s17 41.667 17 65c0 24.667 -5.5 47.5 -16.5 68.5s-27 39.333 -48 55s-46.333 28 -76 37s-63.5 13.5 -101.5 13.5h-307c-1.33301 0 -2 -1 -2 -3s0.666992 -3 2 -3h89
c4 0 6 -1.33301 6 -4v-689c0 -2.66699 -2 -4 -6 -4h-89c-1.33301 0 -2 -1 -2 -3s0.666992 -3 2 -3h326c1.33301 0 2 1 2 3s-0.666992 3 -2 3h-115c-4.66699 0 -7 1.33301 -7 4v356h101c22.667 0 43.834 -2.33301 63.501 -7s36.834 -12 51.501 -22s26 -22.833 34 -38.5
s12 -34.5 12 -56.5v-65c0 -36 3.83301 -66.333 11.5 -91s18 -44.667 31 -60s28.5 -26.333 46.5 -33s37.333 -10 58 -10c21.333 0 39.666 3.16699 54.999 9.5s28.333 14.833 39 25.5zM477.998 531c0 -32 -2.33203 -58.166 -6.99902 -78.499s-12.334 -36.5 -23.001 -48.5
s-24.5 -20.333 -41.5 -25s-37.833 -7 -62.5 -7h-101v327c0 2.66699 2.33301 4 7 4h71c23.333 0 44.666 -3.16699 63.999 -9.5s35.833 -16.333 49.5 -30s24.334 -31.334 32.001 -53.001s11.5 -48.167 11.5 -79.5z" />
    <glyph glyph-name="S" unicode="S" horiz-adv-x="556" 
d="M524 202c0 30.667 -5 56.8301 -15 78.4971s-24.167 40.834 -42.5 57.501s-40.666 31.167 -66.999 43.5s-55.833 24.166 -88.5 35.499c-63.333 22.667 -110.5 47.834 -141.5 75.501s-46.5 59.5 -46.5 95.5c0 16.667 3.66699 33 11 49s17.333 30.167 30 42.5
s27.667 22.166 45 29.499s36 11 56 11s40.167 -4 60.5 -12s38.666 -19.167 54.999 -33.5s29.5 -31.333 39.5 -51s15 -41.5 15 -65.5c0 -1.33301 1 -2 3 -2s3 0.666992 3 2v165c0 1.33301 -1 2 -3 2c-1.33301 0 -2.33301 -0.666992 -3 -2
c-1.33301 -5.33301 -4.83301 -10.666 -10.5 -15.999s-15.834 -8 -30.501 -8c-10 0 -20 1.33301 -30 4s-20.167 5.83398 -30.5 9.50098s-21.166 6.83398 -32.499 9.50098s-23.666 4 -36.999 4c-25.333 0 -49.5 -5.66699 -72.5 -17s-43.167 -26.5 -60.5 -45.5
s-31 -40.833 -41 -65.5s-15 -50.667 -15 -78c0 -29.333 4.33301 -54.833 13 -76.5s20.667 -40.334 36 -56.001s33.333 -29.167 54 -40.5s43 -21.333 67 -30c38.667 -14 72 -27.167 100 -39.5s51.167 -25.5 69.5 -39.5s31.833 -29.667 40.5 -47s13 -38 13 -62
c0 -16 -4.33301 -32.5 -13 -49.5s-21 -32.167 -37 -45.5s-35.5 -24.333 -58.5 -33s-49.167 -13 -78.5 -13c-32.667 0 -62.5 7.5 -89.5 22.5s-50 33.667 -69 56s-33.833 46 -44.5 71s-16 47.5 -16 67.5c0 1.33301 -1 2 -3 2c-1.33301 0 -2 -0.666992 -2 -2v-220
c0 -1.33301 0.666992 -2 2 -2c2 0 3 0.666992 3 2c2 9.33301 8.16699 18.166 18.5 26.499s22.5 12.5 36.5 12.5c12 0 23.833 -2.16699 35.5 -6.5l37 -14c13 -5 27.167 -9.66699 42.5 -14s32 -6.5 50 -6.5c40 0 75 7.33301 105 22s55.167 32.834 75.5 54.501
s35.666 45.334 45.999 71.001s15.5 49.5 15.5 71.5z" />
    <glyph glyph-name="T" unicode="T" horiz-adv-x="623" 
d="M602 496v210c0 2 -0.666992 3 -2 3h-576c-2 0 -3 -1 -3 -3v-210c0 -1.33301 1 -2 3 -2s3 0.666992 3 2c0 28.667 3.5 55.667 10.5 81s18.333 47.333 34 66s36.167 33.334 61.5 44.001s56.333 16 93 16h22c4 0 6 -1.33301 6 -4v-689c0 -2.66699 -2 -4 -6 -4h-88
c-1.33301 0 -2 -1 -2 -3s0.666992 -3 2 -3h299c1.33301 0 2 1 2 3s-0.666992 3 -2 3h-89c-4 0 -6 1.33301 -6 4v689c0 2.66699 2 4 6 4h23c36.667 0 67.834 -5.33301 93.501 -16s46.667 -25.334 63 -44.001s28.166 -40.667 35.499 -66s11 -52.333 11 -81
c0 -1.33301 1 -2 3 -2s3 0.666992 3 2z" />
    <glyph glyph-name="U" unicode="U" horiz-adv-x="723" 
d="M713 703c1.33301 0 2.00098 0.99707 2.00098 2.99707s-0.666992 3 -2 3h-196c-1.33301 0 -2 -1 -2 -3s0.666992 -3 2 -3h88c4 0 6 -1.33301 6 -4v-489c0 -31.333 -4.16699 -60.166 -12.5 -86.499s-21 -48.833 -38 -67.5s-38.833 -33.167 -65.5 -43.5
s-58.334 -15.5 -95.001 -15.5c-116.667 0 -175 69.667 -175 209v493c0 2.66699 2 4 6 4h89c1.33301 0 2 1 2 3s-0.666992 3 -2 3h-300c-1.33301 0 -2 -1 -2 -3s0.666992 -3 2 -3h89c4 0 6 -1.33301 6 -4v-493c0 -37.333 6.33301 -70 19 -98s30.5 -51.167 53.5 -69.5
s50.5 -32.166 82.5 -41.499s67 -14 105 -14c42 0 78.333 5.33301 109 16s56 25.834 76 45.501s34.667 43.5 44 71.5s14 59.333 14 94v489c0 2.66699 2 4 6 4h89z" />
    <glyph glyph-name="V" unicode="V" horiz-adv-x="700" 
d="M727 703c1.33301 0 1.99805 0.99707 1.99805 2.99707s-0.666992 3 -2 3h-201c-1.33301 0 -2 -1 -2 -3s0.666992 -3 2 -3h94c3.33301 0 4.83301 -2.16699 4.5 -6.5s-4.16602 -16.166 -11.499 -35.499l-186 -533l-243 571c-0.666992 2.66699 1 4 5 4h105c1.33301 0 2 1 2 3
s-0.666992 3 -2 3h-328c-1.33301 0 -2 -1 -2 -3s0.666992 -3 2 -3h91c4.66699 0 7.33398 -1.33301 8.00098 -4l311 -714c0.666992 -1.33301 1.66699 -2.16602 3 -2.49902s2.33301 0.5 3 2.5l238 676c6.66699 18.667 11.5 30.334 14.5 35.001s6.16699 7 9.5 7h83z" />
    <glyph glyph-name="W" unicode="W" horiz-adv-x="1011" 
d="M1061 703c1.33301 0 1.99805 1 1.99805 3s-0.666992 3 -2 3h-201c-1.33301 0 -2 -1 -2 -3s0.666992 -3 2 -3h94c3.33301 0 4.83301 -2 4.5 -6s-3.5 -14.333 -9.5 -31l-180 -530l-203 563c-1.33301 2.66699 0.333984 4 5.00098 4h106c1.33301 0 2 1 2 3s-0.666992 3 -2 3
h-310c-1.33301 0 -2 -1 -2 -3s0.666992 -3 2 -3h76c0.666992 0 2.16699 -0.333008 4.5 -1s3.5 -1.66699 3.5 -3l68 -183l-128 -376l-217 559c-1.33301 2.66699 0 4 4 4h91c1.33301 0 2 1 2 3s-0.666992 3 -2 3h-313c-1.33301 0 -2 -1 -2 -3s0.666992 -3 2 -3h91
c4 0 6.66699 -1.33301 8 -4l281 -714c0.666992 -1.33301 1.83398 -2.16602 3.50098 -2.49902s2.83398 0.5 3.50098 2.5l180 522l191 -522c0.666992 -1.33301 2 -2 4 -2s3.33301 0.666992 4 2l232 676c6.66699 19.333 11.667 31.166 15 35.499s6.66602 6.5 9.99902 6.5h82z
" />
    <glyph glyph-name="X" unicode="X" horiz-adv-x="684" 
d="M717 0c1.33301 0 2 1 2 3s-0.666992 3 -2 3h-93c-3.33301 0 -6 1 -8 3l-234 410l147 242c11.333 19.333 19.5 31.166 24.5 35.499s8.16699 6.5 9.5 6.5h87c1.33301 0 2 1 2 3s-0.666992 3 -2 3h-202c-1.33301 0 -2 -1 -2 -3s0.666992 -3 2 -3h88
c5.33301 0 7.16602 -2.16699 5.49902 -6.5s-8.5 -16.166 -20.5 -35.499l-142 -235l-154 273c-1.33301 2.66699 -0.333008 4 3 4h101c1.33301 0 2 1 2 3s-0.666992 3 -2 3h-326c-1.33301 0 -2 -1 -2 -3s0.666992 -3 2 -3h91c4.66699 0 7.66699 -1.33301 9 -4l214 -374
l-169 -277c-11.333 -19.333 -19.333 -31.166 -24 -35.499s-7.66699 -6.5 -9 -6.5h-87c-1.33301 0 -2 -1 -2 -3s0.666992 -3 2 -3h200c1.33301 0 2 1 2 3s-0.666992 3 -2 3h-86c-5.33301 0 -7.16602 2.16699 -5.49902 6.5s8.16699 16.166 19.5 35.499l165 269l173 -308
c2 -2 0.666992 -3 -4 -3h-101c-1.33301 0 -2 -1 -2 -3s0.666992 -3 2 -3h328z" />
    <glyph glyph-name="Y" unicode="Y" horiz-adv-x="639" 
d="M662 703c1.33301 0 2 0.999023 2 2.99902s-0.666992 3 -2 3h-201c-1.33301 0 -2 -1 -2 -3s0.666992 -3 2 -3h99c3.33301 0 4.5 -2.16699 3.5 -6.5s-6.16699 -16.166 -15.5 -35.499l-153 -327l-187 365c-1.33301 2.66699 -0.333008 4 3 4h107c0.666992 0 1 1 1 3
s-0.333008 3 -1 3h-332c-1.33301 0 -2 -1 -2 -3s0.666992 -3 2 -3h92c4 0 6.66699 -1.33301 8 -4l202 -390v-299c0 -2.66699 -2.33301 -4 -7 -4h-89c-1.33301 0 -2 -1 -2 -3s0.666992 -3 2 -3h300c1.33301 0 2 1 2 3s-0.666992 3 -2 3h-89c-4 0 -6 1.33301 -6 4v314l157 335
c9.33301 20 16 32.333 20 37s7.66699 7 11 7h77z" />
    <glyph glyph-name="Z" unicode="Z" horiz-adv-x="639" 
d="M588 3l0.000976562 214c0 1.33301 -1 2 -3 2c-1.33301 0 -2 -0.666992 -2 -2c0 -28.667 -4.33301 -55.834 -13 -81.501s-21.5 -48 -38.5 -67s-38 -34.167 -63 -45.5s-54.167 -17 -87.5 -17h-199c-4.66699 0 -6 1 -4 3l406 692c4 5.33301 3.66699 8 -1 8h-489
c-2 0 -3 -1 -3 -3v-210c0 -1.33301 1 -2 3 -2s3 0.666992 3 2c0 28.667 4 55.667 12 81s20.167 47.333 36.5 66s36.833 33.334 61.5 44.001s53.667 16 87 16h166c3.33301 0 4.33301 -1.33301 3 -4l-406 -692c-2.66699 -4.66699 -2.33398 -7 0.999023 -7h528
c1.33301 0 2 1 2 3z" />
    <glyph glyph-name="bracketleft" unicode="[" horiz-adv-x="246" 
d="M263 -244c1.33301 0 2 1 2 3s-0.666992 3 -2 3h-94c-4 0 -6 1 -6 3v963c0 2.66699 2 4 6 4h94c1.33301 0 2 0.666992 2 2c0 2 -0.666992 3 -2 3h-174c-2 0 -3 -1 -3 -3v-974c0 -2.66699 1 -4 3 -4h174z" />
    <glyph glyph-name="backslash" unicode="\" horiz-adv-x="356" 
d="M294 -20l-316 777c-0.666992 1.33301 -2 1.5 -4 0.5s-2.66699 -2.16699 -2 -3.5l316 -777c0.666992 -1.33301 2 -1.5 4 -0.5s2.66699 2.16699 2 3.5z" />
    <glyph glyph-name="bracketright" unicode="]" horiz-adv-x="248" 
d="M163 -240v974c0 2 -1 3 -3 3h-174c-1.33301 0 -2 -1 -2 -3c0 -1.33301 0.666992 -2 2 -2h94c4 0 6 -1.33301 6 -4v-963c0 -2 -2 -3 -6 -3h-94c-1.33301 0 -2 -1 -2 -3s0.666992 -3 2 -3h174c2 0 3 1.33301 3 4z" />
    <glyph glyph-name="asciicircum" unicode="^" horiz-adv-x="325" 
d="M294 533l-72.5 85.5c-19.667 24.333 -36.167 46.833 -49.5 67.5c-1.33301 0.666992 -2.33301 0.666992 -3 0c-13.333 -20.667 -29.5 -43.167 -48.5 -67.5s-42.5 -52.833 -70.5 -85.5c-1.33301 -1.33301 -1.5 -2.5 -0.5 -3.5s2.16699 -1.16699 3.5 -0.5l113 85l124 -85
c1.33301 -0.666992 2.5 -0.5 3.5 0.5s1.16699 2.16699 0.5 3.5z" />
    <glyph glyph-name="underscore" unicode="_" horiz-adv-x="566" 
d="M530 0c1.33301 0 2 1 2 3s-0.666992 3 -2 3h-494c-1.33301 0 -2 -1 -2 -3s0.666992 -3 2 -3h494z" />
    <glyph glyph-name="grave" unicode="`" horiz-adv-x="352" 
d="M299 524c-23.333 5.33301 -42.5 13.166 -57.5 23.499s-27.667 21.333 -38 33s-18.833 23.667 -25.5 36l-18.5 34c-5.66699 10.333 -11.5 18.666 -17.5 24.999s-13.667 9.5 -23 9.5s-16.666 -2.83301 -21.999 -8.5s-8 -12.5 -8 -20.5
c0 -9.33301 2.66699 -19.666 8 -30.999s15.5 -23.166 30.5 -35.499s36.167 -24.5 63.5 -36.5s63 -23.333 107 -34c1.33301 -0.666992 2.16602 0 2.49902 2s-0.166992 3 -1.5 3z" />
    <glyph glyph-name="a" unicode="a" horiz-adv-x="438" 
d="M429 30c0.666992 1.33301 0.169922 2.5 -1.49707 3.5s-2.5 0.833008 -2.5 -0.5c-2 -5.33301 -6.16699 -10.833 -12.5 -16.5s-13.833 -8.5 -22.5 -8.5c-7.33301 0 -13.5 2.66699 -18.5 8s-7.5 13.666 -7.5 24.999v213c0 62.667 -13.333 108.5 -40 137.5
s-65.667 43.5 -117 43.5c-19.333 0 -36.5 -2.5 -51.5 -7.5s-27.5 -11.167 -37.5 -18.5s-17.5 -15.5 -22.5 -24.5s-7.5 -17.833 -7.5 -26.5c0 -10.667 3 -20.5 9 -29.5s16.333 -13.5 31 -13.5c15.333 0 26.166 3.5 32.499 10.5s9.5 14.833 9.5 23.5
c0 7.33301 -1.16699 13.166 -3.5 17.499s-3.5 10.833 -3.5 19.5c0 15.333 4 26.333 12 33s18.667 10 32 10c8.66699 0 17.667 -1.5 27 -4.5s17.666 -8.16699 24.999 -15.5s13.333 -17.5 18 -30.5s7 -29.5 7 -49.5v-76c0 -5.33301 -3.5 -9.66602 -10.5 -12.999
s-16.167 -6 -27.5 -8s-23.833 -3.66699 -37.5 -5l-41.5 -4c-10 -1.33301 -22.167 -3.66602 -36.5 -6.99902s-28.333 -9.5 -42 -18.5s-25.334 -21.667 -35.001 -38s-14.5 -37.5 -14.5 -63.5c0 -20 3.83301 -36.667 11.5 -50s17.667 -24 30 -32s26.5 -13.667 42.5 -17
s32.333 -5 49 -5c26.667 0 51 5.66699 73 17s36.333 27.666 43 48.999c3.33301 -19.333 11.333 -35.166 24 -47.499s29.667 -18.5 51 -18.5c18.667 0 33.667 4 45 12s18.333 16.667 21 26zM284.003 76c0 -10 -2.66504 -19.501 -7.99805 -28.501s-12.333 -17 -21 -24
s-18.667 -12.5 -30 -16.5s-23 -6 -35 -6c-8.66699 0 -17.334 1.16699 -26.001 3.5s-16.5 6.83301 -23.5 13.5s-12.667 16.334 -17 29.001s-6.5 29 -6.5 49c0 22.667 2 41.5 6 56.5s9.16699 27 15.5 36s13.666 15.667 21.999 20s16.833 7.5 25.5 9.5
c7.33301 1.33301 15.5 2.33301 24.5 3s18 1.66699 27 3s17.5 3 25.5 5s15 5 21 9v-162z" />
    <glyph glyph-name="b" unicode="b" horiz-adv-x="503" 
d="M463 211c0 27.333 -5.5 54.501 -16.5 81.501s-26 51 -45 72s-41.167 38 -66.5 51s-52.333 19.5 -81 19.5c-19.333 0 -36.666 -3.5 -51.999 -10.5s-29 -16.833 -41 -29.5v337c0 2 -1 3 -3 3h-138c-1.33301 0 -2 -1 -2 -3s0.666992 -3 2 -3h55c4.66699 0 7 -1.33301 7 -4
v-715c0 -2.66699 -2.33301 -4 -7 -4h-55c-1.33301 0 -2 -1 -2 -3s0.666992 -3 2 -3h138c2 0 3 1 3 3v29c25.333 -27.333 56.666 -41 93.999 -41c28.667 0 55.667 6.33301 81 19s47.5 29.167 66.5 49.5s33.833 43.666 44.5 69.999s16 53.5 16 81.5zM381 211.001
c0 -51.333 -4.16797 -92.668 -12.501 -124.001s-20.833 -54 -37.5 -68c-10.667 -8.66699 -22.667 -14.667 -36 -18s-26.666 -5 -39.999 -5c-19.333 0 -38 4.83301 -56 14.5s-30.667 24.167 -38 43.5v330c11.333 14.667 25.166 25.834 41.499 33.501s33.5 11.5 51.5 11.5
c13.333 0 26.833 -1.5 40.5 -4.5s25.834 -9.16699 36.501 -18.5c33.333 -28 50 -93 50 -195z" />
    <glyph glyph-name="c" unicode="c" horiz-adv-x="432" 
d="M413 85c0.666992 1.33301 0.499023 2.49902 -0.500977 3.49902s-1.83301 1.16699 -2.5 0.5c-17.333 -28 -39.5 -50.5 -66.5 -67.5s-58.5 -25.5 -94.5 -25.5c-13.333 0 -27 1.66699 -41 5s-26 9.33301 -36 18c-8 7.33301 -15.167 16 -21.5 26s-11.666 22.5 -15.999 37.5
s-7.5 33 -9.5 54s-3 46.5 -3 76.5s1 55.5 3 76.5s5.16699 39 9.5 54s9.66602 27.333 15.999 37s13.5 18.167 21.5 25.5c10 9.33301 22 15.5 36 18.5s27.667 4.5 41 4.5c24.667 0 41.334 -3.33301 50.001 -10s13 -18.667 13 -36c0 -7.33301 -0.5 -12.833 -1.5 -16.5
s-2.33301 -7 -4 -10s-3 -6 -4 -9s-1.5 -7.5 -1.5 -13.5c0 -9.33301 3.5 -17.5 10.5 -24.5s16.5 -10.5 28.5 -10.5s21.833 3.33301 29.5 10s11.5 17.334 11.5 32.001c0 11.333 -2.5 22.5 -7.5 33.5s-13 21 -24 30s-24.833 16.333 -41.5 22s-36.334 8.5 -59.001 8.5
c-28.667 0 -55.667 -5.83301 -81 -17.5s-47.333 -27.5 -66 -47.5s-33.5 -43.5 -44.5 -70.5s-16.5 -55.833 -16.5 -86.5s5.5 -59.5 16.5 -86.5s25.833 -50.5 44.5 -70.5s40.667 -35.833 66 -47.5s52.333 -17.5 81 -17.5c35.333 0 66.833 8.5 94.5 25.5
s50.834 39.833 69.501 68.5z" />
    <glyph glyph-name="d" unicode="d" horiz-adv-x="493" 
d="M484 0c1.33301 0 1.99707 0.999023 1.99707 2.99902s-0.666992 3 -2 3h-55c-4 0 -6 1.33301 -6 4v722c0 2 -1 3 -3 3h-138c-1.33301 0 -2 -1 -2 -3s0.666992 -3 2 -3h55c4 0 6 -1.33301 6 -4v-330c-11.333 12.667 -24.666 22.5 -39.999 29.5s-32.666 10.5 -51.999 10.5
c-29.333 0 -56.666 -6.5 -81.999 -19.5s-47.333 -30 -66 -51s-33.5 -45 -44.5 -72s-16.5 -54.167 -16.5 -81.5c0 -28 5.33301 -55.167 16 -81.5s25.167 -49.666 43.5 -69.999s40 -36.833 65 -49.5s52.167 -19 81.5 -19c28 0 49.833 6.16699 65.5 18.5s25.5 24.833 29.5 37.5
v-44c0 -2 1 -3 3 -3h138zM342.997 74.999c0 -20 -7.83301 -38.165 -23.5 -54.498s-39.5 -24.5 -71.5 -24.5c-13.333 0 -26.5 1.66699 -39.5 5s-24.833 9.33301 -35.5 18c-16.667 14 -29.167 36.667 -37.5 68s-12.5 72.666 -12.5 123.999c0 102 16.667 167 50 195
c10.667 9.33301 23 15.5 37 18.5s27.667 4.5 41 4.5c18 0 35 -3.83301 51 -11.5s29.667 -18.834 41 -33.501v-309z" />
    <glyph glyph-name="e" unicode="e" horiz-adv-x="452" 
d="M418 240c0 18.667 -3.33398 39.333 -10.001 62s-17 43.834 -31 63.501s-32.167 36.167 -54.5 49.5s-49.166 20 -80.499 20c-28.667 0 -55.334 -5.83301 -80.001 -17.5s-46 -27.667 -64 -48s-32 -44 -42 -71s-15 -55.833 -15 -86.5s5 -59.334 15 -86.001s24 -50 42 -70
s39.333 -35.833 64 -47.5s51.334 -17.5 80.001 -17.5c35.333 0 67 8.66699 95 26s51.333 40.333 70 69c0.666992 1.33301 0.333984 2.33301 -0.999023 3s-2.33301 0.666992 -3 0c-17.333 -28 -39.5 -50.5 -66.5 -67.5s-58.5 -25.5 -94.5 -25.5
c-13.333 0 -26.333 1.66699 -39 5s-24.334 9.33301 -35.001 18c-8 7.33301 -14.667 16 -20 26s-9.83301 22.5 -13.5 37.5s-6.16699 33 -7.5 54s-2 46.167 -2 75.5v13c0 4 0.333008 8 1 12h289c2 0 3 1 3 3zM336.999 242.999h-211.002c1.33301 43.333 5 78 11 104
s16.333 45.667 31 59c10.667 9.33301 22.334 15.5 35.001 18.5s25.667 4.5 39 4.5c11.333 0 22 -1.5 32 -4.5s19.333 -9.16699 28 -18.5c12.667 -13.333 21.334 -33 26.001 -59s7.66699 -60.667 9 -104z" />
    <glyph glyph-name="f" unicode="f" horiz-adv-x="291" 
d="M351 668c0 10.667 -2.50391 20.668 -7.50391 30.001s-11.5 17.333 -19.5 24s-17.333 12 -28 16s-21.667 6 -33 6c-24.667 0 -47 -5 -67 -15s-37 -26.5 -51 -49.5s-24.667 -53.333 -32 -91s-11 -83.834 -11 -138.501v-20c0 -2.66699 -2.33301 -4 -7 -4h-68
c-1.33301 0 -2 -1 -2 -3s0.666992 -3 2 -3h68c4.66699 0 7 -1 7 -3v-407c0 -2.66699 -2.33301 -4 -7 -4h-54c-1.33301 0 -2 -1 -2 -3s0.666992 -3 2 -3h202c1.33301 0 2 1 2 3s-0.666992 3 -2 3h-55c-4 0 -6 1.33301 -6 4v407c0 2 2 3 6 3h83c1.33301 0 2 1 2 3
s-0.666992 3 -2 3h-83c-4 0 -6 1.33301 -6 4v188c0 22.667 1.83301 41.667 5.5 57s8.33398 27.5 14.001 36.5s12 15.333 19 19s14.167 5.5 21.5 5.5c10.667 0 19.167 -3.16699 25.5 -9.5s9.5 -14.166 9.5 -23.499c0 -6.66699 -0.666992 -11.834 -2 -15.501
s-2.66602 -6.83398 -3.99902 -9.50098s-2.66602 -5.66699 -3.99902 -9s-2 -7.66602 -2 -12.999c0 -9.33301 3.33301 -17.333 10 -24s17.334 -10 32.001 -10c13.333 0 24 4.66699 32 14s12 20 12 32z" />
    <glyph glyph-name="g" unicode="g" horiz-adv-x="486" 
d="M506 389c0 14.667 -4.82422 26 -14.4912 34s-21.167 12 -34.5 12c-19.333 0 -36 -5.66699 -50 -17s-25.333 -25.666 -34 -42.999c-15.333 18.667 -33.833 33.334 -55.5 44.001s-45.834 16 -72.501 16c-22.667 0 -43.834 -4.16699 -63.501 -12.5s-37 -19.833 -52 -34.5
s-26.833 -31.834 -35.5 -51.501s-13 -40.5 -13 -62.5c0 -18.667 3.16699 -36.5 9.5 -53.5s15.166 -32.167 26.499 -45.5c-23.333 -15.333 -41.333 -32.166 -54 -50.499s-19 -42.5 -19 -72.5c0 -25.333 7.16699 -46 21.5 -62s34.833 -27.667 61.5 -35
c-14.667 -4 -28.167 -10.5 -40.5 -19.5s-23 -19.667 -32 -32s-16.167 -25.5 -21.5 -39.5s-8 -28 -8 -42c0 -18.667 5.5 -36.334 16.5 -53.001s26.333 -31.334 46 -44.001s43.5 -22.667 71.5 -30s59 -11 93 -11c26.667 0 54.167 4 82.5 12s54.166 20 77.499 36
s42.666 35.833 57.999 59.5s23 51.167 23 82.5c0 55.333 -16.833 94.166 -50.5 116.499s-83.5 33.5 -149.5 33.5h-115c-32.667 0 -55.834 6.16699 -69.501 18.5s-20.5 32.833 -20.5 61.5c0 17.333 3.16699 31 9.5 41s14.166 18.333 23.499 25c14 -17.333 32 -31 54 -41
s45.333 -15 70 -15c22.667 0 44 4.16699 64 12.5s37.5 19.833 52.5 34.5s26.833 31.667 35.5 51s13 40 13 62c0 36.667 -10.667 68.667 -32 96c5.33301 11.333 10.5 20.333 15.5 27s10 11.667 15 15s9.66699 5.33301 14 6s8.5 1 12.5 1
c5.33301 0 9.66602 -1.33301 12.999 -4s5 -6.66699 5 -12s-1.33301 -9 -4 -11s-4 -6.66699 -4 -14c0 -5.33301 2.66699 -10.666 8 -15.999s12.666 -8 21.999 -8c8.66699 0 16 3.5 22 10.5s9 15.167 9 24.5zM335.009 275c0 -21.333 -0.666016 -39.5 -1.99902 -54.5
s-3.33301 -27.833 -6 -38.5s-6.16699 -19.5 -10.5 -26.5s-9.5 -13.167 -15.5 -18.5c-7.33301 -6.66699 -15.666 -11.167 -24.999 -13.5s-19.666 -3.5 -30.999 -3.5c-10.667 0 -20.5 1.16699 -29.5 3.5s-17.167 6.83301 -24.5 13.5c-6 5.33301 -11 11.5 -15 18.5
s-7.33301 15.833 -10 26.5s-4.66699 23.5 -6 38.5s-2 33.167 -2 54.5c0 38 2.66699 68 8 90s13.666 38.333 24.999 49c7.33301 6 15.5 10 24.5 12s18.833 3 29.5 3c11.333 0 21.666 -1 30.999 -3s17.666 -6 24.999 -12c12 -10.667 20.667 -27 26 -49s8 -52 8 -90z
M448.01 -169c0 -23.333 -5.66895 -43.832 -17.002 -61.499s-26.166 -32.334 -44.499 -44.001s-39.333 -20.5 -63 -26.5s-47.5 -9 -71.5 -9c-25.333 0 -48.166 2.5 -68.499 7.5s-37.5 13.167 -51.5 24.5s-24.667 26.166 -32 44.499s-11 40.833 -11 67.5
c0 30.667 4.66699 56 14 76s20.666 34.333 33.999 43c4.66699 -1.33301 10 -2.16602 16 -2.49902s11.333 -0.5 16 -0.5h171c19.333 0 35.833 -3.16699 49.5 -9.5s24.834 -14.833 33.501 -25.5s15 -23.167 19 -37.5s6 -29.833 6 -46.5z" />
    <glyph glyph-name="h" unicode="h" horiz-adv-x="511" 
d="M501 0c1.33301 0 1.99512 1 1.99512 3s-0.666992 3 -2 3h-55c-4.66699 0 -7 1.33301 -7 4v258c0 54 -14.5 95.333 -43.5 124s-69.167 43 -120.5 43c-11.333 0 -22.666 -1.33301 -33.999 -4s-22.166 -7.16699 -32.499 -13.5s-19.666 -14.5 -27.999 -24.5
s-14.833 -22 -19.5 -36v375c0 2 -1 3 -3 3h-138c-1.33301 0 -2 -1 -2 -3s0.666992 -3 2 -3h55c4.66699 0 7 -1.33301 7 -4v-715c0 -2.66699 -2.33301 -4 -7 -4h-55c-1.33301 0 -2 -1 -2 -3s0.666992 -3 2 -3h203c1.33301 0 2 1 2 3s-0.666992 3 -2 3h-55
c-4.66699 0 -7 1.33301 -7 4v333c8 24.667 20.833 45.167 38.5 61.5s42.834 24.5 75.501 24.5c8.66699 0 17.834 -2 27.501 -6s18.667 -10.167 27 -18.5s15.333 -18.833 21 -31.5s8.5 -28 8.5 -46v-317c0 -2.66699 -2 -4 -6 -4h-55c-1.33301 0 -2 -1 -2 -3s0.666992 -3 2 -3
h203z" />
    <glyph glyph-name="i" unicode="i" horiz-adv-x="253" 
d="M185 681c0 15.333 -5.16699 28.166 -15.5 38.499s-23.166 15.5 -38.499 15.5c-14.667 0 -27 -5.16699 -37 -15.5s-15 -23.166 -15 -38.499c0 -14.667 5 -27.167 15 -37.5s22.333 -15.5 37 -15.5c15.333 0 28.166 5.16699 38.499 15.5s15.5 22.833 15.5 37.5zM234 0
c1.33301 0 2 1 2 3s-0.666992 3 -2 3h-55c-4.66699 0 -7 1.33301 -7 4v413c0 2 -0.666992 3 -2 3h-139c-1.33301 0 -2 -1 -2 -3s0.666992 -3 2 -3h55c4 0 6 -1.33301 6 -4v-406c0 -2.66699 -2 -4 -6 -4h-55c-1.33301 0 -2 -1 -2 -3s0.666992 -3 2 -3h203z" />
    <glyph glyph-name="j" unicode="j" horiz-adv-x="266" 
d="M185 681c0 15.333 -5.16699 28.166 -15.5 38.499s-23.166 15.5 -38.499 15.5c-14.667 0 -27 -5.16699 -37 -15.5s-15 -23.166 -15 -38.499c0 -14.667 5 -27.167 15 -37.5s22.333 -15.5 37 -15.5c15.333 0 28.166 5.16699 38.499 15.5s15.5 22.833 15.5 37.5zM172 -23
l0.000976562 446.001c0 2 -0.666992 3 -2 3h-139c-1.33301 0 -2 -1 -2 -3s0.666992 -3 2 -3h54c4.66699 0 7 -1 7 -3v-608c0 -46 -4.83301 -77.167 -14.5 -93.5s-21.5 -24.5 -35.5 -24.5c-10.667 0 -19.167 1.83301 -25.5 5.5s-9.5 10.5 -9.5 20.5
c0 6.66699 0.666992 11.667 2 15s2.66602 6.5 3.99902 9.5l4 9c1.33301 3 2 7.5 2 13.5c0 9.33301 -3.5 17.333 -10.5 24s-17.5 10 -31.5 10c-12.667 0 -23.167 -4.5 -31.5 -13.5s-12.5 -20.167 -12.5 -33.5c0 -21.333 8.83301 -38 26.5 -50s38.167 -18 61.5 -18
c24.667 0 46.5 5 65.5 15s34.833 26.5 47.5 49.5s22.167 53.167 28.5 90.5s9.5 83.666 9.5 138.999z" />
    <glyph glyph-name="k" unicode="k" horiz-adv-x="467" 
d="M510 0c1.33301 0 2 1 2 3s-0.666992 3 -2 3h-63c-5.33301 0 -8.33301 1.33301 -9 4l-222 267l111 102c20.667 18.667 34.334 30.167 41.001 34.5s11.667 6.5 15 6.5h54c1.33301 0 2 1 2 3s-0.666992 3 -2 3h-149c-1.33301 0 -2 -1 -2 -3s0.666992 -3 2 -3h69
c1.33301 0 2.16602 -0.333008 2.49902 -1s-0.666992 -2.5 -3 -5.5s-6.33301 -7.16699 -12 -12.5l-24.5 -23l-158 -143v497c0 2 -0.666992 3 -2 3h-139c-1.33301 0 -2 -1 -2 -3s0.666992 -3 2 -3h55c4 0 6 -1.33301 6 -4v-715c0 -2.66699 -2 -4 -6 -4h-55
c-1.33301 0 -2 -1 -2 -3s0.666992 -3 2 -3h203c1.33301 0 2 1 2 3s-0.666992 3 -2 3h-55c-4.66699 0 -7 1.33301 -7 4v219l178 -219c2 -2.66699 1 -4 -3 -4h-54c-1.33301 0 -2 -1 -2 -3s0.666992 -3 2 -3h227z" />
    <glyph glyph-name="l" unicode="l" horiz-adv-x="232" 
d="M223 0c1.33301 0 2 1 2 3s-0.666992 3 -2 3h-55c-4.66699 0 -7 1.33301 -7 4v722c0 2 -0.666992 3 -2 3h-139c-1.33301 0 -2 -1 -2 -3s0.666992 -3 2 -3h55c4.66699 0 7 -1.33301 7 -4v-715c0 -2.66699 -2.33301 -4 -7 -4h-55c-1.33301 0 -2 -1 -2 -3s0.666992 -3 2 -3
h203z" />
    <glyph glyph-name="m" unicode="m" horiz-adv-x="789" 
d="M779 0c1.33301 0 1.99707 1.00195 1.99707 3.00195s-0.666992 3 -2 3h-55c-4 0 -6 1.33301 -6 4v279c0 26.667 -3.83301 49.334 -11.5 68.001s-18.667 33.667 -33 45s-31.666 19.666 -51.999 24.999s-43.166 8 -68.499 8c-11.333 0 -23.166 -1.66699 -35.499 -5
s-24 -8.5 -35 -15.5s-20.667 -15.833 -29 -26.5s-14.166 -23.334 -17.499 -38.001c-9.33301 26.667 -27 47.5 -53 62.5s-62 22.5 -108 22.5c-22.667 0 -44.834 -5.83301 -66.501 -17.5s-37.167 -31.834 -46.5 -60.501v66c0 2 -1 3 -3 3h-138c-1.33301 0 -2 -1 -2 -3
s0.666992 -3 2 -3h54c4.66699 0 7 -1 7 -3v-407c0 -2.66699 -2.33301 -4 -7 -4h-54c-1.33301 0 -2 -1 -2 -3s0.666992 -3 2 -3h202c1.33301 0 2 1 2 3s-0.666992 3 -2 3h-55c-4 0 -6 1.33301 -6 4v333c7.33301 24.667 20 45.167 38 61.5s43 24.5 75 24.5
c8.66699 0 17.834 -2 27.501 -6s18.667 -10.167 27 -18.5s15.333 -18.833 21 -31.5s8.5 -28 8.5 -46v-317c0 -2.66699 -2 -4 -6 -4h-55c-1.33301 0 -2 -1 -2 -3s0.666992 -3 2 -3h203c1.33301 0 2 1 2 3s-0.666992 3 -2 3h-55c-4 0 -6 1.33301 -6 4v324
c0 10 2.5 20.5 7.5 31.5s12.167 21.333 21.5 31s21.166 17.5 35.499 23.5s30.5 9 48.5 9c8.66699 0 18 -2 28 -6s19.167 -10.167 27.5 -18.5s15.333 -18.833 21 -31.5s8.5 -28 8.5 -46v-317c0 -2.66699 -2.33301 -4 -7 -4h-54c-1.33301 0 -2 -1 -2 -3s0.666992 -3 2 -3h202z
" />
    <glyph glyph-name="n" unicode="n" horiz-adv-x="511" 
d="M501 0c1.33301 0 1.99902 1.00098 1.99902 3.00098s-0.666992 3 -2 3h-55c-4 0 -6 1.33301 -6 4v258c0 54 -14.667 95.333 -44 124s-69.666 43 -120.999 43c-22.667 0 -44.834 -5.83301 -66.501 -17.5s-37.167 -31.834 -46.5 -60.501v66c0 2 -1 3 -3 3h-138
c-1.33301 0 -2 -1 -2 -3s0.666992 -3 2 -3h55c4 0 6 -1 6 -3v-407c0 -2.66699 -2 -4 -6 -4h-55c-1.33301 0 -2 -1 -2 -3s0.666992 -3 2 -3h202c1.33301 0 2 1 2 3s-0.666992 3 -2 3h-55c-4 0 -6 1.33301 -6 4v333c7.33301 24.667 20 45.167 38 61.5s43 24.5 75 24.5
c8.66699 0 17.834 -2 27.501 -6s18.667 -10.167 27 -18.5s15.333 -18.833 21 -31.5s8.5 -28 8.5 -46v-317c0 -2.66699 -2 -4 -6 -4h-55c-1.33301 0 -2 -1 -2 -3s0.666992 -3 2 -3h203z" />
    <glyph glyph-name="o" unicode="o" horiz-adv-x="498" 
d="M458 213c0 30.667 -5.5 59.5 -16.5 86.5s-25.833 50.5 -44.5 70.5s-40.834 35.833 -66.501 47.5s-52.834 17.5 -81.501 17.5s-55.667 -5.83301 -81 -17.5s-47.333 -27.5 -66 -47.5s-33.5 -43.5 -44.5 -70.5s-16.5 -55.833 -16.5 -86.5s5.5 -59.5 16.5 -86.5
s25.833 -50.5 44.5 -70.5s40.667 -35.833 66 -47.5s52.333 -17.5 81 -17.5s55.834 5.83301 81.501 17.5s47.834 27.5 66.501 47.5s33.5 43.5 44.5 70.5s16.5 55.833 16.5 86.5zM376 213c0 -30 -1.00195 -55.5 -3.00195 -76.5s-5.16699 -39 -9.5 -54
s-9.66602 -27.5 -15.999 -37.5s-13.5 -18.667 -21.5 -26c-10.667 -8.66699 -22.167 -14.667 -34.5 -18s-26.5 -5 -42.5 -5c-15.333 0 -29.5 1.66699 -42.5 5s-24.5 9.33301 -34.5 18c-8 7.33301 -15.167 16 -21.5 26s-11.666 22.5 -15.999 37.5s-7.5 33 -9.5 54
s-3 46.5 -3 76.5c0 52 4.16699 93.5 12.5 124.5s20.833 53.833 37.5 68.5c10 9.33301 21.5 15.5 34.5 18.5s27.167 4.5 42.5 4.5c16 0 30.167 -1.5 42.5 -4.5s23.833 -9.16699 34.5 -18.5c16.667 -14.667 29.167 -37.5 37.5 -68.5s12.5 -72.5 12.5 -124.5z" />
    <glyph glyph-name="p" unicode="p" horiz-adv-x="503" 
d="M463 210c0 28 -5.49902 55.333 -16.499 82s-25.833 50.667 -44.5 72s-40.834 38.5 -66.501 51.5s-52.834 19.5 -81.501 19.5c-19.333 0 -36.833 -3.66699 -52.5 -11s-29.167 -17.333 -40.5 -30v29c0 2 -0.666992 3 -2 3h-139c-1.33301 0 -2 -1 -2 -3s0.666992 -3 2 -3h55
c4.66699 0 7 -1.33301 7 -4v-716c0 -2 -2.33301 -3 -7 -3h-55c-1.33301 0 -2 -1 -2 -3s0.666992 -3 2 -3h203c1.33301 0 2 1 2 3s-0.666992 3 -2 3h-55c-4.66699 0 -7 1 -7 3v332c12 -12.667 25.833 -22.667 41.5 -30s33.5 -11 53.5 -11c28.667 0 55.667 6.16699 81 18.5
s47.333 28.833 66 49.5s33.334 44 44.001 70s16 53 16 81zM381.001 210c0 -50.667 -4.00195 -91.4971 -12.002 -122.497s-20.667 -53.833 -38 -68.5c-10 -8.66699 -21.667 -14.5 -35 -17.5s-26.666 -4.5 -39.999 -4.5c-19.333 0 -38.166 4.66699 -56.499 14
s-31.166 23.666 -38.499 42.999v330c11.333 15.333 25.166 26.666 41.499 33.999s33.5 11 51.5 11c13.333 0 27 -1.5 41 -4.5s26 -8.83301 36 -17.5c33.333 -28.667 50 -94.334 50 -197.001z" />
    <glyph glyph-name="q" unicode="q" horiz-adv-x="492" 
d="M483 -309c1.33301 0 2 1 2 3s-0.666992 3 -2 3h-55c-4 0 -6 1 -6 3v716c0 2.66699 2 4 6 4h55c1.33301 0 2 1 2 3s-0.666992 3 -2 3h-139c-1.33301 0 -2 -1 -2 -3v-29c-11.333 12.667 -24.833 22.667 -40.5 30s-33.167 11 -52.5 11c-28.667 0 -55.667 -6.5 -81 -19.5
s-47.333 -30.167 -66 -51.5s-33.5 -45.333 -44.5 -72s-16.5 -54 -16.5 -82s5.33301 -55 16 -81s25.167 -49.333 43.5 -70s40 -37.167 65 -49.5s52.167 -18.5 81.5 -18.5c28 0 49.5 5.83301 64.5 17.5s25.167 24.167 30.5 37.5v-346c0 -2 -2.33301 -3 -7 -3h-55
c-1.33301 0 -2 -1 -2 -3s0.666992 -3 2 -3h203zM342 74c0 -20 -8 -37.834 -24 -53.501s-39 -23.5 -69 -23.5c-13.333 0 -27 1.5 -41 4.5s-26 8.83301 -36 17.5c-16.667 14.667 -29.167 37.5 -37.5 68.5s-12.5 71.833 -12.5 122.5c0 102 16.667 167.667 50 197
c10 8.66699 22 14.5 36 17.5s27.667 4.5 41 4.5c18.667 0 36 -3.66699 52 -11s29.667 -18.666 41 -33.999v-310z" />
    <glyph glyph-name="r" unicode="r" horiz-adv-x="349" 
d="M326 373c0 19.333 -5.83105 34.501 -17.498 45.501s-29.167 16.5 -52.5 16.5c-22 0 -40.833 -5.83301 -56.5 -17.5s-28.167 -31.834 -37.5 -60.501v66c0 2 -1 3 -3 3h-139c-1.33301 0 -2 -1 -2 -3s0.666992 -3 2 -3h55c4.66699 0 7 -1.33301 7 -4v-407
c0 -2 -2.33301 -3 -7 -3h-55c-1.33301 0 -2 -1 -2 -3s0.666992 -3 2 -3h204c1.33301 0 2 1 2 3s-0.666992 3 -2 3h-56c-4 0 -6 1 -6 3v332c5.33301 17.333 10.833 31.166 16.5 41.499s11.5 18.333 17.5 24s11.667 9.33398 17 11.001s10.333 2.5 15 2.5
c16.667 0 25 -7.33301 25 -22c0 -7.33301 -1.83301 -12.833 -5.5 -16.5s-5.5 -10.5 -5.5 -20.5c0 -8.66699 3.66699 -16.167 11 -22.5s17.666 -9.5 30.999 -9.5c11.333 0 21.166 4.16699 29.499 12.5s12.5 18.833 12.5 31.5z" />
    <glyph glyph-name="s" unicode="s" horiz-adv-x="371" 
d="M339 132c0 32.667 -11.4971 59.334 -34.4971 80.001s-53.5 36.667 -91.5 48c-37.333 11.333 -65.333 24.333 -84 39s-28 35 -28 61c0 22 6.83301 39 20.5 51s32.834 18 57.501 18c12 0 24.167 -2.33301 36.5 -7s23.5 -11.334 33.5 -20.001s18.167 -19.667 24.5 -33
s9.5 -28.333 9.5 -45c0 -1.33301 0.666992 -2 2 -2c2 0 3 0.666992 3 2v114c0 1.33301 -1 2 -3 2c-1.33301 0 -2 -0.666992 -2 -2c-0.666992 -3.33301 -2.66699 -6.5 -6 -9.5s-8.66602 -4.5 -15.999 -4.5c-10.667 0 -19.167 0.5 -25.5 1.5s-12.333 2.33301 -18 4
s-11.334 3 -17.001 4s-12.834 1.5 -21.501 1.5c-15.333 0 -30 -3 -44 -9s-26.333 -14.5 -37 -25.5s-19.167 -24.5 -25.5 -40.5s-9.5 -34 -9.5 -54c0 -16.667 2.83301 -31.167 8.5 -43.5s13.667 -23.166 24 -32.499s22.5 -17.333 36.5 -24s29.667 -13 47 -19
c36 -12 64 -25 84 -39s30 -35 30 -63c0 -30 -8.83301 -52.167 -26.5 -66.5s-40.5 -21.5 -68.5 -21.5c-20.667 0 -39.834 4 -57.501 12s-33 18.833 -46 32.5s-23 29.167 -30 46.5s-10.167 35 -9.5 53c0 1.33301 -1 2 -3 2s-3 -0.666992 -3 -2l-5 -142
c0 -1.33301 0.666992 -2 2 -2c2 0 3.33301 0.666992 4 2c1.33301 3.33301 5.16602 7.33301 11.499 12s14.166 7 23.499 7s17.833 -1.33301 25.5 -4s15.667 -5.83398 24 -9.50098s17.5 -6.83398 27.5 -9.50098s22 -4 36 -4c48 0 83.5 13.333 106.5 40
s34.5 60.334 34.5 101.001z" />
    <glyph glyph-name="t" unicode="t" horiz-adv-x="287" 
d="M270 79c0 1.33301 -0.669922 2.33301 -2.00293 3s-2.33301 0.666992 -3 0c-5.33301 -24 -14.166 -42.333 -26.499 -55s-25.166 -19 -38.499 -19c-19.333 0 -29 9.66699 -29 29v379c0 2.66699 2.33301 4 7 4h82c1.33301 0 2 1 2 3s-0.666992 3 -2 3h-82
c-4.66699 0 -7 1 -7 3v163c0 1.33301 -1 2 -3 2c-1.33301 0 -2 -0.666992 -2 -2c-9.33301 -26.667 -34.333 -43 -75 -49v-114c0 -2 -2 -3 -6 -3h-69c-1.33301 0 -2 -1 -2 -3s0.666992 -3 2 -3h69c4 0 6 -1.33301 6 -4v-327c0 -65.333 27.667 -98 83 -98
c28 0 49.333 8.33301 64 25s25.334 37.667 32.001 63z" />
    <glyph glyph-name="u" unicode="u" horiz-adv-x="501" 
d="M491 0c1.33301 0 2.00293 0.999023 2.00293 2.99902s-0.666992 3 -2 3h-55c-4.66699 0 -7 1 -7 3v414c0 2 -0.666992 3 -2 3h-139c-1.33301 0 -2 -1 -2 -3s0.666992 -3 2 -3h55c4 0 6 -1.33301 6 -4v-333c-7.33301 -25.333 -20 -46 -38 -62s-43 -24 -75 -24
c-8.66699 0 -17.834 2 -27.501 6s-18.667 10.167 -27 18.5s-15.333 18.833 -21 31.5s-8.5 28 -8.5 46v324c0 2 -1 3 -3 3h-138c-1.33301 0 -2 -1 -2 -3s0.666992 -3 2 -3h55c4 0 6 -1.33301 6 -4v-265c0 -54 14.667 -94.167 44 -120.5s69.333 -39.5 120 -39.5
c23.333 0 45.666 5.83301 66.999 17.5s36.666 31.834 45.999 60.501v-66c0 -2 1 -3 3 -3h139z" />
    <glyph glyph-name="v" unicode="v" horiz-adv-x="420" 
d="M448 420c1.33301 0 1.99805 0.998047 1.99805 2.99805s-0.666992 3 -2 3h-131c-1.33301 0 -2 -1 -2 -3s0.666992 -3 2 -3h54c3.33301 0 4.83301 -2.16699 4.5 -6.5s-4.16602 -16.166 -11.499 -35.499l-108 -294l-145 332c-0.666992 2.66699 1 4 5 4h53c1.33301 0 2 1 2 3
s-0.666992 3 -2 3h-198c-1.33301 0 -2 -1 -2 -3s0.666992 -3 2 -3h47c4.66699 0 7.33398 -1.33301 8.00098 -4l195 -424c0.666992 -1.33301 1.66699 -2 3 -2c2 0 3.33301 0.666992 4 2l142 386c6.66699 18.667 11.5 30.334 14.5 35.001s6.16699 7 9.5 7h54z" />
    <glyph glyph-name="w" unicode="w" horiz-adv-x="673" 
d="M704 420c1.33301 0 1.99902 0.999023 1.99902 2.99902s-0.666992 3 -2 3h-131c-1.33301 0 -2 -1 -2 -3s0.666992 -3 2 -3h54c3.33301 0 5 -2.33301 5 -7c0 -4 -3.66699 -15.667 -11 -35l-100 -282l-143 320c-0.666992 2.66699 1 4 5 4h55c1.33301 0 2 1 2 3
s-0.666992 3 -2 3h-190c-1.33301 0 -2 -1 -2 -3s0.666992 -3 2 -3h41c4.66699 0 7.33398 -1.33301 8.00098 -4l38 -83l-85 -238l-143 321c-0.666992 2.66699 1 4 5 4h50c1.33301 0 2 1 2 3s-0.666992 3 -2 3h-192c-1.33301 0 -2 -1 -2 -3s0.666992 -3 2 -3h49
c3.33301 0 6 -1.33301 8 -4l186 -424c0.666992 -1.33301 2 -2 4 -2s3.33301 0.666992 4 2l117 333l146 -333c0.666992 -1.33301 2 -2 4 -2s3.33301 0.666992 4 2l135 386c6.66699 18.667 11.5 30.334 14.5 35.001s6.16699 7 9.5 7h53z" />
    <glyph glyph-name="x" unicode="x" horiz-adv-x="455" 
d="M474 0c1.33301 0 2.00293 1 2.00293 3s-0.666992 3 -2 3h-50c-4.66699 0 -7.33398 1 -8.00098 3l-160 243l93 126c13.333 18.667 22.333 30.334 27 35.001s8.66699 7 12 7h55c1.33301 0 2 1 2 3s-0.666992 3 -2 3h-149c-1.33301 0 -2 -1 -2 -3s0.666992 -3 2 -3h69
c1.33301 0 2.33301 -0.333008 3 -1s0.5 -2.5 -0.5 -5.5s-3.33301 -7.16699 -7 -12.5l-16.5 -23l-90 -121l-105 159c-0.666992 2.66699 0.666016 4 3.99902 4h54c1.33301 0 2 1 2 3s-0.666992 3 -2 3h-207c-1.33301 0 -2 -1 -2 -3s0.666992 -3 2 -3h50c4 0 7 -1.33301 9 -4
l148 -225l-106 -144l-17.5 -22.5c-4.33301 -5.66699 -8 -9.83398 -11 -12.501s-5.33301 -4.33398 -7 -5.00098s-3.5 -1 -5.5 -1h-53c-1.33301 0 -2 -1 -2 -3s0.666992 -3 2 -3h148c1.33301 0 2 1 2 3s-0.666992 3 -2 3h-69c-1.33301 0 -2.33301 0.333008 -3 1
s-0.333984 2.33398 0.999023 5.00098s3.83301 6.66699 7.5 12l16.5 23l103 139l116 -177c2 -2 0.666992 -3 -4 -3h-53c-1.33301 0 -2 -1 -2 -3s0.666992 -3 2 -3h206z" />
    <glyph glyph-name="y" unicode="y" horiz-adv-x="418" 
d="M447 420c1.33301 0 1.99805 0.995117 1.99805 2.99512s-0.666992 3 -2 3h-131c-1.33301 0 -2 -1 -2 -3s0.666992 -3 2 -3h54c3.33301 0 4.83301 -2.16699 4.5 -6.5s-4.16602 -16.166 -11.499 -35.499l-109 -293l-144 331c-0.666992 2.66699 1 4 5 4h53c1.33301 0 2 1 2 3
s-0.666992 3 -2 3h-198c-1.33301 0 -2 -1 -2 -3s0.666992 -3 2 -3h47c4.66699 0 7.33398 -1.33301 8.00098 -4l196 -427l-85 -228c-9.33301 -26 -18.5 -43.167 -27.5 -51.5s-16.833 -12.5 -23.5 -12.5c-8 0 -14.833 0.833008 -20.5 2.5s-8.5 5.16699 -8.5 10.5
c0 4.66699 1 8.83398 3 12.501s4.16699 7.33398 6.5 11.001s4.5 7.33398 6.5 11.001s3 8.5 3 14.5c0 9.33301 -3.33301 17.5 -10 24.5s-16.667 10.5 -30 10.5c-12.667 0 -23.5 -5.16699 -32.5 -15.5s-13.5 -23.5 -13.5 -39.5c0 -18 6.83301 -32 20.5 -42s30.5 -15 50.5 -15
s36 6 48 18s23.667 33 35 63l226 615c6.66699 18.667 11.5 30.334 14.5 35.001s6.16699 7 9.5 7h54z" />
    <glyph glyph-name="z" unicode="z" horiz-adv-x="422" 
d="M381 3l0.00195312 135.001c0 1.33301 -1 2 -3 2s-3 -0.666992 -3 -2c0 -40.667 -11 -72.834 -33 -96.501s-59 -35.5 -111 -35.5h-115c-4.66699 0 -6.33398 1 -5.00098 3l262 409c3.33301 5.33301 3 8 -1 8h-313c-2 0 -3 -1 -3 -3v-122c0 -1.33301 0.666992 -2 2 -2
c2 0 3 0.666992 3 2c0 38.667 10 68.167 30 88.5s54 30.5 102 30.5h90c4.66699 0 6 -1.33301 4 -4l-260 -409c-2.66699 -4.66699 -2.33398 -7 0.999023 -7h350c2 0 3 1 3 3z" />
    <glyph glyph-name="braceleft" unicode="{" horiz-adv-x="265" 
d="M266 -244c0.666992 0 1 1.00098 1 3.00098s-0.333008 3 -1 3h-8c-34.667 0 -61.834 12.167 -81.501 36.5s-29.5 65.833 -29.5 124.5c0 18 2.16699 37.5 6.5 58.5s9.33301 42.167 15 63.5s10.667 42.666 15 63.999s6.5 41.333 6.5 60c0 15.333 -4.66699 30.833 -14 46.5
s-23.666 26.167 -42.999 31.5c19.333 5.33301 33.666 15.666 42.999 30.999s14 30.666 14 45.999c0 18.667 -2.16699 38.667 -6.5 60s-9.33301 42.833 -15 64.5s-10.667 42.834 -15 63.501s-6.5 40 -6.5 58c0 58.667 9.83301 100.334 29.5 125.001s46.834 37 81.501 37h8
c0.666992 0 1 0.666992 1 2c0 2 -0.333008 3 -1 3h-8c-30 0 -55.833 -5.16699 -77.5 -15.5s-39.834 -24.833 -54.501 -43.5s-25.5 -40.667 -32.5 -66s-10.5 -53.333 -10.5 -84c0 -26 3.33301 -50.833 10 -74.5s14 -46 22 -67l22 -59c6.66699 -18.333 10 -34.5 10 -48.5
c0 -14.667 -5.33301 -24 -16 -28c-2.66699 -0.666992 -6 -1 -10 -1c-5.33301 0 -9.83301 0.333008 -13.5 1s-7.5 1 -11.5 1c-4.66699 0 -7 -1.66699 -7 -5c0 -4 2.33301 -6 7 -6c4 0 7.83301 0.333008 11.5 1s8.16699 1 13.5 1c4 0 7.33301 -0.333008 10 -1
c10.667 -2.66699 16 -12 16 -28c0 -14 -3.33301 -30 -10 -48l-22 -59c-8 -21.333 -15.333 -43.833 -22 -67.5s-10 -48.5 -10 -74.5c0 -30.667 3.5 -58.834 10.5 -84.501s17.833 -47.667 32.5 -66s32.834 -32.666 54.501 -42.999s47.5 -15.5 77.5 -15.5h8z" />
    <glyph glyph-name="bar" unicode="|" horiz-adv-x="155" 
d="M81 -23v779c0 1.33301 -1.33301 2 -4 2c-2 0 -3 -0.666992 -3 -2v-779c0 -1.33301 1 -2 3 -2c2.66699 0 4 0.666992 4 2z" />
    <glyph glyph-name="braceright" unicode="}" horiz-adv-x="265" 
d="M182 -35c0 26 -3.33301 50.832 -10 74.499s-14 46.167 -22 67.5l-22 59c-6.66699 18 -10 34 -10 48c0 16 5.66699 25.333 17 28c2.66699 0.666992 6 1 10 1c5.33301 0 9.66602 -0.333008 12.999 -1s7 -1 11 -1c5.33301 0 8 2 8 6c0 3.33301 -2.66699 5 -8 5
c-4 0 -7.66699 -0.333008 -11 -1s-7.66602 -1 -12.999 -1c-4 0 -7.33301 0.333008 -10 1c-11.333 4 -17 13.333 -17 28c0 14 3.33301 30.167 10 48.5l22 59c8 21 15.333 43.333 22 67s10 48.5 10 74.5c0 30.667 -3.5 58.667 -10.5 84s-17.833 47.333 -32.5 66
s-32.834 33.167 -54.501 43.5s-47.5 15.5 -77.5 15.5h-7c-1.33301 0 -2 -1 -2 -3c0 -1.33301 0.666992 -2 2 -2h7c34.667 0 61.834 -12.333 81.501 -37s29.5 -66.334 29.5 -125.001c0 -18 -2.16699 -37.333 -6.5 -58s-9.33301 -41.834 -15 -63.501
s-10.667 -43.167 -15 -64.5s-6.5 -41.333 -6.5 -60c0 -15.333 4.66699 -30.666 14 -45.999s23.666 -25.666 42.999 -30.999c-19.333 -5.33301 -33.666 -15.833 -42.999 -31.5s-14 -31.167 -14 -46.5c0 -18.667 2.16699 -38.667 6.5 -60s9.33301 -42.666 15 -63.999
s10.667 -42.5 15 -63.5s6.5 -40.5 6.5 -58.5c0 -58.667 -9.83301 -100.167 -29.5 -124.5s-46.834 -36.5 -81.501 -36.5h-7c-1.33301 0 -2 -1 -2 -3s0.666992 -3 2 -3h7c30 0 55.833 5.16699 77.5 15.5s39.834 24.666 54.501 42.999s25.5 40.333 32.5 66
s10.5 53.834 10.5 84.501z" />
    <glyph glyph-name="asciitilde" unicode="~" horiz-adv-x="404" 
d="M369 414c0 1.33301 -1 2 -3 2s-3 -0.666992 -3 -2c0 -20.667 -5 -37.834 -15 -51.501s-25 -20.5 -45 -20.5c-11.333 0 -23 3.16699 -35 9.5l-37.5 20.5c-13 7.33301 -27 14.166 -42 20.499s-30.833 9.5 -47.5 9.5c-30.667 0 -56.167 -10 -76.5 -30s-30.5 -46 -30.5 -78
c0 -1.33301 1 -2 3 -2c2.66699 0 4 0.666992 4 2c0 20.667 5 37.834 15 51.501s24.667 20.5 44 20.5c10.667 0 22 -3.16699 34 -9.5l38 -20.5c13.333 -7.33301 27.333 -14.166 42 -20.499s30.667 -9.5 48 -9.5c30.667 0 56.167 10 76.5 30s30.5 46 30.5 78z" />
    <glyph glyph-name="exclamdown" unicode="&#xa1;" horiz-adv-x="203" 
d="M146 328c0 13.333 -4.33301 24.666 -13 33.999s-19.667 14 -33 14c-12 0 -22.333 -4.66699 -31 -14s-13 -20.666 -13 -33.999s4.33301 -24.666 13 -33.999s19 -14 31 -14c13.333 0 24.333 4.66699 33 14s13 20.666 13 33.999zM154 -288c0 22 -2.66895 51.333 -8.00195 88
l-17.5 121c-6.33301 44 -12.166 89.833 -17.499 137.5s-8 93.5 -8 137.5c0 1.33301 -1 2 -3 2c-1.33301 0 -2 -0.666992 -2 -2c0 -44 -2.66699 -89.833 -8 -137.5s-11 -93.5 -17 -137.5l-17 -121c-5.33301 -36.667 -8 -66 -8 -88c0 -27.333 4.66699 -46.666 14 -57.999
s22 -17 38 -17c16.667 0 29.834 5.66699 39.501 17s14.5 30.666 14.5 57.999z" />
    <glyph glyph-name="cent" unicode="&#xa2;" horiz-adv-x="434" 
d="M414 85c0.666992 1.33301 0.49707 2.5 -0.50293 3.5s-1.83301 1.16699 -2.5 0.5c-18 -28 -40.333 -50.5 -67 -67.5s-60 -25.5 -100 -25.5v432c26.667 0.666992 44.834 -2.5 54.501 -9.5s14.5 -19.167 14.5 -36.5c0 -7.33301 -0.5 -12.833 -1.5 -16.5s-2.33301 -7 -4 -10
s-3 -6.16699 -4 -9.5s-1.5 -8 -1.5 -14c0 -9.33301 3.5 -17.333 10.5 -24s16.5 -10 28.5 -10s21.833 3.33301 29.5 10s11.5 17.334 11.5 32.001c0 11.333 -2.83301 22.833 -8.5 34.5s-14.167 22 -25.5 31s-25.666 16.167 -42.999 21.5s-37.666 7.66602 -60.999 6.99902v69
c0 1.33301 -1.33301 2 -4 2c-2 0 -3 -0.666992 -3 -2v-70c-27.333 -2 -52.833 -9 -76.5 -21s-44.334 -28 -62.001 -48s-31.5 -43 -41.5 -69s-15 -53.667 -15 -83s5 -57 15 -83s23.833 -49 41.5 -69s38.334 -36 62.001 -48s49.167 -19 76.5 -21v-70c0 -1.33301 1 -2 3 -2
c2.66699 0 4 0.666992 4 2v69c40 0.666992 73.5 9.5 100.5 26.5s50.167 39.833 69.5 68.5zM236.997 -4c-11.333 1.33301 -22.666 3.66895 -33.999 7.00195s-21.333 8.66602 -30 15.999c-8 7.33301 -15.167 16 -21.5 26s-11.666 22.5 -15.999 37.5s-7.5 33 -9.5 54
s-3 46.167 -3 75.5c0 30 1 55.5 3 76.5s5.16699 39 9.5 54s9.66602 27.333 15.999 37s13.5 18.167 21.5 25.5c8.66699 7.33301 18.667 12.666 30 15.999s22.666 5.33301 33.999 6v-431z" />
    <glyph glyph-name="sterling" unicode="&#xa3;" horiz-adv-x="576" 
d="M558 126c0 1.33301 -0.834961 2.32617 -2.50195 2.99316s-2.83398 0.333984 -3.50098 -0.999023c-1.33301 -10 -3.66602 -19.667 -6.99902 -29s-7.83301 -17.666 -13.5 -24.999s-12.667 -13.333 -21 -18s-18.166 -7 -29.499 -7c-27.333 0 -51.5 1.83301 -72.5 5.5
s-40.333 8.33398 -58 14.001s-34.167 11.334 -49.5 17.001s-30.666 10.5 -45.999 14.5c15.333 21.333 26.166 44.833 32.499 70.5s9.5 49.834 9.5 72.501c0 20.667 -0.666992 39.667 -2 57s-3.33301 34 -6 50h103c1.33301 0 2 0.666992 2 2c0 2 -0.666992 3 -2 3h-103
c-5.33301 37.333 -11.166 69.666 -17.499 96.999s-9.5 55 -9.5 83c0 62.667 9 108.834 27 138.501s42.667 44.5 74 44.5c22 0 37.667 -3.66699 47 -11s14 -18.666 14 -33.999c0 -6 -1 -11.167 -3 -15.5s-4.16699 -8.5 -6.5 -12.5s-4.5 -8.16699 -6.5 -12.5s-3 -9.5 -3 -15.5
c0 -10.667 3.16699 -19.5 9.5 -26.5s17.166 -10.5 32.499 -10.5c14.667 0 26.834 5.16699 36.501 15.5s14.5 22.166 14.5 35.499c0 10 -3.33301 20.5 -10 31.5s-15.834 21.333 -27.501 31s-25.167 17.5 -40.5 23.5s-31.333 9 -48 9c-30.667 0 -58.167 -7 -82.5 -21
s-44.833 -32.5 -61.5 -55.5s-29.5 -49 -38.5 -78s-13.5 -58.833 -13.5 -89.5c0 -20.667 2.83301 -41.667 8.5 -63s12.5 -42.666 20.5 -63.999h-98c-1.33301 0 -2 -1 -2 -3c0 -1.33301 0.666992 -2 2 -2h99l39.5 -99.5c13 -31.667 19.5 -60.167 19.5 -85.5
c0 -9.33301 -1.5 -20.333 -4.5 -33s-7.5 -22.667 -13.5 -30c-14.667 4.66699 -30.667 8.33398 -48 11.001s-35.666 4 -54.999 4c-20.667 0 -38.5 -2.66699 -53.5 -8s-27.5 -12 -37.5 -20s-17.333 -16.833 -22 -26.5s-7 -19.167 -7 -28.5c0 -10 2 -18.333 6 -25
s9 -11.834 15 -15.501s12.333 -6.33398 19 -8.00098s12.667 -2.5 18 -2.5c18.667 0 39.834 5.83301 63.501 17.5s44.834 25.834 63.501 42.501l38.5 -19.5c14.333 -7 29.666 -13.5 45.999 -19.5s33 -11 50 -15s34.167 -6 51.5 -6c20.667 0 40.667 4.33301 60 13
s36.333 19.834 51 33.501s26.667 29 36 46s14.666 33.833 15.999 50.5zM200.998 47.9932c-8.66699 -8 -18.167 -15.668 -28.5 -23.001s-20.833 -13.833 -31.5 -19.5s-20.834 -10 -30.501 -13s-18.167 -4.5 -25.5 -4.5c-5.33301 0 -11.166 0.833008 -17.499 2.5
s-12.333 4.33398 -18 8.00098s-10.5 8.16699 -14.5 13.5s-6 12 -6 20c0 15.333 5.66699 28 17 38s27 15 47 15c16.667 0 34 -3.83301 52 -11.5s36.667 -16.167 56 -25.5z" />
    <glyph glyph-name="yen" unicode="&#xa5;" horiz-adv-x="605" 
d="M627 703c1.33301 0 2 0.998047 2 2.99805s-0.666992 3 -2 3h-202c-1.33301 0 -2 -1 -2 -3s0.666992 -3 2 -3h99c3.33301 0 4.5 -2.16699 3.5 -6.5s-6.16699 -16.166 -15.5 -35.499l-151 -318l-187 356c-1.33301 2.66699 0 4 4 4h107c1.33301 0 2 1 2 3s-0.666992 3 -2 3
h-305c-1.33301 0 -2 -1 -2 -3s0.666992 -3 2 -3h93c4.66699 0 7.66699 -1.33301 9 -4l166 -317h-163c-1.33301 0 -2 -1 -2 -3s0.666992 -3 2 -3h166l28 -54v-72h-194c-1.33301 0 -2 -1 -2 -3s0.666992 -3 2 -3h194v-234c0 -2.66699 -2.33301 -4 -7 -4h-89
c-1.33301 0 -2 -1 -2 -3s0.666992 -3 2 -3h273c1.33301 0 2 1 2 3s-0.666992 3 -2 3h-90c-4 0 -6 1.33301 -6 4v234h194c1.33301 0 2 1 2 3s-0.666992 3 -2 3h-194v76l23 50h171c1.33301 0 2 1 2 3s-0.666992 3 -2 3h-168l133 279c8.66699 18.667 15 30.334 19 35.001
s7.33301 7 10 7h79z" />
    <glyph glyph-name="section" unicode="&#xa7;" horiz-adv-x="514" 
d="M463 200c0 36.667 -8.33691 67.1689 -25.0039 91.502s-37.5 45.5 -62.5 63.5s-52 34 -81 48s-56 28.833 -81 44.5s-45.833 33.667 -62.5 54s-25 45.5 -25 75.5c0 48.667 13.833 87.667 41.5 117s66.5 44 116.5 44c28.667 0 50.667 -5.66699 66 -17s23 -27.666 23 -48.999
c0 -11.333 -1.83301 -19.666 -5.5 -24.999s-5.5 -11.666 -5.5 -18.999c0 -11.333 4 -20.333 12 -27s18.333 -10 31 -10c11.333 0 20.833 3.5 28.5 10.5s11.5 17.833 11.5 32.5c0 13.333 -4.33301 26.5 -13 39.5s-20.334 24.833 -35.001 35.5s-31.667 19.167 -51 25.5
s-40 9.5 -62 9.5c-32 0 -60.833 -5.83301 -86.5 -17.5s-47.5 -27.667 -65.5 -48s-31.833 -44 -41.5 -71s-14.5 -55.833 -14.5 -86.5c0 -28 5.66699 -52.5 17 -73.5s26.333 -40.167 45 -57.5c-27.333 -26.667 -48.666 -52.167 -63.999 -76.5s-23 -53.166 -23 -86.499
c0 -36.667 8.33301 -67.334 25 -92.001s37.334 -46 62.001 -64s51.667 -33.833 81 -47.5s56.333 -28.334 81 -44.001s45.334 -33.667 62.001 -54s25 -45.5 25 -75.5c0 -50 -14.167 -89.333 -42.5 -118s-66.5 -43 -114.5 -43c-14 0 -27.667 2.16699 -41 6.5
s-25.166 10.166 -35.499 17.499s-18.666 15.833 -24.999 25.5s-9.5 19.834 -9.5 30.501c0 11.333 1.83301 19.666 5.5 24.999s5.5 11.666 5.5 18.999c0 11.333 -4 20.166 -12 26.499s-18 9.5 -30 9.5c-11.333 0 -20.833 -3.33301 -28.5 -10s-11.5 -17.334 -11.5 -32.001
c0 -13.333 5.33301 -27.333 16 -42s24.5 -28 41.5 -40s36.5 -22 58.5 -30s44 -12 66 -12c32 0 60.833 5.83301 86.5 17.5s47.5 27.667 65.5 48s31.833 44 41.5 71s14.5 55.833 14.5 86.5c0 28 -5.66699 52.5 -17 73.5s-26.333 40.167 -45 57.5c28 27.333 49.5 53 64.5 77
s22.5 52.667 22.5 86zM431.996 146.002c0 -17.333 -6.50098 -35.499 -19.501 -54.499s-26.833 -35.833 -41.5 -50.5c-17.333 15.333 -36.333 29.166 -57 41.499s-41.667 24.166 -63 35.499l-62.5 33.5c-20.333 11 -38.333 22.833 -54 35.5s-28.334 26.5 -38.001 41.5
s-14.5 32.167 -14.5 51.5c0 8.66699 1.83301 17.667 5.5 27s8.33398 18.666 14.001 27.999s12 18.333 19 27s14.167 16.667 21.5 24c16.667 -15.333 35.5 -29.166 56.5 -41.499s42.333 -24.166 64 -35.499l63 -33.5c20.333 -11 38.333 -23 54 -36s28.334 -27 38.001 -42
s14.5 -32.167 14.5 -51.5z" />
    <glyph glyph-name="dieresis" unicode="&#xa8;" horiz-adv-x="440" 
d="M349 590c0 12 -4 22.167 -12 30.5s-17.667 12.5 -29 12.5s-21 -4.16699 -29 -12.5s-12 -18.5 -12 -30.5c0 -11.333 4 -21.166 12 -29.499s17.667 -12.5 29 -12.5s21 4.16699 29 12.5s12 18.166 12 29.499zM175 590c0 12 -4 22.167 -12 30.5s-17.667 12.5 -29 12.5
s-21 -4.16699 -29 -12.5s-12 -18.5 -12 -30.5c0 -11.333 4 -21.166 12 -29.499s17.667 -12.5 29 -12.5s21 4.16699 29 12.5s12 18.166 12 29.499z" />
    <glyph glyph-name="copyright" unicode="&#xa9;" horiz-adv-x="842" 
d="M791 355c0 51.333 -9.66699 99.5 -29 144.5s-45.833 84.333 -79.5 118s-73 60.167 -118 79.5s-92.833 29 -143.5 29c-51.333 0 -99.333 -9.66699 -144 -29s-83.834 -45.833 -117.501 -79.5s-60.167 -73 -79.5 -118s-29 -93.167 -29 -144.5s9.66699 -99.666 29 -144.999
s45.833 -84.833 79.5 -118.5s72.834 -60.167 117.501 -79.5s92.667 -29 144 -29c50.667 0 98.5 9.66699 143.5 29s84.333 45.833 118 79.5s60.167 73.167 79.5 118.5s29 93.666 29 144.999zM785 355c0 -50.667 -9.66699 -98.334 -29 -143.001s-45.5 -83.5 -78.5 -116.5
s-71.5 -59 -115.5 -78s-91 -28.5 -141 -28.5s-97.167 9.5 -141.5 28.5s-83 45 -116 78s-59 71.833 -78 116.5s-28.5 92.334 -28.5 143.001s9.5 98.167 28.5 142.5s45 83 78 116s71.667 59 116 78s91.5 28.5 141.5 28.5s97 -9.5 141 -28.5s82.5 -45 115.5 -78
s59.167 -71.667 78.5 -116s29 -91.833 29 -142.5zM567 139l-0.00292969 137.003c0 1.33301 -1 2 -3 2s-3 -0.666992 -3 -2c0 -19.333 -3.33301 -37.166 -10 -53.499s-15.667 -30.333 -27 -42s-25 -20.834 -41 -27.501s-33.333 -10 -52 -10c-14 0 -28.333 1.66699 -43 5
s-27.334 9 -38.001 17c-17.333 15.333 -30.333 38.666 -39 69.999s-13 73 -13 125s4.33301 93.833 13 125.5s21.667 54.5 39 68.5c10.667 9.33301 22.834 15.5 36.501 18.5s27.5 4.5 41.5 4.5c14.667 0 29.334 -3.16699 44.001 -9.5s27.834 -15 39.501 -26
s21 -23.5 28 -37.5s10.5 -28.333 10.5 -43c0 -0.666992 0.666992 -1 2 -1c2 0 3 0.333008 3 1v120c0 0.666992 -0.833008 1.16699 -2.5 1.5s-2.5 -0.166992 -2.5 -1.5c-1.33301 -3.33301 -4.66602 -6.5 -9.99902 -9.5s-12 -4.5 -20 -4.5c-14 0 -29 2.66699 -45 8
s-31.667 8 -47 8c-28.667 0 -55.167 -6 -79.5 -18s-45.333 -28.333 -63 -49s-31.5 -44.334 -41.5 -71.001s-15 -55 -15 -85s5 -58.333 15 -85s24 -50.334 42 -71.001s39.333 -37 64 -49s51.667 -18 81 -18c17.333 0 35.333 3.16699 54 9.5s35 9.5 49 9.5
c8.66699 0 15.167 -2 19.5 -6s6.83301 -7.66699 7.5 -11c0 -0.666992 1 -1 3 -1s3 0.333008 3 1z" />
    <glyph glyph-name="ordfeminine" unicode="&#xaa;" horiz-adv-x="341" 
d="M323 426c0.666992 1.33301 0.163086 2.50195 -1.50391 3.50195s-2.5 0.833008 -2.5 -0.5c-1.33301 -3.33301 -4.33301 -7.16602 -9 -11.499s-10 -6.5 -16 -6.5c-12.667 0 -19 8.33301 -19 25v156c0 46.667 -10.167 80.667 -30.5 102s-49.5 32 -87.5 32
c-28.667 0 -50.5 -6.5 -65.5 -19.5s-22.5 -25.5 -22.5 -37.5c0 -8 2.33301 -15.5 7 -22.5s12.334 -10.5 23.001 -10.5c11.333 0 19.333 2.5 24 7.5s7 11.167 7 18.5c0 5.33301 -0.833008 9.66602 -2.5 12.999s-2.5 8 -2.5 14c0 12 3 20.167 9 24.5s13.667 6.5 23 6.5
c6.66699 0 13.334 -1 20.001 -3s12.834 -5.5 18.501 -10.5s10.167 -12.333 13.5 -22s5 -21.834 5 -36.501v-57c0 -4 -2.5 -7.16699 -7.5 -9.5s-11.667 -4.16602 -20 -5.49902s-17.666 -2.66602 -27.999 -3.99902s-20.5 -2.33301 -30.5 -3
c-7.33301 -0.666992 -16.333 -2.33398 -27 -5.00098s-21 -7.33398 -31 -14.001s-18.667 -16 -26 -28s-11 -27.667 -11 -47c0 -14.667 2.83301 -26.834 8.5 -36.501s13.167 -17.5 22.5 -23.5s20 -10.333 32 -13s24 -4 36 -4c19.333 0 37 4.33301 53 13s26.667 20.667 32 36
c2 -14 7.83301 -25.667 17.5 -35s22.5 -14 38.5 -14c13.333 0 24.5 3 33.5 9s14.5 12.333 16.5 19zM213.996 464.002c0 -15.333 -6.83203 -28.832 -20.499 -40.499s-29.834 -17.5 -48.501 -17.5c-6.66699 0 -13.167 1 -19.5 3s-12 5.5 -17 10.5s-9 12 -12 21
s-4.5 20.5 -4.5 34.5c0 16.667 1.5 30.5 4.5 41.5s6.83301 19.833 11.5 26.5s10 11.5 16 14.5s12 5.16699 18 6.5c11.333 2 24 3.66699 38 5s25.333 4.66602 34 9.99902v-115z" />
    <glyph glyph-name="guillemotleft" unicode="&#xab;" horiz-adv-x="378" 
d="M338 50c0 16 -2.66699 31.998 -8 47.998s-12 31.333 -20 46s-16.667 27.834 -26 39.501s-17.666 21.167 -24.999 28.5c7.33301 6.66699 15.666 16 24.999 28s18 25.333 26 40s14.667 30.167 20 46.5s8 32.5 8 48.5c0 2 -1.66699 3 -5 3c-2.66699 0 -4 -1 -4 -3
c0 -20 -6 -38.833 -18 -56.5s-26 -33.667 -42 -48s-31.833 -26.5 -47.5 -36.5s-26.834 -16.667 -33.501 -20c-2.66699 -1.33301 -2.66699 -2.66602 0 -3.99902c6.66699 -3.33301 17.834 -9.83301 33.501 -19.5s31.5 -21.667 47.5 -36s30 -30.333 42 -48s18 -36.5 18 -56.5
c0 -2 1.33301 -3 4 -3c3.33301 0 5 1 5 3zM190 49.998c0 16 -2.83301 31.998 -8.5 47.998s-12.5 31.333 -20.5 46s-16.5 27.834 -25.5 39.501s-17.167 21.167 -24.5 28.5c7.33301 6.66699 15.5 16 24.5 28s17.5 25.333 25.5 40s14.833 30.167 20.5 46.5s8.5 32.5 8.5 48.5
c0 2 -1.66699 3 -5 3c-2.66699 0 -4 -1 -4 -3c0 -20 -6 -38.833 -18 -56.5s-26 -33.667 -42 -48s-31.833 -26.5 -47.5 -36.5s-26.834 -16.667 -33.501 -20c-2.66699 -1.33301 -2.66699 -2.66602 0 -3.99902c6.66699 -3.33301 17.834 -9.83301 33.501 -19.5
s31.5 -21.667 47.5 -36s30 -30.333 42 -48s18 -36.5 18 -56.5c0 -2 1.33301 -3 4 -3c3.33301 0 5 1 5 3z" />
    <glyph glyph-name="registered" unicode="&#xae;" horiz-adv-x="842" 
d="M791 355c0 51.333 -9.66699 99.5 -29 144.5s-45.833 84.333 -79.5 118s-73 60.167 -118 79.5s-92.833 29 -143.5 29c-51.333 0 -99.333 -9.66699 -144 -29s-83.834 -45.833 -117.501 -79.5s-60.167 -73 -79.5 -118s-29 -93.167 -29 -144.5s9.66699 -99.666 29 -144.999
s45.833 -84.833 79.5 -118.5s72.834 -60.167 117.501 -79.5s92.667 -29 144 -29c50.667 0 98.5 9.66699 143.5 29s84.333 45.833 118 79.5s60.167 73.167 79.5 118.5s29 93.666 29 144.999zM785 355c0 -50.667 -9.66699 -98.334 -29 -143.001s-45.5 -83.5 -78.5 -116.5
s-71.5 -59 -115.5 -78s-91 -28.5 -141 -28.5s-97.167 9.5 -141.5 28.5s-83 45 -116 78s-59 71.833 -78 116.5s-28.5 92.334 -28.5 143.001s9.5 98.167 28.5 142.5s45 83 78 116s71.667 59 116 78s91.5 28.5 141.5 28.5s97 -9.5 141 -28.5s82.5 -45 115.5 -78
s59.167 -71.667 78.5 -116s29 -91.833 29 -142.5zM660 158c0.666992 0.666992 0.5 1.66797 -0.5 3.00098s-1.83301 2 -2.5 2c-4 -4.66699 -9.16699 -8.83398 -15.5 -12.501s-13.833 -5.5 -22.5 -5.5c-11.333 0 -20 5 -26 15s-9 22.667 -9 38v55
c0 34.667 -12.167 62.5 -36.5 83.5s-63.166 31.5 -116.499 31.5c18.667 0 36.167 2.66699 52.5 8s30.5 12.5 42.5 21.5s21.5 19.667 28.5 32s10.5 25.5 10.5 39.5c0 30 -12.833 54.833 -38.5 74.5s-61.5 29.5 -107.5 29.5h-185c-0.666992 0 -1 -1 -1 -3s0.333008 -3 1 -3h53
c2.66699 0 4 -0.666992 4 -2v-409c0 -2 -1.33301 -3 -4 -3h-53c-0.666992 0 -1 -1 -1 -3c0 -1.33301 0.333008 -2 1 -2h196c1.33301 0 2 0.666992 2 2c0 2 -0.666992 3 -2 3h-68c-2.66699 0 -4 1 -4 3v209h60c28 0 51.167 -5.83301 69.5 -17.5s27.5 -30.5 27.5 -56.5v-37
c0 -21.333 2.33301 -39.5 7 -54.5s11 -27.167 19 -36.5s17.333 -16 28 -20s22 -6 34 -6c13.333 0 24.666 2 33.999 6s17 9 23 15zM498 466.001c0 -38 -5.83301 -63.333 -17.5 -76s-32.5 -19 -62.5 -19h-60v194c0 1.33301 1.33301 2 4 2h41c28.667 0 51.667 -7.5 69 -22.5
s26 -41.167 26 -78.5z" />
    <glyph glyph-name="macron" unicode="&#xaf;" horiz-adv-x="398" 
d="M339 597c1.33301 0 2 2 2 6c0 4.66699 -0.666992 7 -2 7h-281c-1.33301 0 -2 -2.33301 -2 -7c0 -4 0.666992 -6 2 -6h281z" />
    <glyph glyph-name="macron" unicode="&#x2c9;" horiz-adv-x="398" 
d="M339 597c1.33301 0 2 2 2 6c0 4.66699 -0.666992 7 -2 7h-281c-1.33301 0 -2 -2.33301 -2 -7c0 -4 0.666992 -6 2 -6h281z" />
    <glyph glyph-name="degree" unicode="&#xb0;" horiz-adv-x="282" 
d="M218 636c0 21.333 -7.5 39.5 -22.5 54.5s-33.167 22.5 -54.5 22.5s-39.5 -7.5 -54.5 -22.5s-22.5 -33.167 -22.5 -54.5s7.5 -39.5 22.5 -54.5s33.167 -22.5 54.5 -22.5s39.5 7.5 54.5 22.5s22.5 33.167 22.5 54.5zM211 636c0 -19.333 -6.83301 -36 -20.5 -50
s-30.167 -21 -49.5 -21s-35.666 7 -48.999 21s-20 30.667 -20 50s6.66699 36 20 50s29.666 21 48.999 21s35.833 -7 49.5 -21s20.5 -30.667 20.5 -50z" />
    <glyph glyph-name="acute" unicode="&#xb4;" horiz-adv-x="352" 
d="M262 656c0 8 -2.66895 14.833 -8.00195 20.5s-12.666 8.5 -21.999 8.5s-17 -3.16699 -23 -9.5s-11.833 -14.666 -17.5 -24.999l-18.5 -34c-6.66699 -12.333 -15.167 -24.333 -25.5 -36s-23.166 -22.667 -38.499 -33s-34.666 -18.166 -57.999 -23.499
c-1.33301 0 -1.83301 -1 -1.5 -3s1.16602 -2.66699 2.49902 -2c44 10.667 79.833 22 107.5 34s49 24.167 64 36.5s25.167 24.166 30.5 35.499s8 21.666 8 30.999z" />
    <glyph glyph-name="paragraph" unicode="&#xb6;" horiz-adv-x="641" 
d="M601 0c1.33301 0 2 1 2 3s-0.666992 3 -2 3h-87c-4 0 -6 1.33301 -6 4v689c0 2.66699 2 4 6 4h87c1.33301 0 2 1 2 3s-0.666992 3 -2 3h-222c-45.333 0 -87.833 -9.33301 -127.5 -28s-74.334 -44 -104.001 -76s-53.167 -69.667 -70.5 -113s-26 -89.333 -26 -138
s8.66699 -94.5 26 -137.5s40.833 -80.5 70.5 -112.5s64.334 -57.333 104.001 -76s82.167 -28 127.5 -28h222zM501 10c0 -2.66699 -2.33301 -4 -7 -4h-104c-4 0 -6 1.33301 -6 4v689c0 2.66699 2 4 6 4h104c4.66699 0 7 -1.33301 7 -4v-689z" />
    <glyph glyph-name="periodcentered" unicode="&#xb7;" horiz-adv-x="163" 
d="M127 354c0 13.333 -4.33301 24.666 -13 33.999s-19.334 14 -32.001 14c-12 0 -22.5 -4.66699 -31.5 -14s-13.5 -20.666 -13.5 -33.999s4.5 -24.666 13.5 -33.999s19.5 -14 31.5 -14c12.667 0 23.334 4.66699 32.001 14s13 20.666 13 33.999z" />
    <glyph glyph-name="cedilla" unicode="&#xb8;" horiz-adv-x="288" 
d="M202 -154c0 18 -3.83301 31.333 -11.5 40s-16 16 -25 22s-17.333 12 -25 18s-11.5 15 -11.5 27c0 6.66699 1.5 14 4.5 22s5.5 13.667 7.5 17c0 1.33301 -0.833008 2.16602 -2.5 2.49902s-2.83398 0.166016 -3.50098 -0.500977c-5.33301 -6.66699 -10.333 -16.667 -15 -30
s-7 -26.666 -7 -39.999c0 -17.333 4.16699 -30.166 12.5 -38.499s17.5 -15 27.5 -20s19.167 -9.83301 27.5 -14.5s12.5 -11.334 12.5 -20.001c0 -15.333 -5.83301 -27.666 -17.5 -36.999s-26.167 -14 -43.5 -14c-16.667 0 -25 6.66699 -25 20c0 5.33301 1.83301 9 5.5 11
s5.5 6.66699 5.5 14s-2.16699 12.666 -6.5 15.999s-9.83301 5 -16.5 5c-7.33301 0 -13.166 -2.5 -17.499 -7.5s-6.5 -10.833 -6.5 -17.5c0 -9.33301 5.33301 -19.5 16 -30.5s25.667 -16.5 45 -16.5c22.667 0 40 6.33301 52 19s18 30.334 18 53.001z" />
    <glyph glyph-name="ordmasculine" unicode="&#xba;" horiz-adv-x="390" 
d="M350 561c0 22.667 -4 44 -12 64s-19 37.5 -33 52.5s-30.5 26.833 -49.5 35.5s-39.167 13 -60.5 13s-41.5 -4.33301 -60.5 -13s-35.5 -20.5 -49.5 -35.5s-25 -32.5 -33 -52.5s-12 -41.333 -12 -64s4 -44 12 -64s19 -37.5 33 -52.5s30.5 -26.833 49.5 -35.5
s39.167 -13 60.5 -13s41.5 4.33301 60.5 13s35.5 20.5 49.5 35.5s25 32.5 33 52.5s12 41.333 12 64zM287 561c0 -22 -0.833008 -40.667 -2.5 -56s-4 -28.5 -7 -39.5s-6.83301 -20.167 -11.5 -27.5s-10 -13.666 -16 -18.999c-7.33301 -6.66699 -15.5 -11.167 -24.5 -13.5
s-19.167 -3.5 -30.5 -3.5s-21.666 1.16699 -30.999 3.5s-17.666 6.83301 -24.999 13.5c-6 5.33301 -11.333 11.666 -16 18.999s-8.5 16.5 -11.5 27.5s-5.33301 24.167 -7 39.5s-2.5 34 -2.5 56c0 38.667 3.16699 69.334 9.5 92.001s15.5 39.334 27.5 50.001
c7.33301 7.33301 15.666 12 24.999 14s19.666 3 30.999 3s21.5 -1 30.5 -3s17.167 -6.66699 24.5 -14c12.667 -10.667 22 -27.334 28 -50.001s9 -53.334 9 -92.001z" />
    <glyph glyph-name="guillemotright" unicode="&#xbb;" horiz-adv-x="378" 
d="M338 210c2.66699 1.33301 2.66699 2.66797 0 4.00098c-7.33301 3.33301 -18.666 10 -33.999 20s-31 22.167 -47 36.5s-30 30.333 -42 48s-18 36.5 -18 56.5c0 2 -1.66699 3 -5 3c-2.66699 0 -4 -1 -4 -3c0 -16 2.83301 -32.167 8.5 -48.5s12.5 -31.833 20.5 -46.5
s16.5 -28 25.5 -40s17.167 -21.333 24.5 -28c-7.33301 -7.33301 -15.5 -16.833 -24.5 -28.5s-17.5 -24.834 -25.5 -39.501s-14.833 -30 -20.5 -46s-8.5 -32 -8.5 -48c0 -2 1.33301 -3 4 -3c3.33301 0 5 1 5 3c0 20 6 38.833 18 56.5s26 33.667 42 48s31.667 26.333 47 36
s26.666 16.167 33.999 19.5zM190 210.002c2.66699 1.33301 2.66699 2.66797 0 4.00098c-7.33301 3.33301 -18.666 10 -33.999 20s-31 22.167 -47 36.5s-30 30.333 -42 48s-18 36.5 -18 56.5c0 2 -1.66699 3 -5 3c-2.66699 0 -4 -1 -4 -3c0 -16 2.83301 -32.167 8.5 -48.5
s12.5 -31.833 20.5 -46.5s16.5 -28 25.5 -40s17.167 -21.333 24.5 -28c-7.33301 -7.33301 -15.5 -16.833 -24.5 -28.5s-17.5 -24.834 -25.5 -39.501s-14.833 -30 -20.5 -46s-8.5 -32 -8.5 -48c0 -2 1.33301 -3 4 -3c3.33301 0 5 1 5 3c0 20 6 38.833 18 56.5
s26 33.667 42 48s31.667 26.333 47 36s26.666 16.167 33.999 19.5z" />
    <glyph glyph-name="questiondown" unicode="&#xbf;" horiz-adv-x="409" 
d="M331 328c0 13.333 -4.5 24.666 -13.5 33.999s-19.833 14 -32.5 14s-23.334 -4.66699 -32.001 -14s-13 -20.666 -13 -33.999s4.33301 -24.666 13 -33.999s19.334 -14 32.001 -14s23.5 4.66699 32.5 14s13.5 20.666 13.5 33.999zM386 -254
c0 16.667 -4.32812 28.8408 -12.9951 36.5078s-20.334 11.5 -35.001 11.5c-14 0 -25.167 -3.83301 -33.5 -11.5s-12.5 -17.167 -12.5 -28.5c0 -6.66699 0.666992 -11.834 2 -15.501s2.83301 -7.16699 4.5 -10.5s3.16699 -7.33301 4.5 -12s2 -11 2 -19
c0 -19.333 -3.16699 -33.166 -9.5 -41.499s-21.833 -12.5 -46.5 -12.5c-13.333 0 -26.5 1.5 -39.5 4.5s-24.833 8.83301 -35.5 17.5c-17.333 14.667 -30.333 35.5 -39 62.5s-13 66.167 -13 117.5c0 34.667 0.5 62.834 1.5 84.501s2.66699 38.667 5 51
s5.16602 21.5 8.49902 27.5s7.66602 11 12.999 15c6.66699 5.33301 16 9.66602 28 12.999s23 5 33 5c12 0 25.667 -2.5 41 -7.5s26.333 -14.167 33 -27.5c0.666992 -0.666992 1.5 -0.833984 2.5 -0.500977s1.5 1.16602 1.5 2.49902c0 0.666992 -0.166992 1.16699 -0.5 1.5
s-0.5 1.16602 -0.5 2.49902v184c0 1.33301 -1 2 -3 2s-3 -0.666992 -3 -2v-177c-8.66699 10.667 -19.834 18 -33.501 22s-26.167 6 -37.5 6c-24 0 -46.667 -4.83301 -68 -14.5s-40 -23.334 -56 -41.001s-28.833 -38.834 -38.5 -63.501s-14.5 -52.334 -14.5 -83.001
s5.33301 -58.834 16 -84.501s25.667 -47.667 45 -66s42 -32.5 68 -42.5s54.667 -15 86 -15c22.667 0 42.667 3.16699 60 9.5s31.666 14.666 42.999 24.999s19.833 22 25.5 35s8.5 26.167 8.5 39.5z" />
    <glyph glyph-name="Agrave" unicode="&#xc0;" 
d="M696 0c1.33301 0 1.99902 0.999023 1.99902 2.99902s-0.666992 3 -2 3h-85c-3.33301 0 -6 1 -8 3l-273 714c-0.666992 1.33301 -2 2 -4 2c-1.33301 0 -2.33301 -0.666992 -3 -2l-244 -675c-7.33301 -19.333 -12.166 -31.166 -14.499 -35.499s-5.83301 -6.5 -10.5 -6.5
h-75c-1.33301 0 -2 -1 -2 -3s0.666992 -3 2 -3h188c1.33301 0 2 1 2 3s-0.666992 3 -2 3h-90c-3.33301 0 -4.5 2.5 -3.5 7.5s4.83301 16.5 11.5 34.5l72 196h242l85 -235c0 -2 -1.66699 -3 -5 -3h-94c-1.33301 0 -2 -1 -2 -3s0.666992 -3 2 -3h311zM396.999 249.999h-239
l120 329zM349.999 778.999c-23.333 5.33301 -42.5 13.166 -57.5 23.499s-27.667 21.333 -38 33s-18.833 23.667 -25.5 36l-18.5 34c-5.66699 10.333 -11.5 18.666 -17.5 24.999s-13.667 9.5 -23 9.5s-16.666 -2.83301 -21.999 -8.5s-8 -12.5 -8 -20.5
c0 -9.33301 2.66699 -19.666 8 -30.999s15.5 -23.166 30.5 -35.499s36.167 -24.5 63.5 -36.5s63 -23.333 107 -34c1.33301 -0.666992 2.16602 0 2.49902 2s-0.166992 3 -1.5 3z" />
    <glyph glyph-name="Aacute" unicode="&#xc1;" 
d="M696 0c1.33301 0 1.99902 0.999023 1.99902 2.99902s-0.666992 3 -2 3h-85c-3.33301 0 -6 1 -8 3l-273 714c-0.666992 1.33301 -2 2 -4 2c-1.33301 0 -2.33301 -0.666992 -3 -2l-244 -675c-7.33301 -19.333 -12.166 -31.166 -14.499 -35.499s-5.83301 -6.5 -10.5 -6.5
h-75c-1.33301 0 -2 -1 -2 -3s0.666992 -3 2 -3h188c1.33301 0 2 1 2 3s-0.666992 3 -2 3h-90c-3.33301 0 -4.5 2.5 -3.5 7.5s4.83301 16.5 11.5 34.5l72 196h242l85 -235c0 -2 -1.66699 -3 -5 -3h-94c-1.33301 0 -2 -1 -2 -3s0.666992 -3 2 -3h311zM396.999 249.999h-239
l120 329zM523.999 910.999c0 8 -2.66895 14.833 -8.00195 20.5s-12.666 8.5 -21.999 8.5s-17 -3.16699 -23 -9.5s-11.833 -14.666 -17.5 -24.999l-18.5 -34c-6.66699 -12.333 -15.167 -24.333 -25.5 -36s-23.166 -22.667 -38.499 -33s-34.666 -18.166 -57.999 -23.499
c-1.33301 0 -1.83301 -1 -1.5 -3s1.16602 -2.66699 2.49902 -2c44 10.667 79.833 22 107.5 34s49 24.167 64 36.5s25.167 24.166 30.5 35.499s8 21.666 8 30.999z" />
    <glyph glyph-name="Acircumflex" unicode="&#xc2;" 
d="M696 0c1.33301 0 1.99902 0.999023 1.99902 2.99902s-0.666992 3 -2 3h-85c-3.33301 0 -6 1 -8 3l-273 714c-0.666992 1.33301 -2 2 -4 2c-1.33301 0 -2.33301 -0.666992 -3 -2l-244 -675c-7.33301 -19.333 -12.166 -31.166 -14.499 -35.499s-5.83301 -6.5 -10.5 -6.5
h-75c-1.33301 0 -2 -1 -2 -3s0.666992 -3 2 -3h188c1.33301 0 2 1 2 3s-0.666992 3 -2 3h-90c-3.33301 0 -4.5 2.5 -3.5 7.5s4.83301 16.5 11.5 34.5l72 196h242l85 -235c0 -2 -1.66699 -3 -5 -3h-94c-1.33301 0 -2 -1 -2 -3s0.666992 -3 2 -3h311zM396.999 249.999h-239
l120 329zM452.999 787.999l-72.5 85.5c-19.667 24.333 -36.167 46.833 -49.5 67.5c-1.33301 0.666992 -2.33301 0.666992 -3 0c-13.333 -20.667 -29.5 -43.167 -48.5 -67.5s-42.5 -52.833 -70.5 -85.5c-1.33301 -1.33301 -1.5 -2.5 -0.5 -3.5s2.16699 -1.16699 3.5 -0.5
l113 85l124 -85c1.33301 -0.666992 2.5 -0.5 3.5 0.5s1.16699 2.16699 0.5 3.5z" />
    <glyph glyph-name="Atilde" unicode="&#xc3;" 
d="M696 0c1.33301 0 1.99902 0.999023 1.99902 2.99902s-0.666992 3 -2 3h-85c-3.33301 0 -6 1 -8 3l-273 714c-0.666992 1.33301 -2 2 -4 2c-1.33301 0 -2.33301 -0.666992 -3 -2l-244 -675c-7.33301 -19.333 -12.166 -31.166 -14.499 -35.499s-5.83301 -6.5 -10.5 -6.5
h-75c-1.33301 0 -2 -1 -2 -3s0.666992 -3 2 -3h188c1.33301 0 2 1 2 3s-0.666992 3 -2 3h-90c-3.33301 0 -4.5 2.5 -3.5 7.5s4.83301 16.5 11.5 34.5l72 196h242l85 -235c0 -2 -1.66699 -3 -5 -3h-94c-1.33301 0 -2 -1 -2 -3s0.666992 -3 2 -3h311zM396.999 249.999h-239
l120 329zM497.999 925.999c0 1.33301 -1 1.99805 -3 1.99805s-3 -0.666992 -3 -2c0 -21.333 -5 -38.666 -15 -51.999s-25 -20 -45 -20c-11.333 0 -23 3 -35 9s-24.5 12.833 -37.5 20.5s-27 14.5 -42 20.5s-30.833 9 -47.5 9c-30.667 0 -56.167 -9.83301 -76.5 -29.5
s-30.5 -45.5 -30.5 -77.5c0 -1.33301 1 -2 3 -2c2.66699 0 4 0.666992 4 2c0 20.667 5 37.667 15 51s24.667 20 44 20c10.667 0 22 -3.16699 34 -9.5l38 -20.5c13.333 -7.33301 27.333 -14.166 42 -20.499s30.667 -9.5 48 -9.5c30.667 0 56.167 10.167 76.5 30.5
s30.5 46.5 30.5 78.5z" />
    <glyph glyph-name="Adieresis" unicode="&#xc4;" 
d="M696 0c1.33301 0 1.99902 0.999023 1.99902 2.99902s-0.666992 3 -2 3h-85c-3.33301 0 -6 1 -8 3l-273 714c-0.666992 1.33301 -2 2 -4 2c-1.33301 0 -2.33301 -0.666992 -3 -2l-244 -675c-7.33301 -19.333 -12.166 -31.166 -14.499 -35.499s-5.83301 -6.5 -10.5 -6.5
h-75c-1.33301 0 -2 -1 -2 -3s0.666992 -3 2 -3h188c1.33301 0 2 1 2 3s-0.666992 3 -2 3h-90c-3.33301 0 -4.5 2.5 -3.5 7.5s4.83301 16.5 11.5 34.5l72 196h242l85 -235c0 -2 -1.66699 -3 -5 -3h-94c-1.33301 0 -2 -1 -2 -3s0.666992 -3 2 -3h311zM396.999 249.999h-239
l120 329zM458.999 844.999c0 12 -4 22.167 -12 30.5s-17.667 12.5 -29 12.5s-21 -4.16699 -29 -12.5s-12 -18.5 -12 -30.5c0 -11.333 4 -21.166 12 -29.499s17.667 -12.5 29 -12.5s21 4.16699 29 12.5s12 18.166 12 29.499zM284.999 844.999c0 12 -4 22.167 -12 30.5
s-17.667 12.5 -29 12.5s-21 -4.16699 -29 -12.5s-12 -18.5 -12 -30.5c0 -11.333 4 -21.166 12 -29.499s17.667 -12.5 29 -12.5s21 4.16699 29 12.5s12 18.166 12 29.499z" />
    <glyph glyph-name="Aring" unicode="&#xc5;" 
d="M696 0c1.33301 0 1.99902 0.999023 1.99902 2.99902s-0.666992 3 -2 3h-85c-3.33301 0 -6 1 -8 3l-271 709c20 1.33301 36.833 9.5 50.5 24.5s20.5 32.5 20.5 52.5c0 21.333 -7.33301 39.5 -22 54.5s-32.667 22.5 -54 22.5s-39.5 -7.5 -54.5 -22.5
s-22.5 -33.167 -22.5 -54.5c0 -19.333 7 -36.5 21 -51.5s30.667 -23.5 50 -25.5l-242 -670c-7.33301 -19.333 -12.166 -31.166 -14.499 -35.499s-5.83301 -6.5 -10.5 -6.5h-75c-1.33301 0 -2 -1 -2 -3s0.666992 -3 2 -3h188c1.33301 0 2 1 2 3s-0.666992 3 -2 3h-90
c-3.33301 0 -4.5 2.5 -3.5 7.5s4.83301 16.5 11.5 34.5l72 196h242l85 -235c0 -2 -1.66699 -3 -5 -3h-94c-1.33301 0 -2 -1 -2 -3s0.666992 -3 2 -3h311zM395.999 794.999c0 -19.333 -6.66699 -36 -20 -50s-29.666 -21 -48.999 -21s-35.833 7 -49.5 21
s-20.5 30.667 -20.5 50s6.83301 36 20.5 50s30.167 21 49.5 21s35.666 -7 48.999 -21s20 -30.667 20 -50zM396.999 249.999h-239l120 329z" />
    <glyph glyph-name="AE" unicode="&#xc6;" horiz-adv-x="928" 
d="M903 3l0.00195312 199.999c0 1.33301 -1 2 -3 2c-1.33301 0 -2 -0.666992 -2 -2c0 -26 -3.83301 -50.833 -11.5 -74.5s-20.334 -44.5 -38.001 -62.5s-40.834 -32.5 -69.501 -43.5s-63.667 -16.5 -105 -16.5h-128c-4.66699 0 -7 1.33301 -7 4v351h51
c40.667 0 71.834 -10.5 93.501 -31.5s32.5 -48.5 32.5 -82.5c0 -1.33301 0.666992 -2 2 -2c2 0 3 0.666992 3 2v234c0 1.33301 -1 2 -3 2c-1.33301 0 -2 -0.666992 -2 -2c0 -34.667 -10.833 -62.334 -32.5 -83.001s-52.834 -31 -93.501 -31h-51v332c0 2.66699 2.33301 4 7 4
h125c31.333 0 58 -4.83301 80 -14.5s39.833 -22.667 53.5 -39s23.667 -35.166 30 -56.499s9.5 -43.666 9.5 -66.999c0 -1.33301 1 -2 3 -2s3 0.666992 3 2v180c0 2 -1 3 -3 3h-513c-1.33301 0 -2 -1 -2 -3s0.666992 -3 2 -3h90l-367 -655l-12.5 -23
c-3 -5.33301 -5.66699 -9.5 -8 -12.5s-4.33301 -4.83301 -6 -5.5s-3.5 -1 -5.5 -1h-75c-1.33301 0 -2 -0.666992 -2 -2s0.666992 -2.66602 2 -3.99902h188c1.33301 1.33301 2 2.66602 2 3.99902s-0.666992 2 -2 2h-90c-3.33301 0 -4 2.5 -2 7.5s8.33301 16.5 19 34.5
l136 245h229v-283c0 -2.66699 -2.33301 -4 -7 -4h-89c-1.33301 0 -2 -1 -2 -3s0.666992 -3 2 -3h566c2 0 3 1 3 3zM430.002 298.999h-225l225 400v-400z" />
    <glyph glyph-name="Ccedilla" unicode="&#xc7;" horiz-adv-x="655" 
d="M606 -15l-0.00292969 229.994c0 1.33301 -1 2 -3 2s-3 -0.666992 -3 -2c0 -32.667 -5.5 -62.834 -16.5 -90.501s-26.167 -51.667 -45.5 -72s-42.166 -36.166 -68.499 -47.499s-54.833 -17 -85.5 -17c-23.333 0 -47.166 2.83301 -71.499 8.5s-44.833 15.834 -61.5 30.501
c-28 24.667 -49.167 63.334 -63.5 116.001s-21.5 123 -21.5 211c0 88.667 7.16699 159.167 21.5 211.5s35.5 90.833 63.5 115.5c16.667 15.333 36.334 25.666 59.001 30.999s45.667 8 69 8c24.667 0 49.167 -5.66699 73.5 -17s46 -26.333 65 -45s34.5 -39.834 46.5 -63.501
s18 -47.834 18 -72.501c0 -1.33301 0.666992 -2 2 -2c2 0 3 0.666992 3 2v201c0 1.33301 -1 2 -3 2c-1.33301 0 -2 -0.666992 -2 -2c-1.33301 -5.33301 -6.5 -10.666 -15.5 -15.999s-20.833 -8 -35.5 -8c-11.333 0 -23.333 1.33301 -36 4s-25.5 5.83398 -38.5 9.50098
s-26.167 6.83398 -39.5 9.50098s-26 4 -38 4c-48 0 -92 -10 -132 -30s-74.5 -47 -103.5 -81s-51.667 -73.5 -68 -118.5s-24.5 -92.5 -24.5 -142.5c0 -47.333 7.5 -92.5 22.5 -135.5s36 -81.167 63 -114.5s59.167 -60.666 96.5 -81.999s78 -34 122 -38
c-4 -7.33301 -7.83301 -16.666 -11.5 -27.999s-5.5 -22.333 -5.5 -33c0 -17.333 4.16699 -30.166 12.5 -38.499s17.5 -15 27.5 -20s19.167 -9.83301 27.5 -14.5s12.5 -11.334 12.5 -20.001c0 -15.333 -5.66699 -27.666 -17 -36.999s-25.666 -14 -42.999 -14
s-26 6.66699 -26 20c0 5.33301 1.83301 9 5.5 11s5.5 6.66699 5.5 14s-2.16699 12.666 -6.5 15.999s-9.83301 5 -16.5 5c-7.33301 0 -13.166 -2.5 -17.499 -7.5s-6.5 -10.833 -6.5 -17.5c0 -9.33301 5.33301 -19.5 16 -30.5s26 -16.5 46 -16.5c22 0 39.167 6.33301 51.5 19
s18.5 30.334 18.5 53.001c0 18 -3.83301 31.5 -11.5 40.5s-16.167 16.333 -25.5 22s-17.833 11.334 -25.5 17.001s-11.5 14.5 -11.5 26.5c0 5.33301 0.833008 11 2.5 17s3.5 11.333 5.5 16c16.667 -2 33.667 -1.5 51 1.5s34.333 6.66699 51 11l48 12.5
c15.333 4 29.666 6 42.999 6c14 0 24.667 -3.5 32 -10.5s11.666 -13.5 12.999 -19.5c0.666992 -0.666992 1.66699 -1 3 -1c2 0 3 0.333008 3 1z" />
    <glyph glyph-name="Egrave" unicode="&#xc8;" horiz-adv-x="634" 
d="M609 3l0.000976562 199.999c0 1.33301 -1 2 -3 2s-3 -0.666992 -3 -2c0 -26 -3.83301 -50.833 -11.5 -74.5s-20.334 -44.5 -38.001 -62.5s-40.667 -32.5 -69 -43.5s-63.5 -16.5 -105.5 -16.5h-129c-4 0 -6 1.33301 -6 4v351h51c40.667 0 71.834 -10.5 93.501 -31.5
s32.5 -48.5 32.5 -82.5c0 -1.33301 1 -2 3 -2s3 0.666992 3 2v234c0 1.33301 -1 2 -3 2s-3 -0.666992 -3 -2c0 -34.667 -10.833 -62.334 -32.5 -83.001s-52.834 -31 -93.501 -31h-51v332c0 2.66699 2 4 6 4h126c31.333 0 58 -4.83301 80 -14.5s40 -22.667 54 -39
s24.167 -35.166 30.5 -56.499s9.5 -43.666 9.5 -66.999c0 -1.33301 1 -2 3 -2s3 0.666992 3 2v180c0 2 -1 3 -3 3h-513c-1.33301 0 -2 -1 -2 -3s0.666992 -3 2 -3h88c4 0 6 -1.33301 6 -4v-689c0 -2.66699 -2 -4 -6 -4h-88c-1.33301 0 -2 -1 -2 -3s0.666992 -3 2 -3h566
c2 0 3 1 3 3zM425.001 778.999c-23.333 5.33301 -42.5 13.166 -57.5 23.499s-27.667 21.333 -38 33s-18.833 23.667 -25.5 36l-18.5 34c-5.66699 10.333 -11.5 18.666 -17.5 24.999s-13.667 9.5 -23 9.5s-16.666 -2.83301 -21.999 -8.5s-8 -12.5 -8 -20.5
c0 -9.33301 2.66699 -19.666 8 -30.999s15.5 -23.166 30.5 -35.499s36.167 -24.5 63.5 -36.5s63 -23.333 107 -34c1.33301 -0.666992 2.16602 0 2.49902 2s-0.166992 3 -1.5 3z" />
    <glyph glyph-name="Eacute" unicode="&#xc9;" horiz-adv-x="634" 
d="M609 3l0.000976562 199.999c0 1.33301 -1 2 -3 2s-3 -0.666992 -3 -2c0 -26 -3.83301 -50.833 -11.5 -74.5s-20.334 -44.5 -38.001 -62.5s-40.667 -32.5 -69 -43.5s-63.5 -16.5 -105.5 -16.5h-129c-4 0 -6 1.33301 -6 4v351h51c40.667 0 71.834 -10.5 93.501 -31.5
s32.5 -48.5 32.5 -82.5c0 -1.33301 1 -2 3 -2s3 0.666992 3 2v234c0 1.33301 -1 2 -3 2s-3 -0.666992 -3 -2c0 -34.667 -10.833 -62.334 -32.5 -83.001s-52.834 -31 -93.501 -31h-51v332c0 2.66699 2 4 6 4h126c31.333 0 58 -4.83301 80 -14.5s40 -22.667 54 -39
s24.167 -35.166 30.5 -56.499s9.5 -43.666 9.5 -66.999c0 -1.33301 1 -2 3 -2s3 0.666992 3 2v180c0 2 -1 3 -3 3h-513c-1.33301 0 -2 -1 -2 -3s0.666992 -3 2 -3h88c4 0 6 -1.33301 6 -4v-689c0 -2.66699 -2 -4 -6 -4h-88c-1.33301 0 -2 -1 -2 -3s0.666992 -3 2 -3h566
c2 0 3 1 3 3zM505.001 910.999c0 8 -2.66895 14.833 -8.00195 20.5s-12.666 8.5 -21.999 8.5s-17 -3.16699 -23 -9.5s-11.833 -14.666 -17.5 -24.999l-18.5 -34c-6.66699 -12.333 -15.167 -24.333 -25.5 -36s-23.166 -22.667 -38.499 -33s-34.666 -18.166 -57.999 -23.499
c-1.33301 0 -1.83301 -1 -1.5 -3s1.16602 -2.66699 2.49902 -2c44 10.667 79.833 22 107.5 34s49 24.167 64 36.5s25.167 24.166 30.5 35.499s8 21.666 8 30.999z" />
    <glyph glyph-name="Ecircumflex" unicode="&#xca;" horiz-adv-x="634" 
d="M609 3l0.000976562 199.999c0 1.33301 -1 2 -3 2s-3 -0.666992 -3 -2c0 -26 -3.83301 -50.833 -11.5 -74.5s-20.334 -44.5 -38.001 -62.5s-40.667 -32.5 -69 -43.5s-63.5 -16.5 -105.5 -16.5h-129c-4 0 -6 1.33301 -6 4v351h51c40.667 0 71.834 -10.5 93.501 -31.5
s32.5 -48.5 32.5 -82.5c0 -1.33301 1 -2 3 -2s3 0.666992 3 2v234c0 1.33301 -1 2 -3 2s-3 -0.666992 -3 -2c0 -34.667 -10.833 -62.334 -32.5 -83.001s-52.834 -31 -93.501 -31h-51v332c0 2.66699 2 4 6 4h126c31.333 0 58 -4.83301 80 -14.5s40 -22.667 54 -39
s24.167 -35.166 30.5 -56.499s9.5 -43.666 9.5 -66.999c0 -1.33301 1 -2 3 -2s3 0.666992 3 2v180c0 2 -1 3 -3 3h-513c-1.33301 0 -2 -1 -2 -3s0.666992 -3 2 -3h88c4 0 6 -1.33301 6 -4v-689c0 -2.66699 -2 -4 -6 -4h-88c-1.33301 0 -2 -1 -2 -3s0.666992 -3 2 -3h566
c2 0 3 1 3 3zM462.001 787.999l-72.5 85.5c-19.667 24.333 -36.167 46.833 -49.5 67.5c-1.33301 0.666992 -2.33301 0.666992 -3 0c-13.333 -20.667 -29.5 -43.167 -48.5 -67.5s-42.5 -52.833 -70.5 -85.5c-1.33301 -1.33301 -1.5 -2.5 -0.5 -3.5s2.16699 -1.16699 3.5 -0.5
l113 85l124 -85c1.33301 -0.666992 2.5 -0.5 3.5 0.5s1.16699 2.16699 0.5 3.5z" />
    <glyph glyph-name="Edieresis" unicode="&#xcb;" horiz-adv-x="634" 
d="M609 3l0.000976562 199.999c0 1.33301 -1 2 -3 2s-3 -0.666992 -3 -2c0 -26 -3.83301 -50.833 -11.5 -74.5s-20.334 -44.5 -38.001 -62.5s-40.667 -32.5 -69 -43.5s-63.5 -16.5 -105.5 -16.5h-129c-4 0 -6 1.33301 -6 4v351h51c40.667 0 71.834 -10.5 93.501 -31.5
s32.5 -48.5 32.5 -82.5c0 -1.33301 1 -2 3 -2s3 0.666992 3 2v234c0 1.33301 -1 2 -3 2s-3 -0.666992 -3 -2c0 -34.667 -10.833 -62.334 -32.5 -83.001s-52.834 -31 -93.501 -31h-51v332c0 2.66699 2 4 6 4h126c31.333 0 58 -4.83301 80 -14.5s40 -22.667 54 -39
s24.167 -35.166 30.5 -56.499s9.5 -43.666 9.5 -66.999c0 -1.33301 1 -2 3 -2s3 0.666992 3 2v180c0 2 -1 3 -3 3h-513c-1.33301 0 -2 -1 -2 -3s0.666992 -3 2 -3h88c4 0 6 -1.33301 6 -4v-689c0 -2.66699 -2 -4 -6 -4h-88c-1.33301 0 -2 -1 -2 -3s0.666992 -3 2 -3h566
c2 0 3 1 3 3zM471.001 844.999c0 12 -4 22.167 -12 30.5s-17.667 12.5 -29 12.5s-21 -4.16699 -29 -12.5s-12 -18.5 -12 -30.5c0 -11.333 4 -21.166 12 -29.499s17.667 -12.5 29 -12.5s21 4.16699 29 12.5s12 18.166 12 29.499zM297.001 844.999c0 12 -4 22.167 -12 30.5
s-17.667 12.5 -29 12.5s-21 -4.16699 -29 -12.5s-12 -18.5 -12 -30.5c0 -11.333 4 -21.166 12 -29.499s17.667 -12.5 29 -12.5s21 4.16699 29 12.5s12 18.166 12 29.499z" />
    <glyph glyph-name="Igrave" unicode="&#xcc;" horiz-adv-x="378" 
d="M339 0c1.33301 0 2 1 2 3s-0.666992 3 -2 3h-89c-4.66699 0 -7 1.33301 -7 4v689c0 2.66699 2.33301 4 7 4h89c1.33301 0 2 1 2 3s-0.666992 3 -2 3h-299c-1.33301 0 -2 -1 -2 -3s0.666992 -3 2 -3h88c4 0 6 -1.33301 6 -4v-689c0 -2.66699 -2 -4 -6 -4h-88
c-1.33301 0 -2 -1 -2 -3s0.666992 -3 2 -3h299zM292 779c-23.333 5.33301 -42.5 13.166 -57.5 23.499s-27.667 21.333 -38 33s-18.833 23.667 -25.5 36l-18.5 34c-5.66699 10.333 -11.5 18.666 -17.5 24.999s-13.667 9.5 -23 9.5s-16.666 -2.83301 -21.999 -8.5
s-8 -12.5 -8 -20.5c0 -9.33301 2.66699 -19.666 8 -30.999s15.5 -23.166 30.5 -35.499s36.167 -24.5 63.5 -36.5s63 -23.333 107 -34c1.33301 -0.666992 2.16602 0 2.49902 2s-0.166992 3 -1.5 3z" />
    <glyph glyph-name="Iacute" unicode="&#xcd;" horiz-adv-x="378" 
d="M339 0c1.33301 0 2 1 2 3s-0.666992 3 -2 3h-89c-4.66699 0 -7 1.33301 -7 4v689c0 2.66699 2.33301 4 7 4h89c1.33301 0 2 1 2 3s-0.666992 3 -2 3h-299c-1.33301 0 -2 -1 -2 -3s0.666992 -3 2 -3h88c4 0 6 -1.33301 6 -4v-689c0 -2.66699 -2 -4 -6 -4h-88
c-1.33301 0 -2 -1 -2 -3s0.666992 -3 2 -3h299zM341 911c0 8 -2.66895 14.833 -8.00195 20.5s-12.666 8.5 -21.999 8.5s-17 -3.16699 -23 -9.5s-11.833 -14.666 -17.5 -24.999l-18.5 -34c-6.66699 -12.333 -15.167 -24.333 -25.5 -36s-23.166 -22.667 -38.499 -33
s-34.666 -18.166 -57.999 -23.499c-1.33301 0 -1.83301 -1 -1.5 -3s1.16602 -2.66699 2.49902 -2c44 10.667 79.833 22 107.5 34s49 24.167 64 36.5s25.167 24.166 30.5 35.499s8 21.666 8 30.999z" />
    <glyph glyph-name="Icircumflex" unicode="&#xce;" horiz-adv-x="378" 
d="M339 0c1.33301 0 2 1 2 3s-0.666992 3 -2 3h-89c-4.66699 0 -7 1.33301 -7 4v689c0 2.66699 2.33301 4 7 4h89c1.33301 0 2 1 2 3s-0.666992 3 -2 3h-299c-1.33301 0 -2 -1 -2 -3s0.666992 -3 2 -3h88c4 0 6 -1.33301 6 -4v-689c0 -2.66699 -2 -4 -6 -4h-88
c-1.33301 0 -2 -1 -2 -3s0.666992 -3 2 -3h299zM310 788l-72.5 85.5c-19.667 24.333 -36.167 46.833 -49.5 67.5c-1.33301 0.666992 -2.33301 0.666992 -3 0c-13.333 -20.667 -29.5 -43.167 -48.5 -67.5s-42.5 -52.833 -70.5 -85.5c-1.33301 -1.33301 -1.5 -2.5 -0.5 -3.5
s2.16699 -1.16699 3.5 -0.5l113 85l124 -85c1.33301 -0.666992 2.5 -0.5 3.5 0.5s1.16699 2.16699 0.5 3.5z" />
    <glyph glyph-name="Idieresis" unicode="&#xcf;" horiz-adv-x="378" 
d="M339 0c1.33301 0 2 1 2 3s-0.666992 3 -2 3h-89c-4.66699 0 -7 1.33301 -7 4v689c0 2.66699 2.33301 4 7 4h89c1.33301 0 2 1 2 3s-0.666992 3 -2 3h-299c-1.33301 0 -2 -1 -2 -3s0.666992 -3 2 -3h88c4 0 6 -1.33301 6 -4v-689c0 -2.66699 -2 -4 -6 -4h-88
c-1.33301 0 -2 -1 -2 -3s0.666992 -3 2 -3h299zM320 845c0 12 -4 22.167 -12 30.5s-17.667 12.5 -29 12.5s-21 -4.16699 -29 -12.5s-12 -18.5 -12 -30.5c0 -11.333 4 -21.166 12 -29.499s17.667 -12.5 29 -12.5s21 4.16699 29 12.5s12 18.166 12 29.499zM146 845
c0 12 -4 22.167 -12 30.5s-17.667 12.5 -29 12.5s-21 -4.16699 -29 -12.5s-12 -18.5 -12 -30.5c0 -11.333 4 -21.166 12 -29.499s17.667 -12.5 29 -12.5s21 4.16699 29 12.5s12 18.166 12 29.499z" />
    <glyph glyph-name="Ntilde" unicode="&#xd1;" horiz-adv-x="738" 
d="M710 703c0.666992 0 0.999023 1.00195 0.999023 3.00195s-0.333008 3 -1 3h-197c-1.33301 0 -2 -1 -2 -3s0.666992 -3 2 -3h89c4 0 6 -1.33301 6 -4v-521l-340 513c-4.66699 7.33301 -8.66699 12.166 -12 14.499s-6.66602 3.5 -9.99902 3.5h-211c-1.33301 0 -2 -1 -2 -3
s0.666992 -3 2 -3h89c3.33301 0 5 -1.33301 5 -4v-689c0 -2.66699 -1.66699 -4 -5 -4h-89c-1.33301 0 -2 -1 -2 -3s0.666992 -3 2 -3h197c1.33301 0 2 1 2 3s-0.666992 3 -2 3h-89c-4 0 -6 1.33301 -6 4v686l470 -709c1.33301 -2 3 -2.83301 5 -2.5s3 1.16602 3 2.49902v712
c0 2.66699 2 4 6 4h89zM553.999 926.002c0 1.33301 -1 1.99805 -3 1.99805s-3 -0.666992 -3 -2c0 -21.333 -5 -38.666 -15 -51.999s-25 -20 -45 -20c-11.333 0 -23 3 -35 9s-24.5 12.833 -37.5 20.5s-27 14.5 -42 20.5s-30.833 9 -47.5 9
c-30.667 0 -56.167 -9.83301 -76.5 -29.5s-30.5 -45.5 -30.5 -77.5c0 -1.33301 1 -2 3 -2c2.66699 0 4 0.666992 4 2c0 20.667 5 37.667 15 51s24.667 20 44 20c10.667 0 22 -3.16699 34 -9.5l38 -20.5c13.333 -7.33301 27.333 -14.166 42 -20.499s30.667 -9.5 48 -9.5
c30.667 0 56.167 10.167 76.5 30.5s30.5 46.5 30.5 78.5z" />
    <glyph glyph-name="Ograve" unicode="&#xd2;" horiz-adv-x="759" 
d="M708 354c0 51.333 -8.66797 99.667 -26.001 145s-40.833 84.833 -70.5 118.5s-64.5 60.167 -104.5 79.5s-82.667 29 -128 29c-48 0 -92 -10 -132 -30s-74.5 -47 -103.5 -81s-51.667 -73.5 -68 -118.5s-24.5 -92.5 -24.5 -142.5c0 -51.333 8.66699 -99.5 26 -144.5
s40.833 -84.333 70.5 -118s64.334 -60.167 104.001 -79.5s82.167 -29 127.5 -29s88 9.66699 128 29s74.833 45.833 104.5 79.5s53.167 73 70.5 118s26 93.167 26 144.5zM591.999 354.001c0 -50 -1.83301 -93 -5.5 -129s-9.16699 -66.5 -16.5 -91.5s-16.166 -46 -26.499 -63
s-22.5 -31.5 -36.5 -43.5c-17.333 -14.667 -36.5 -24.834 -57.5 -30.501s-44.5 -8.5 -70.5 -8.5s-49.5 2.83301 -70.5 8.5s-40.167 15.834 -57.5 30.501c-13.333 12 -25.333 26.5 -36 43.5s-19.5 38 -26.5 63s-12.333 55.5 -16 91.5s-5.5 79 -5.5 129
c0 88.667 7.16699 159.167 21.5 211.5s35.166 90.833 62.499 115.5c17.333 15.333 36.5 25.666 57.5 30.999s44.5 8 70.5 8s49.5 -2.66699 70.5 -8s40.167 -15.666 57.5 -30.999c28 -24.667 49.167 -63.167 63.5 -115.5s21.5 -122.833 21.5 -211.5zM416.999 779.001
c-23.333 5.33301 -42.5 13.166 -57.5 23.499s-27.667 21.333 -38 33s-18.833 23.667 -25.5 36l-18.5 34c-5.66699 10.333 -11.5 18.666 -17.5 24.999s-13.667 9.5 -23 9.5s-16.666 -2.83301 -21.999 -8.5s-8 -12.5 -8 -20.5c0 -9.33301 2.66699 -19.666 8 -30.999
s15.5 -23.166 30.5 -35.499s36.167 -24.5 63.5 -36.5s63 -23.333 107 -34c1.33301 -0.666992 2.16602 0 2.49902 2s-0.166992 3 -1.5 3z" />
    <glyph glyph-name="Oacute" unicode="&#xd3;" horiz-adv-x="759" 
d="M708 354c0 51.333 -8.66797 99.667 -26.001 145s-40.833 84.833 -70.5 118.5s-64.5 60.167 -104.5 79.5s-82.667 29 -128 29c-48 0 -92 -10 -132 -30s-74.5 -47 -103.5 -81s-51.667 -73.5 -68 -118.5s-24.5 -92.5 -24.5 -142.5c0 -51.333 8.66699 -99.5 26 -144.5
s40.833 -84.333 70.5 -118s64.334 -60.167 104.001 -79.5s82.167 -29 127.5 -29s88 9.66699 128 29s74.833 45.833 104.5 79.5s53.167 73 70.5 118s26 93.167 26 144.5zM591.999 354.001c0 -50 -1.83301 -93 -5.5 -129s-9.16699 -66.5 -16.5 -91.5s-16.166 -46 -26.499 -63
s-22.5 -31.5 -36.5 -43.5c-17.333 -14.667 -36.5 -24.834 -57.5 -30.501s-44.5 -8.5 -70.5 -8.5s-49.5 2.83301 -70.5 8.5s-40.167 15.834 -57.5 30.501c-13.333 12 -25.333 26.5 -36 43.5s-19.5 38 -26.5 63s-12.333 55.5 -16 91.5s-5.5 79 -5.5 129
c0 88.667 7.16699 159.167 21.5 211.5s35.166 90.833 62.499 115.5c17.333 15.333 36.5 25.666 57.5 30.999s44.5 8 70.5 8s49.5 -2.66699 70.5 -8s40.167 -15.666 57.5 -30.999c28 -24.667 49.167 -63.167 63.5 -115.5s21.5 -122.833 21.5 -211.5zM529.999 911.001
c0 8 -2.66895 14.833 -8.00195 20.5s-12.666 8.5 -21.999 8.5s-17 -3.16699 -23 -9.5s-11.833 -14.666 -17.5 -24.999l-18.5 -34c-6.66699 -12.333 -15.167 -24.333 -25.5 -36s-23.166 -22.667 -38.499 -33s-34.666 -18.166 -57.999 -23.499c-1.33301 0 -1.83301 -1 -1.5 -3
s1.16602 -2.66699 2.49902 -2c44 10.667 79.833 22 107.5 34s49 24.167 64 36.5s25.167 24.166 30.5 35.499s8 21.666 8 30.999z" />
    <glyph glyph-name="Ocircumflex" unicode="&#xd4;" horiz-adv-x="759" 
d="M708 354c0 51.333 -8.66797 99.667 -26.001 145s-40.833 84.833 -70.5 118.5s-64.5 60.167 -104.5 79.5s-82.667 29 -128 29c-48 0 -92 -10 -132 -30s-74.5 -47 -103.5 -81s-51.667 -73.5 -68 -118.5s-24.5 -92.5 -24.5 -142.5c0 -51.333 8.66699 -99.5 26 -144.5
s40.833 -84.333 70.5 -118s64.334 -60.167 104.001 -79.5s82.167 -29 127.5 -29s88 9.66699 128 29s74.833 45.833 104.5 79.5s53.167 73 70.5 118s26 93.167 26 144.5zM591.999 354.001c0 -50 -1.83301 -93 -5.5 -129s-9.16699 -66.5 -16.5 -91.5s-16.166 -46 -26.499 -63
s-22.5 -31.5 -36.5 -43.5c-17.333 -14.667 -36.5 -24.834 -57.5 -30.501s-44.5 -8.5 -70.5 -8.5s-49.5 2.83301 -70.5 8.5s-40.167 15.834 -57.5 30.501c-13.333 12 -25.333 26.5 -36 43.5s-19.5 38 -26.5 63s-12.333 55.5 -16 91.5s-5.5 79 -5.5 129
c0 88.667 7.16699 159.167 21.5 211.5s35.166 90.833 62.499 115.5c17.333 15.333 36.5 25.666 57.5 30.999s44.5 8 70.5 8s49.5 -2.66699 70.5 -8s40.167 -15.666 57.5 -30.999c28 -24.667 49.167 -63.167 63.5 -115.5s21.5 -122.833 21.5 -211.5zM506.999 788.001
l-72.5 85.5c-19.667 24.333 -36.167 46.833 -49.5 67.5c-1.33301 0.666992 -2.33301 0.666992 -3 0c-13.333 -20.667 -29.5 -43.167 -48.5 -67.5s-42.5 -52.833 -70.5 -85.5c-1.33301 -1.33301 -1.5 -2.5 -0.5 -3.5s2.16699 -1.16699 3.5 -0.5l113 85l124 -85
c1.33301 -0.666992 2.5 -0.5 3.5 0.5s1.16699 2.16699 0.5 3.5z" />
    <glyph glyph-name="Otilde" unicode="&#xd5;" horiz-adv-x="793" 
d="M708 354c0 51.333 -8.66797 99.667 -26.001 145s-40.833 84.833 -70.5 118.5s-64.5 60.167 -104.5 79.5s-82.667 29 -128 29c-48 0 -92 -10 -132 -30s-74.5 -47 -103.5 -81s-51.667 -73.5 -68 -118.5s-24.5 -92.5 -24.5 -142.5c0 -51.333 8.66699 -99.5 26 -144.5
s40.833 -84.333 70.5 -118s64.334 -60.167 104.001 -79.5s82.167 -29 127.5 -29s88 9.66699 128 29s74.833 45.833 104.5 79.5s53.167 73 70.5 118s26 93.167 26 144.5zM591.999 354.001c0 -50 -1.83301 -93 -5.5 -129s-9.16699 -66.5 -16.5 -91.5s-16.166 -46 -26.499 -63
s-22.5 -31.5 -36.5 -43.5c-17.333 -14.667 -36.5 -24.834 -57.5 -30.501s-44.5 -8.5 -70.5 -8.5s-49.5 2.83301 -70.5 8.5s-40.167 15.834 -57.5 30.501c-13.333 12 -25.333 26.5 -36 43.5s-19.5 38 -26.5 63s-12.333 55.5 -16 91.5s-5.5 79 -5.5 129
c0 88.667 7.16699 159.167 21.5 211.5s35.166 90.833 62.499 115.5c17.333 15.333 36.5 25.666 57.5 30.999s44.5 8 70.5 8s49.5 -2.66699 70.5 -8s40.167 -15.666 57.5 -30.999c28 -24.667 49.167 -63.167 63.5 -115.5s21.5 -122.833 21.5 -211.5zM549.999 926.001
c0 1.33301 -1 1.99805 -3 1.99805s-3 -0.666992 -3 -2c0 -21.333 -5 -38.666 -15 -51.999s-25 -20 -45 -20c-11.333 0 -23 3 -35 9s-24.5 12.833 -37.5 20.5s-27 14.5 -42 20.5s-30.833 9 -47.5 9c-30.667 0 -56.167 -9.83301 -76.5 -29.5s-30.5 -45.5 -30.5 -77.5
c0 -1.33301 1 -2 3 -2c2.66699 0 4 0.666992 4 2c0 20.667 5 37.667 15 51s24.667 20 44 20c10.667 0 22 -3.16699 34 -9.5l38 -20.5c13.333 -7.33301 27.333 -14.166 42 -20.499s30.667 -9.5 48 -9.5c30.667 0 56.167 10.167 76.5 30.5s30.5 46.5 30.5 78.5z" />
    <glyph glyph-name="Odieresis" unicode="&#xd6;" horiz-adv-x="759" 
d="M708 354c0 51.333 -8.66797 99.667 -26.001 145s-40.833 84.833 -70.5 118.5s-64.5 60.167 -104.5 79.5s-82.667 29 -128 29c-48 0 -92 -10 -132 -30s-74.5 -47 -103.5 -81s-51.667 -73.5 -68 -118.5s-24.5 -92.5 -24.5 -142.5c0 -51.333 8.66699 -99.5 26 -144.5
s40.833 -84.333 70.5 -118s64.334 -60.167 104.001 -79.5s82.167 -29 127.5 -29s88 9.66699 128 29s74.833 45.833 104.5 79.5s53.167 73 70.5 118s26 93.167 26 144.5zM591.999 354.001c0 -50 -1.83301 -93 -5.5 -129s-9.16699 -66.5 -16.5 -91.5s-16.166 -46 -26.499 -63
s-22.5 -31.5 -36.5 -43.5c-17.333 -14.667 -36.5 -24.834 -57.5 -30.501s-44.5 -8.5 -70.5 -8.5s-49.5 2.83301 -70.5 8.5s-40.167 15.834 -57.5 30.501c-13.333 12 -25.333 26.5 -36 43.5s-19.5 38 -26.5 63s-12.333 55.5 -16 91.5s-5.5 79 -5.5 129
c0 88.667 7.16699 159.167 21.5 211.5s35.166 90.833 62.499 115.5c17.333 15.333 36.5 25.666 57.5 30.999s44.5 8 70.5 8s49.5 -2.66699 70.5 -8s40.167 -15.666 57.5 -30.999c28 -24.667 49.167 -63.167 63.5 -115.5s21.5 -122.833 21.5 -211.5zM504.999 845.001
c0 12 -4 22.167 -12 30.5s-17.667 12.5 -29 12.5s-21 -4.16699 -29 -12.5s-12 -18.5 -12 -30.5c0 -11.333 4 -21.166 12 -29.499s17.667 -12.5 29 -12.5s21 4.16699 29 12.5s12 18.166 12 29.499zM330.999 845.001c0 12 -4 22.167 -12 30.5s-17.667 12.5 -29 12.5
s-21 -4.16699 -29 -12.5s-12 -18.5 -12 -30.5c0 -11.333 4 -21.166 12 -29.499s17.667 -12.5 29 -12.5s21 4.16699 29 12.5s12 18.166 12 29.499z" />
    <glyph glyph-name="Oslash" unicode="&#xd8;" horiz-adv-x="759" 
d="M708 354c0 63.333 -12.666 121.5 -37.999 174.5s-60 96.5 -104 130.5c0 0.666992 2.16699 4.5 6.5 11.5l14 22.5l13.5 22l6 10c0.666992 1.33301 0 2.66602 -2 3.99902s-3.33301 1.33301 -4 0l-6 -10l-13 -22l-13 -22c-4 -6.66699 -6 -10.334 -6 -11.001
c-26.667 20 -55.334 35.333 -86.001 46s-63 16 -97 16c-48 0 -92 -10 -132 -30s-74.5 -47 -103.5 -81s-51.667 -73.5 -68 -118.5s-24.5 -92.5 -24.5 -142.5c0 -63.333 12.833 -121.666 38.5 -174.999s60.167 -97 103.5 -131l-40 -68
c-0.666992 -1.33301 0 -2.66602 2 -3.99902s3.33301 -1.33301 4 0s3 5.33301 7 12l15.5 26.5l16.5 29.5c26 -19.333 54.167 -34.333 84.5 -45s62.5 -16 96.5 -16c45.333 0 88 9.66699 128 29s74.833 45.833 104.5 79.5s53.167 73 70.5 118s26 93.167 26 144.5zM544.001 634
l-332.999 -557c-14.667 26.667 -25.667 61.5 -33 104.5s-11 100.5 -11 172.5c0 88.667 7.16699 159.167 21.5 211.5s35.166 90.833 62.499 115.5c17.333 15.333 36.5 25.666 57.5 30.999s44.5 8 70.5 8s49.5 -2.66699 70.5 -8s40.167 -15.666 57.5 -30.999
c12.667 -11.333 25 -27 37 -47zM592.002 354c0 -50 -1.83594 -92.998 -5.50293 -128.998s-9.16699 -66.5 -16.5 -91.5s-16.166 -46 -26.499 -63s-22.5 -31.5 -36.5 -43.5c-17.333 -14.667 -36.5 -24.834 -57.5 -30.501s-44.5 -8.5 -70.5 -8.5s-49.5 2.83301 -70.5 8.5
s-40.167 15.834 -57.5 30.501c-14.667 13.333 -26.667 27.666 -36 42.999l18.5 31l47.5 80l64.5 109l70.5 118l65 108.5l47.5 79.5c11.667 19.333 17.834 29.666 18.501 30.999c14.667 -29.333 25.834 -66.333 33.501 -111s11.5 -98.667 11.5 -162z" />
    <glyph glyph-name="Ugrave" unicode="&#xd9;" horiz-adv-x="723" 
d="M713 703c1.33301 0 2.00098 0.99707 2.00098 2.99707s-0.666992 3 -2 3h-196c-1.33301 0 -2 -1 -2 -3s0.666992 -3 2 -3h88c4 0 6 -1.33301 6 -4v-489c0 -31.333 -4.16699 -60.166 -12.5 -86.499s-21 -48.833 -38 -67.5s-38.833 -33.167 -65.5 -43.5
s-58.334 -15.5 -95.001 -15.5c-116.667 0 -175 69.667 -175 209v493c0 2.66699 2 4 6 4h89c1.33301 0 2 1 2 3s-0.666992 3 -2 3h-300c-1.33301 0 -2 -1 -2 -3s0.666992 -3 2 -3h89c4 0 6 -1.33301 6 -4v-493c0 -37.333 6.33301 -70 19 -98s30.5 -51.167 53.5 -69.5
s50.5 -32.166 82.5 -41.499s67 -14 105 -14c42 0 78.333 5.33301 109 16s56 25.834 76 45.501s34.667 43.5 44 71.5s14 59.333 14 94v489c0 2.66699 2 4 6 4h89zM473.001 778.997c-23.333 5.33301 -42.5 13.166 -57.5 23.499s-27.667 21.333 -38 33s-18.833 23.667 -25.5 36
l-18.5 34c-5.66699 10.333 -11.5 18.666 -17.5 24.999s-13.667 9.5 -23 9.5s-16.666 -2.83301 -21.999 -8.5s-8 -12.5 -8 -20.5c0 -9.33301 2.66699 -19.666 8 -30.999s15.5 -23.166 30.5 -35.499s36.167 -24.5 63.5 -36.5s63 -23.333 107 -34
c1.33301 -0.666992 2.16602 0 2.49902 2s-0.166992 3 -1.5 3z" />
    <glyph glyph-name="Uacute" unicode="&#xda;" horiz-adv-x="723" 
d="M713 703c1.33301 0 2.00098 0.99707 2.00098 2.99707s-0.666992 3 -2 3h-196c-1.33301 0 -2 -1 -2 -3s0.666992 -3 2 -3h88c4 0 6 -1.33301 6 -4v-489c0 -31.333 -4.16699 -60.166 -12.5 -86.499s-21 -48.833 -38 -67.5s-38.833 -33.167 -65.5 -43.5
s-58.334 -15.5 -95.001 -15.5c-116.667 0 -175 69.667 -175 209v493c0 2.66699 2 4 6 4h89c1.33301 0 2 1 2 3s-0.666992 3 -2 3h-300c-1.33301 0 -2 -1 -2 -3s0.666992 -3 2 -3h89c4 0 6 -1.33301 6 -4v-493c0 -37.333 6.33301 -70 19 -98s30.5 -51.167 53.5 -69.5
s50.5 -32.166 82.5 -41.499s67 -14 105 -14c42 0 78.333 5.33301 109 16s56 25.834 76 45.501s34.667 43.5 44 71.5s14 59.333 14 94v489c0 2.66699 2 4 6 4h89zM541.001 910.997c0 8 -2.66895 14.833 -8.00195 20.5s-12.666 8.5 -21.999 8.5s-17 -3.16699 -23 -9.5
s-11.833 -14.666 -17.5 -24.999l-18.5 -34c-6.66699 -12.333 -15.167 -24.333 -25.5 -36s-23.166 -22.667 -38.499 -33s-34.666 -18.166 -57.999 -23.499c-1.33301 0 -1.83301 -1 -1.5 -3s1.16602 -2.66699 2.49902 -2c44 10.667 79.833 22 107.5 34s49 24.167 64 36.5
s25.167 24.166 30.5 35.499s8 21.666 8 30.999z" />
    <glyph glyph-name="Ucircumflex" unicode="&#xdb;" horiz-adv-x="723" 
d="M713 703c1.33301 0 2.00098 0.99707 2.00098 2.99707s-0.666992 3 -2 3h-196c-1.33301 0 -2 -1 -2 -3s0.666992 -3 2 -3h88c4 0 6 -1.33301 6 -4v-489c0 -31.333 -4.16699 -60.166 -12.5 -86.499s-21 -48.833 -38 -67.5s-38.833 -33.167 -65.5 -43.5
s-58.334 -15.5 -95.001 -15.5c-116.667 0 -175 69.667 -175 209v493c0 2.66699 2 4 6 4h89c1.33301 0 2 1 2 3s-0.666992 3 -2 3h-300c-1.33301 0 -2 -1 -2 -3s0.666992 -3 2 -3h89c4 0 6 -1.33301 6 -4v-493c0 -37.333 6.33301 -70 19 -98s30.5 -51.167 53.5 -69.5
s50.5 -32.166 82.5 -41.499s67 -14 105 -14c42 0 78.333 5.33301 109 16s56 25.834 76 45.501s34.667 43.5 44 71.5s14 59.333 14 94v489c0 2.66699 2 4 6 4h89zM517.001 787.997l-72.5 85.5c-19.667 24.333 -36.167 46.833 -49.5 67.5
c-1.33301 0.666992 -2.33301 0.666992 -3 0c-13.333 -20.667 -29.5 -43.167 -48.5 -67.5s-42.5 -52.833 -70.5 -85.5c-1.33301 -1.33301 -1.5 -2.5 -0.5 -3.5s2.16699 -1.16699 3.5 -0.5l113 85l124 -85c1.33301 -0.666992 2.5 -0.5 3.5 0.5s1.16699 2.16699 0.5 3.5z" />
    <glyph glyph-name="Udieresis" unicode="&#xdc;" horiz-adv-x="723" 
d="M713 703c1.33301 0 2.00098 0.99707 2.00098 2.99707s-0.666992 3 -2 3h-196c-1.33301 0 -2 -1 -2 -3s0.666992 -3 2 -3h88c4 0 6 -1.33301 6 -4v-489c0 -31.333 -4.16699 -60.166 -12.5 -86.499s-21 -48.833 -38 -67.5s-38.833 -33.167 -65.5 -43.5
s-58.334 -15.5 -95.001 -15.5c-116.667 0 -175 69.667 -175 209v493c0 2.66699 2 4 6 4h89c1.33301 0 2 1 2 3s-0.666992 3 -2 3h-300c-1.33301 0 -2 -1 -2 -3s0.666992 -3 2 -3h89c4 0 6 -1.33301 6 -4v-493c0 -37.333 6.33301 -70 19 -98s30.5 -51.167 53.5 -69.5
s50.5 -32.166 82.5 -41.499s67 -14 105 -14c42 0 78.333 5.33301 109 16s56 25.834 76 45.501s34.667 43.5 44 71.5s14 59.333 14 94v489c0 2.66699 2 4 6 4h89zM527.001 844.997c0 12 -4 22.167 -12 30.5s-17.667 12.5 -29 12.5s-21 -4.16699 -29 -12.5
s-12 -18.5 -12 -30.5c0 -11.333 4 -21.166 12 -29.499s17.667 -12.5 29 -12.5s21 4.16699 29 12.5s12 18.166 12 29.499zM353.001 844.997c0 12 -4 22.167 -12 30.5s-17.667 12.5 -29 12.5s-21 -4.16699 -29 -12.5s-12 -18.5 -12 -30.5c0 -11.333 4 -21.166 12 -29.499
s17.667 -12.5 29 -12.5s21 4.16699 29 12.5s12 18.166 12 29.499z" />
    <glyph glyph-name="germandbls" unicode="&#xdf;" horiz-adv-x="558" 
d="M504 193c0 24.667 -3.66895 50.165 -11.002 76.498s-18.333 50.333 -33 72s-33 39.334 -55 53.001s-47.333 20.5 -76 20.5h-16c-4.66699 0 -10.667 -0.666992 -18 -2c20 8 39 18 57 30s33.5 25.5 46.5 40.5s23.333 31.667 31 50s11.5 37.833 11.5 58.5
c0 24 -4.33301 45.5 -13 64.5s-20.5 34.833 -35.5 47.5s-32.667 22.334 -53 29.001s-42.5 10 -66.5 10c-24.667 0 -47.5 -5.33301 -68.5 -16s-39.167 -27.667 -54.5 -51s-27.333 -53.666 -36 -90.999s-13 -82.666 -13 -135.999v-440c0 -2.66699 -2 -4 -6 -4h-55
c-1.33301 0 -2 -1 -2 -3c0 -1.33301 0.666992 -2 2 -2h202c1.33301 0 2 0.666992 2 2c0 2 -0.666992 3 -2 3h-54c-4.66699 0 -7 1.33301 -7 4v607c0 22.667 2.5 41.667 7.5 57s11.833 27.833 20.5 37.5s18.5 16.5 29.5 20.5s22.5 6 34.5 6c35.333 0 60.333 -11.167 75 -33.5
s22 -58.5 22 -108.5c0 -27.333 -1.83301 -50.5 -5.5 -69.5s-9.5 -35.833 -17.5 -50.5s-18.667 -27.834 -32 -39.501s-30 -23.5 -50 -35.5c-1.33301 -0.666992 -1.5 -2 -0.5 -4s2.16699 -2.33301 3.5 -1c12.667 7.33301 25 11 37 11c20 0 37.667 -3.83301 53 -11.5
s28 -20.334 38 -38.001s17.5 -40.667 22.5 -69s7.5 -63.166 7.5 -104.499c0 -40.667 -1.83301 -73.334 -5.5 -98.001s-8.66699 -43.5 -15 -56.5s-14 -21.5 -23 -25.5s-18.5 -6 -28.5 -6c-14 0 -25.833 4.33301 -35.5 13s-14.5 21.667 -14.5 39c0 9.33301 1.5 16 4.5 20
s4.5 9.33301 4.5 16c0 9.33301 -3.33301 16.5 -10 21.5s-14.667 7.5 -24 7.5s-17 -3.33301 -23 -10s-9 -15.667 -9 -27c0 -23.333 9.66699 -43.5 29 -60.5s45.333 -25.5 78 -25.5c16 0 32.833 3.83301 50.5 11.5s33.834 19.667 48.501 36s26.834 37.333 36.501 63
s14.5 56.167 14.5 91.5z" />
    <glyph glyph-name="agrave" unicode="&#xe0;" horiz-adv-x="438" 
d="M429 30c0.666992 1.33301 0.169922 2.5 -1.49707 3.5s-2.5 0.833008 -2.5 -0.5c-2 -5.33301 -6.16699 -10.833 -12.5 -16.5s-13.833 -8.5 -22.5 -8.5c-7.33301 0 -13.5 2.66699 -18.5 8s-7.5 13.666 -7.5 24.999v213c0 62.667 -13.333 108.5 -40 137.5
s-65.667 43.5 -117 43.5c-19.333 0 -36.5 -2.5 -51.5 -7.5s-27.5 -11.167 -37.5 -18.5s-17.5 -15.5 -22.5 -24.5s-7.5 -17.833 -7.5 -26.5c0 -10.667 3 -20.5 9 -29.5s16.333 -13.5 31 -13.5c15.333 0 26.166 3.5 32.499 10.5s9.5 14.833 9.5 23.5
c0 7.33301 -1.16699 13.166 -3.5 17.499s-3.5 10.833 -3.5 19.5c0 15.333 4 26.333 12 33s18.667 10 32 10c8.66699 0 17.667 -1.5 27 -4.5s17.666 -8.16699 24.999 -15.5s13.333 -17.5 18 -30.5s7 -29.5 7 -49.5v-76c0 -5.33301 -3.5 -9.66602 -10.5 -12.999
s-16.167 -6 -27.5 -8s-23.833 -3.66699 -37.5 -5l-41.5 -4c-10 -1.33301 -22.167 -3.66602 -36.5 -6.99902s-28.333 -9.5 -42 -18.5s-25.334 -21.667 -35.001 -38s-14.5 -37.5 -14.5 -63.5c0 -20 3.83301 -36.667 11.5 -50s17.667 -24 30 -32s26.5 -13.667 42.5 -17
s32.333 -5 49 -5c26.667 0 51 5.66699 73 17s36.333 27.666 43 48.999c3.33301 -19.333 11.333 -35.166 24 -47.499s29.667 -18.5 51 -18.5c18.667 0 33.667 4 45 12s18.333 16.667 21 26zM284.003 76c0 -10 -2.66504 -19.501 -7.99805 -28.501s-12.333 -17 -21 -24
s-18.667 -12.5 -30 -16.5s-23 -6 -35 -6c-8.66699 0 -17.334 1.16699 -26.001 3.5s-16.5 6.83301 -23.5 13.5s-12.667 16.334 -17 29.001s-6.5 29 -6.5 49c0 22.667 2 41.5 6 56.5s9.16699 27 15.5 36s13.666 15.667 21.999 20s16.833 7.5 25.5 9.5
c7.33301 1.33301 15.5 2.33301 24.5 3s18 1.66699 27 3s17.5 3 25.5 5s15 5 21 9v-162zM325.005 523.999c-23.333 5.33301 -42.5 13.166 -57.5 23.499s-27.667 21.333 -38 33s-18.833 23.667 -25.5 36l-18.5 34c-5.66699 10.333 -11.5 18.666 -17.5 24.999
s-13.667 9.5 -23 9.5s-16.666 -2.83301 -21.999 -8.5s-8 -12.5 -8 -20.5c0 -9.33301 2.66699 -19.666 8 -30.999s15.5 -23.166 30.5 -35.499s36.167 -24.5 63.5 -36.5s63 -23.333 107 -34c1.33301 -0.666992 2.16602 0 2.49902 2s-0.166992 3 -1.5 3z" />
    <glyph glyph-name="aacute" unicode="&#xe1;" horiz-adv-x="438" 
d="M429 30c0.666992 1.33301 0.169922 2.5 -1.49707 3.5s-2.5 0.833008 -2.5 -0.5c-2 -5.33301 -6.16699 -10.833 -12.5 -16.5s-13.833 -8.5 -22.5 -8.5c-7.33301 0 -13.5 2.66699 -18.5 8s-7.5 13.666 -7.5 24.999v213c0 62.667 -13.333 108.5 -40 137.5
s-65.667 43.5 -117 43.5c-19.333 0 -36.5 -2.5 -51.5 -7.5s-27.5 -11.167 -37.5 -18.5s-17.5 -15.5 -22.5 -24.5s-7.5 -17.833 -7.5 -26.5c0 -10.667 3 -20.5 9 -29.5s16.333 -13.5 31 -13.5c15.333 0 26.166 3.5 32.499 10.5s9.5 14.833 9.5 23.5
c0 7.33301 -1.16699 13.166 -3.5 17.499s-3.5 10.833 -3.5 19.5c0 15.333 4 26.333 12 33s18.667 10 32 10c8.66699 0 17.667 -1.5 27 -4.5s17.666 -8.16699 24.999 -15.5s13.333 -17.5 18 -30.5s7 -29.5 7 -49.5v-76c0 -5.33301 -3.5 -9.66602 -10.5 -12.999
s-16.167 -6 -27.5 -8s-23.833 -3.66699 -37.5 -5l-41.5 -4c-10 -1.33301 -22.167 -3.66602 -36.5 -6.99902s-28.333 -9.5 -42 -18.5s-25.334 -21.667 -35.001 -38s-14.5 -37.5 -14.5 -63.5c0 -20 3.83301 -36.667 11.5 -50s17.667 -24 30 -32s26.5 -13.667 42.5 -17
s32.333 -5 49 -5c26.667 0 51 5.66699 73 17s36.333 27.666 43 48.999c3.33301 -19.333 11.333 -35.166 24 -47.499s29.667 -18.5 51 -18.5c18.667 0 33.667 4 45 12s18.333 16.667 21 26zM284.003 76c0 -10 -2.66504 -19.501 -7.99805 -28.501s-12.333 -17 -21 -24
s-18.667 -12.5 -30 -16.5s-23 -6 -35 -6c-8.66699 0 -17.334 1.16699 -26.001 3.5s-16.5 6.83301 -23.5 13.5s-12.667 16.334 -17 29.001s-6.5 29 -6.5 49c0 22.667 2 41.5 6 56.5s9.16699 27 15.5 36s13.666 15.667 21.999 20s16.833 7.5 25.5 9.5
c7.33301 1.33301 15.5 2.33301 24.5 3s18 1.66699 27 3s17.5 3 25.5 5s15 5 21 9v-162zM358.005 655.999c0 8 -2.66895 14.833 -8.00195 20.5s-12.666 8.5 -21.999 8.5s-17 -3.16699 -23 -9.5s-11.833 -14.666 -17.5 -24.999l-18.5 -34
c-6.66699 -12.333 -15.167 -24.333 -25.5 -36s-23.166 -22.667 -38.499 -33s-34.666 -18.166 -57.999 -23.499c-1.33301 0 -1.83301 -1 -1.5 -3s1.16602 -2.66699 2.49902 -2c44 10.667 79.833 22 107.5 34s49 24.167 64 36.5s25.167 24.166 30.5 35.499s8 21.666 8 30.999z
" />
    <glyph glyph-name="acircumflex" unicode="&#xe2;" horiz-adv-x="438" 
d="M429 30c0.666992 1.33301 0.169922 2.5 -1.49707 3.5s-2.5 0.833008 -2.5 -0.5c-2 -5.33301 -6.16699 -10.833 -12.5 -16.5s-13.833 -8.5 -22.5 -8.5c-7.33301 0 -13.5 2.66699 -18.5 8s-7.5 13.666 -7.5 24.999v213c0 62.667 -13.333 108.5 -40 137.5
s-65.667 43.5 -117 43.5c-19.333 0 -36.5 -2.5 -51.5 -7.5s-27.5 -11.167 -37.5 -18.5s-17.5 -15.5 -22.5 -24.5s-7.5 -17.833 -7.5 -26.5c0 -10.667 3 -20.5 9 -29.5s16.333 -13.5 31 -13.5c15.333 0 26.166 3.5 32.499 10.5s9.5 14.833 9.5 23.5
c0 7.33301 -1.16699 13.166 -3.5 17.499s-3.5 10.833 -3.5 19.5c0 15.333 4 26.333 12 33s18.667 10 32 10c8.66699 0 17.667 -1.5 27 -4.5s17.666 -8.16699 24.999 -15.5s13.333 -17.5 18 -30.5s7 -29.5 7 -49.5v-76c0 -5.33301 -3.5 -9.66602 -10.5 -12.999
s-16.167 -6 -27.5 -8s-23.833 -3.66699 -37.5 -5l-41.5 -4c-10 -1.33301 -22.167 -3.66602 -36.5 -6.99902s-28.333 -9.5 -42 -18.5s-25.334 -21.667 -35.001 -38s-14.5 -37.5 -14.5 -63.5c0 -20 3.83301 -36.667 11.5 -50s17.667 -24 30 -32s26.5 -13.667 42.5 -17
s32.333 -5 49 -5c26.667 0 51 5.66699 73 17s36.333 27.666 43 48.999c3.33301 -19.333 11.333 -35.166 24 -47.499s29.667 -18.5 51 -18.5c18.667 0 33.667 4 45 12s18.333 16.667 21 26zM284.003 76c0 -10 -2.66504 -19.501 -7.99805 -28.501s-12.333 -17 -21 -24
s-18.667 -12.5 -30 -16.5s-23 -6 -35 -6c-8.66699 0 -17.334 1.16699 -26.001 3.5s-16.5 6.83301 -23.5 13.5s-12.667 16.334 -17 29.001s-6.5 29 -6.5 49c0 22.667 2 41.5 6 56.5s9.16699 27 15.5 36s13.666 15.667 21.999 20s16.833 7.5 25.5 9.5
c7.33301 1.33301 15.5 2.33301 24.5 3s18 1.66699 27 3s17.5 3 25.5 5s15 5 21 9v-162zM347.005 532.999l-72.5 85.5c-19.667 24.333 -36.167 46.833 -49.5 67.5c-1.33301 0.666992 -2.33301 0.666992 -3 0c-13.333 -20.667 -29.5 -43.167 -48.5 -67.5
s-42.5 -52.833 -70.5 -85.5c-1.33301 -1.33301 -1.5 -2.5 -0.5 -3.5s2.16699 -1.16699 3.5 -0.5l113 85l124 -85c1.33301 -0.666992 2.5 -0.5 3.5 0.5s1.16699 2.16699 0.5 3.5z" />
    <glyph glyph-name="atilde" unicode="&#xe3;" horiz-adv-x="438" 
d="M429 30c0.666992 1.33301 0.169922 2.5 -1.49707 3.5s-2.5 0.833008 -2.5 -0.5c-2 -5.33301 -6.16699 -10.833 -12.5 -16.5s-13.833 -8.5 -22.5 -8.5c-7.33301 0 -13.5 2.66699 -18.5 8s-7.5 13.666 -7.5 24.999v213c0 62.667 -13.333 108.5 -40 137.5
s-65.667 43.5 -117 43.5c-19.333 0 -36.5 -2.5 -51.5 -7.5s-27.5 -11.167 -37.5 -18.5s-17.5 -15.5 -22.5 -24.5s-7.5 -17.833 -7.5 -26.5c0 -10.667 3 -20.5 9 -29.5s16.333 -13.5 31 -13.5c15.333 0 26.166 3.5 32.499 10.5s9.5 14.833 9.5 23.5
c0 7.33301 -1.16699 13.166 -3.5 17.499s-3.5 10.833 -3.5 19.5c0 15.333 4 26.333 12 33s18.667 10 32 10c8.66699 0 17.667 -1.5 27 -4.5s17.666 -8.16699 24.999 -15.5s13.333 -17.5 18 -30.5s7 -29.5 7 -49.5v-76c0 -5.33301 -3.5 -9.66602 -10.5 -12.999
s-16.167 -6 -27.5 -8s-23.833 -3.66699 -37.5 -5l-41.5 -4c-10 -1.33301 -22.167 -3.66602 -36.5 -6.99902s-28.333 -9.5 -42 -18.5s-25.334 -21.667 -35.001 -38s-14.5 -37.5 -14.5 -63.5c0 -20 3.83301 -36.667 11.5 -50s17.667 -24 30 -32s26.5 -13.667 42.5 -17
s32.333 -5 49 -5c26.667 0 51 5.66699 73 17s36.333 27.666 43 48.999c3.33301 -19.333 11.333 -35.166 24 -47.499s29.667 -18.5 51 -18.5c18.667 0 33.667 4 45 12s18.333 16.667 21 26zM284.003 76c0 -10 -2.66504 -19.501 -7.99805 -28.501s-12.333 -17 -21 -24
s-18.667 -12.5 -30 -16.5s-23 -6 -35 -6c-8.66699 0 -17.334 1.16699 -26.001 3.5s-16.5 6.83301 -23.5 13.5s-12.667 16.334 -17 29.001s-6.5 29 -6.5 49c0 22.667 2 41.5 6 56.5s9.16699 27 15.5 36s13.666 15.667 21.999 20s16.833 7.5 25.5 9.5
c7.33301 1.33301 15.5 2.33301 24.5 3s18 1.66699 27 3s17.5 3 25.5 5s15 5 21 9v-162zM403.005 670.999c0 1.33301 -1 1.99805 -3 1.99805s-3 -0.666992 -3 -2c0 -21.333 -5 -38.666 -15 -51.999s-25 -20 -45 -20c-11.333 0 -23 3 -35 9s-24.5 12.833 -37.5 20.5
s-27 14.5 -42 20.5s-30.833 9 -47.5 9c-30.667 0 -56.167 -9.83301 -76.5 -29.5s-30.5 -45.5 -30.5 -77.5c0 -1.33301 1 -2 3 -2c2.66699 0 4 0.666992 4 2c0 20.667 5 37.667 15 51s24.667 20 44 20c10.667 0 22 -3.16699 34 -9.5l38 -20.5
c13.333 -7.33301 27.333 -14.166 42 -20.499s30.667 -9.5 48 -9.5c30.667 0 56.167 10.167 76.5 30.5s30.5 46.5 30.5 78.5z" />
    <glyph glyph-name="adieresis" unicode="&#xe4;" horiz-adv-x="438" 
d="M429 30c0.666992 1.33301 0.169922 2.5 -1.49707 3.5s-2.5 0.833008 -2.5 -0.5c-2 -5.33301 -6.16699 -10.833 -12.5 -16.5s-13.833 -8.5 -22.5 -8.5c-7.33301 0 -13.5 2.66699 -18.5 8s-7.5 13.666 -7.5 24.999v213c0 62.667 -13.333 108.5 -40 137.5
s-65.667 43.5 -117 43.5c-19.333 0 -36.5 -2.5 -51.5 -7.5s-27.5 -11.167 -37.5 -18.5s-17.5 -15.5 -22.5 -24.5s-7.5 -17.833 -7.5 -26.5c0 -10.667 3 -20.5 9 -29.5s16.333 -13.5 31 -13.5c15.333 0 26.166 3.5 32.499 10.5s9.5 14.833 9.5 23.5
c0 7.33301 -1.16699 13.166 -3.5 17.499s-3.5 10.833 -3.5 19.5c0 15.333 4 26.333 12 33s18.667 10 32 10c8.66699 0 17.667 -1.5 27 -4.5s17.666 -8.16699 24.999 -15.5s13.333 -17.5 18 -30.5s7 -29.5 7 -49.5v-76c0 -5.33301 -3.5 -9.66602 -10.5 -12.999
s-16.167 -6 -27.5 -8s-23.833 -3.66699 -37.5 -5l-41.5 -4c-10 -1.33301 -22.167 -3.66602 -36.5 -6.99902s-28.333 -9.5 -42 -18.5s-25.334 -21.667 -35.001 -38s-14.5 -37.5 -14.5 -63.5c0 -20 3.83301 -36.667 11.5 -50s17.667 -24 30 -32s26.5 -13.667 42.5 -17
s32.333 -5 49 -5c26.667 0 51 5.66699 73 17s36.333 27.666 43 48.999c3.33301 -19.333 11.333 -35.166 24 -47.499s29.667 -18.5 51 -18.5c18.667 0 33.667 4 45 12s18.333 16.667 21 26zM284.003 76c0 -10 -2.66504 -19.501 -7.99805 -28.501s-12.333 -17 -21 -24
s-18.667 -12.5 -30 -16.5s-23 -6 -35 -6c-8.66699 0 -17.334 1.16699 -26.001 3.5s-16.5 6.83301 -23.5 13.5s-12.667 16.334 -17 29.001s-6.5 29 -6.5 49c0 22.667 2 41.5 6 56.5s9.16699 27 15.5 36s13.666 15.667 21.999 20s16.833 7.5 25.5 9.5
c7.33301 1.33301 15.5 2.33301 24.5 3s18 1.66699 27 3s17.5 3 25.5 5s15 5 21 9v-162zM359.005 589.999c0 12 -4 22.167 -12 30.5s-17.667 12.5 -29 12.5s-21 -4.16699 -29 -12.5s-12 -18.5 -12 -30.5c0 -11.333 4 -21.166 12 -29.499s17.667 -12.5 29 -12.5
s21 4.16699 29 12.5s12 18.166 12 29.499zM185.005 589.999c0 12 -4 22.167 -12 30.5s-17.667 12.5 -29 12.5s-21 -4.16699 -29 -12.5s-12 -18.5 -12 -30.5c0 -11.333 4 -21.166 12 -29.499s17.667 -12.5 29 -12.5s21 4.16699 29 12.5s12 18.166 12 29.499z" />
    <glyph glyph-name="aring" unicode="&#xe5;" horiz-adv-x="438" 
d="M429 30c0.666992 1.33301 0.169922 2.5 -1.49707 3.5s-2.5 0.833008 -2.5 -0.5c-2 -5.33301 -6.16699 -10.833 -12.5 -16.5s-13.833 -8.5 -22.5 -8.5c-7.33301 0 -13.5 2.66699 -18.5 8s-7.5 13.666 -7.5 24.999v213c0 62.667 -13.333 108.5 -40 137.5
s-65.667 43.5 -117 43.5c-19.333 0 -36.5 -2.5 -51.5 -7.5s-27.5 -11.167 -37.5 -18.5s-17.5 -15.5 -22.5 -24.5s-7.5 -17.833 -7.5 -26.5c0 -10.667 3 -20.5 9 -29.5s16.333 -13.5 31 -13.5c15.333 0 26.166 3.5 32.499 10.5s9.5 14.833 9.5 23.5
c0 7.33301 -1.16699 13.166 -3.5 17.499s-3.5 10.833 -3.5 19.5c0 15.333 4 26.333 12 33s18.667 10 32 10c8.66699 0 17.667 -1.5 27 -4.5s17.666 -8.16699 24.999 -15.5s13.333 -17.5 18 -30.5s7 -29.5 7 -49.5v-76c0 -5.33301 -3.5 -9.66602 -10.5 -12.999
s-16.167 -6 -27.5 -8s-23.833 -3.66699 -37.5 -5l-41.5 -4c-10 -1.33301 -22.167 -3.66602 -36.5 -6.99902s-28.333 -9.5 -42 -18.5s-25.334 -21.667 -35.001 -38s-14.5 -37.5 -14.5 -63.5c0 -20 3.83301 -36.667 11.5 -50s17.667 -24 30 -32s26.5 -13.667 42.5 -17
s32.333 -5 49 -5c26.667 0 51 5.66699 73 17s36.333 27.666 43 48.999c3.33301 -19.333 11.333 -35.166 24 -47.499s29.667 -18.5 51 -18.5c18.667 0 33.667 4 45 12s18.333 16.667 21 26zM284.003 76c0 -10 -2.66504 -19.501 -7.99805 -28.501s-12.333 -17 -21 -24
s-18.667 -12.5 -30 -16.5s-23 -6 -35 -6c-8.66699 0 -17.334 1.16699 -26.001 3.5s-16.5 6.83301 -23.5 13.5s-12.667 16.334 -17 29.001s-6.5 29 -6.5 49c0 22.667 2 41.5 6 56.5s9.16699 27 15.5 36s13.666 15.667 21.999 20s16.833 7.5 25.5 9.5
c7.33301 1.33301 15.5 2.33301 24.5 3s18 1.66699 27 3s17.5 3 25.5 5s15 5 21 9v-162zM300.005 607.999c0 21.333 -7.5 39.5 -22.5 54.5s-33.167 22.5 -54.5 22.5s-39.5 -7.5 -54.5 -22.5s-22.5 -33.167 -22.5 -54.5s7.5 -39.5 22.5 -54.5s33.167 -22.5 54.5 -22.5
s39.5 7.5 54.5 22.5s22.5 33.167 22.5 54.5zM293.005 607.999c0 -19.333 -6.83301 -36 -20.5 -50s-30.167 -21 -49.5 -21s-35.666 7 -48.999 21s-20 30.667 -20 50s6.66699 36 20 50s29.666 21 48.999 21s35.833 -7 49.5 -21s20.5 -30.667 20.5 -50z" />
    <glyph glyph-name="ae" unicode="&#xe6;" horiz-adv-x="689" 
d="M655 241c0 18.667 -3.33594 39.3301 -10.0029 61.9971s-17 43.834 -31 63.501s-32.167 36.167 -54.5 49.5s-49.166 20 -80.499 20c-28 0 -54.667 -5.83301 -80 -17.5s-45.666 -28.5 -60.999 -50.5c-9.33301 24 -26 41.333 -50 52s-51.333 16 -82 16
c-19.333 0 -36.333 -2.5 -51 -7.5s-27 -11.167 -37 -18.5s-17.5 -15.5 -22.5 -24.5s-7.5 -17.833 -7.5 -26.5c0 -10.667 3 -20.5 9 -29.5s16 -13.5 30 -13.5c15.333 0 26.333 3.5 33 10.5s10 14.833 10 23.5c0 7.33301 -1.33301 13.166 -4 17.499s-4 10.833 -4 19.5
c0 15.333 4 26.333 12 33s18.667 10 32 10c9.33301 0 18.5 -1.5 27.5 -4.5s17.167 -8.16699 24.5 -15.5s13.333 -17.5 18 -30.5s7 -29.5 7 -49.5v-76c0 -5.33301 -3.5 -9.66602 -10.5 -12.999s-16.167 -6 -27.5 -8s-23.833 -3.66699 -37.5 -5l-41.5 -4
c-10 -1.33301 -22.167 -3.66602 -36.5 -6.99902s-28.166 -9.5 -41.499 -18.5s-24.833 -21.667 -34.5 -38s-14.5 -37.5 -14.5 -63.5c0 -20 3.83301 -36.667 11.5 -50s17.667 -24 30 -32s26.333 -13.833 42 -17.5s31.834 -5.5 48.501 -5.5c15.333 0 30.166 2.66699 44.499 8
s27 12.333 38 21s19.833 18.834 26.5 30.501s10.334 23.834 11.001 36.501c18 -32.667 44.167 -56.834 78.5 -72.501s70.833 -23.5 109.5 -23.5c35.333 0 67 8.66699 95 26s51.333 40.333 70 69c1.33301 1.33301 1.16602 2.33301 -0.500977 3s-2.83398 0.666992 -3.50098 0
c-17.333 -27.333 -39.5 -49.5 -66.5 -66.5s-58.5 -25.5 -94.5 -25.5c-13.333 0 -26.333 1.66699 -39 5s-24.334 9.33301 -35.001 18c-8 7.33301 -14.667 15.833 -20 25.5s-9.66602 22 -12.999 37s-5.66602 33 -6.99902 54s-2 46.5 -2 76.5v24h289c2 0 3 1 3 3z
M573.997 244.996h-211.001c1.33301 43.333 5 77.833 11 103.5s16.333 45.167 31 58.5c10.667 8.66699 22.334 14.667 35.001 18s25.667 5 39 5c11.333 0 22.166 -1.66699 32.499 -5s19.5 -9.33301 27.5 -18c12.667 -13.333 21.334 -32.833 26.001 -58.5
s7.66699 -60.167 9 -103.5zM282.996 87.9961c0 -10.667 -2.83105 -21.167 -8.49805 -31.5s-13 -19.5 -22 -27.5s-19.167 -14.5 -30.5 -19.5s-22.333 -7.5 -33 -7.5c-8.66699 0 -17.167 1.16699 -25.5 3.5s-16 6.83301 -23 13.5s-12.667 16.167 -17 28.5
s-6.5 28.833 -6.5 49.5c0 22.667 2 41.5 6 56.5s9.16699 27 15.5 36s13.666 15.667 21.999 20s16.5 7.5 24.5 9.5c7.33301 1.33301 15.5 2.33301 24.5 3s18 1.66699 27 3s17.667 3 26 5s15.166 5 20.499 9v-151z" />
    <glyph glyph-name="ccedilla" unicode="&#xe7;" horiz-adv-x="432" 
d="M413 85c0.666992 1.33301 0.499023 2.49707 -0.500977 3.49707s-1.83301 1.16699 -2.5 0.5c-17.333 -28 -39.5 -50.5 -66.5 -67.5s-58.5 -25.5 -94.5 -25.5c-13.333 0 -27 1.66699 -41 5s-26 9.33301 -36 18c-8 7.33301 -15.167 16 -21.5 26s-11.666 22.5 -15.999 37.5
s-7.5 33 -9.5 54s-3 46.5 -3 76.5s1 55.5 3 76.5s5.16699 39 9.5 54s9.66602 27.333 15.999 37s13.5 18.167 21.5 25.5c10 9.33301 22 15.5 36 18.5s27.667 4.5 41 4.5c24.667 0 41.334 -3.33301 50.001 -10s13 -18.667 13 -36c0 -7.33301 -0.5 -12.833 -1.5 -16.5
s-2.33301 -7 -4 -10s-3 -6 -4 -9s-1.5 -7.5 -1.5 -13.5c0 -9.33301 3.5 -17.5 10.5 -24.5s16.5 -10.5 28.5 -10.5s21.833 3.33301 29.5 10s11.5 17.334 11.5 32.001c0 11.333 -2.5 22.5 -7.5 33.5s-13 21 -24 30s-24.833 16.333 -41.5 22s-36.334 8.5 -59.001 8.5
c-28.667 0 -55.667 -5.83301 -81 -17.5s-47.333 -27.5 -66 -47.5s-33.5 -43.5 -44.5 -70.5s-16.5 -55.833 -16.5 -86.5c0 -29.333 5.16699 -57.166 15.5 -83.499s24.333 -49.5 42 -69.5s38.5 -36.167 62.5 -48.5s49.667 -19.166 77 -20.499
c-4.66699 -6.66699 -9.16699 -16.334 -13.5 -29.001s-6.5 -25.334 -6.5 -38.001c0 -17.333 4 -30.166 12 -38.499s17 -15 27 -20s19 -9.83301 27 -14.5s12 -11.334 12 -20.001c0 -15.333 -5.5 -27.666 -16.5 -36.999s-25.167 -14 -42.5 -14c-18 0 -27 6.66699 -27 20
c0 5.33301 1.83301 9 5.5 11s5.5 6.66699 5.5 14s-2.16699 12.666 -6.5 15.999s-9.83301 5 -16.5 5c-7.33301 0 -13.166 -2.5 -17.499 -7.5s-6.5 -10.833 -6.5 -17.5c0 -9.33301 5.33301 -19.5 16 -30.5s26.334 -16.5 47.001 -16.5c22 0 39.167 6.33301 51.5 19
s18.5 30.334 18.5 53.001c0 18 -3.83301 31.333 -11.5 40s-16.334 16 -26.001 22s-18.334 12 -26.001 18s-11.5 15 -11.5 27c0 6.66699 1.33301 13.834 4 21.501s5.33398 13.167 8.00098 16.5c38 0 70.833 8.33301 98.5 25s51.167 39.667 70.5 69z" />
    <glyph glyph-name="egrave" unicode="&#xe8;" horiz-adv-x="452" 
d="M418 240c0 18.667 -3.33398 39.333 -10.001 62s-17 43.834 -31 63.501s-32.167 36.167 -54.5 49.5s-49.166 20 -80.499 20c-28.667 0 -55.334 -5.83301 -80.001 -17.5s-46 -27.667 -64 -48s-32 -44 -42 -71s-15 -55.833 -15 -86.5s5 -59.334 15 -86.001s24 -50 42 -70
s39.333 -35.833 64 -47.5s51.334 -17.5 80.001 -17.5c35.333 0 67 8.66699 95 26s51.333 40.333 70 69c0.666992 1.33301 0.333984 2.33301 -0.999023 3s-2.33301 0.666992 -3 0c-17.333 -28 -39.5 -50.5 -66.5 -67.5s-58.5 -25.5 -94.5 -25.5
c-13.333 0 -26.333 1.66699 -39 5s-24.334 9.33301 -35.001 18c-8 7.33301 -14.667 16 -20 26s-9.83301 22.5 -13.5 37.5s-6.16699 33 -7.5 54s-2 46.167 -2 75.5v13c0 4 0.333008 8 1 12h289c2 0 3 1 3 3zM336.999 242.999h-211.002c1.33301 43.333 5 78 11 104
s16.333 45.667 31 59c10.667 9.33301 22.334 15.5 35.001 18.5s25.667 4.5 39 4.5c11.333 0 22 -1.5 32 -4.5s19.333 -9.16699 28 -18.5c12.667 -13.333 21.334 -33 26.001 -59s7.66699 -60.667 9 -104zM325.997 523.999c-23.333 5.33301 -42.5 13.166 -57.5 23.499
s-27.667 21.333 -38 33s-18.833 23.667 -25.5 36l-18.5 34c-5.66699 10.333 -11.5 18.666 -17.5 24.999s-13.667 9.5 -23 9.5s-16.666 -2.83301 -21.999 -8.5s-8 -12.5 -8 -20.5c0 -9.33301 2.66699 -19.666 8 -30.999s15.5 -23.166 30.5 -35.499s36.167 -24.5 63.5 -36.5
s63 -23.333 107 -34c1.33301 -0.666992 2.16602 0 2.49902 2s-0.166992 3 -1.5 3z" />
    <glyph glyph-name="eacute" unicode="&#xe9;" horiz-adv-x="452" 
d="M418 240c0 18.667 -3.33398 39.333 -10.001 62s-17 43.834 -31 63.501s-32.167 36.167 -54.5 49.5s-49.166 20 -80.499 20c-28.667 0 -55.334 -5.83301 -80.001 -17.5s-46 -27.667 -64 -48s-32 -44 -42 -71s-15 -55.833 -15 -86.5s5 -59.334 15 -86.001s24 -50 42 -70
s39.333 -35.833 64 -47.5s51.334 -17.5 80.001 -17.5c35.333 0 67 8.66699 95 26s51.333 40.333 70 69c0.666992 1.33301 0.333984 2.33301 -0.999023 3s-2.33301 0.666992 -3 0c-17.333 -28 -39.5 -50.5 -66.5 -67.5s-58.5 -25.5 -94.5 -25.5
c-13.333 0 -26.333 1.66699 -39 5s-24.334 9.33301 -35.001 18c-8 7.33301 -14.667 16 -20 26s-9.83301 22.5 -13.5 37.5s-6.16699 33 -7.5 54s-2 46.167 -2 75.5v13c0 4 0.333008 8 1 12h289c2 0 3 1 3 3zM336.999 242.999h-211.002c1.33301 43.333 5 78 11 104
s16.333 45.667 31 59c10.667 9.33301 22.334 15.5 35.001 18.5s25.667 4.5 39 4.5c11.333 0 22 -1.5 32 -4.5s19.333 -9.16699 28 -18.5c12.667 -13.333 21.334 -33 26.001 -59s7.66699 -60.667 9 -104zM389.997 655.999c0 8 -2.66895 14.833 -8.00195 20.5
s-12.666 8.5 -21.999 8.5s-17 -3.16699 -23 -9.5s-11.833 -14.666 -17.5 -24.999l-18.5 -34c-6.66699 -12.333 -15.167 -24.333 -25.5 -36s-23.166 -22.667 -38.499 -33s-34.666 -18.166 -57.999 -23.499c-1.33301 0 -1.83301 -1 -1.5 -3s1.16602 -2.66699 2.49902 -2
c44 10.667 79.833 22 107.5 34s49 24.167 64 36.5s25.167 24.166 30.5 35.499s8 21.666 8 30.999z" />
    <glyph glyph-name="ecircumflex" unicode="&#xea;" horiz-adv-x="452" 
d="M418 240c0 18.667 -3.33398 39.333 -10.001 62s-17 43.834 -31 63.501s-32.167 36.167 -54.5 49.5s-49.166 20 -80.499 20c-28.667 0 -55.334 -5.83301 -80.001 -17.5s-46 -27.667 -64 -48s-32 -44 -42 -71s-15 -55.833 -15 -86.5s5 -59.334 15 -86.001s24 -50 42 -70
s39.333 -35.833 64 -47.5s51.334 -17.5 80.001 -17.5c35.333 0 67 8.66699 95 26s51.333 40.333 70 69c0.666992 1.33301 0.333984 2.33301 -0.999023 3s-2.33301 0.666992 -3 0c-17.333 -28 -39.5 -50.5 -66.5 -67.5s-58.5 -25.5 -94.5 -25.5
c-13.333 0 -26.333 1.66699 -39 5s-24.334 9.33301 -35.001 18c-8 7.33301 -14.667 16 -20 26s-9.83301 22.5 -13.5 37.5s-6.16699 33 -7.5 54s-2 46.167 -2 75.5v13c0 4 0.333008 8 1 12h289c2 0 3 1 3 3zM336.999 242.999h-211.002c1.33301 43.333 5 78 11 104
s16.333 45.667 31 59c10.667 9.33301 22.334 15.5 35.001 18.5s25.667 4.5 39 4.5c11.333 0 22 -1.5 32 -4.5s19.333 -9.16699 28 -18.5c12.667 -13.333 21.334 -33 26.001 -59s7.66699 -60.667 9 -104zM371.997 532.999l-72.5 85.5
c-19.667 24.333 -36.167 46.833 -49.5 67.5c-1.33301 0.666992 -2.33301 0.666992 -3 0c-13.333 -20.667 -29.5 -43.167 -48.5 -67.5s-42.5 -52.833 -70.5 -85.5c-1.33301 -1.33301 -1.5 -2.5 -0.5 -3.5s2.16699 -1.16699 3.5 -0.5l113 85l124 -85
c1.33301 -0.666992 2.5 -0.5 3.5 0.5s1.16699 2.16699 0.5 3.5z" />
    <glyph glyph-name="edieresis" unicode="&#xeb;" horiz-adv-x="452" 
d="M418 240c0 18.667 -3.33398 39.333 -10.001 62s-17 43.834 -31 63.501s-32.167 36.167 -54.5 49.5s-49.166 20 -80.499 20c-28.667 0 -55.334 -5.83301 -80.001 -17.5s-46 -27.667 -64 -48s-32 -44 -42 -71s-15 -55.833 -15 -86.5s5 -59.334 15 -86.001s24 -50 42 -70
s39.333 -35.833 64 -47.5s51.334 -17.5 80.001 -17.5c35.333 0 67 8.66699 95 26s51.333 40.333 70 69c0.666992 1.33301 0.333984 2.33301 -0.999023 3s-2.33301 0.666992 -3 0c-17.333 -28 -39.5 -50.5 -66.5 -67.5s-58.5 -25.5 -94.5 -25.5
c-13.333 0 -26.333 1.66699 -39 5s-24.334 9.33301 -35.001 18c-8 7.33301 -14.667 16 -20 26s-9.83301 22.5 -13.5 37.5s-6.16699 33 -7.5 54s-2 46.167 -2 75.5v13c0 4 0.333008 8 1 12h289c2 0 3 1 3 3zM336.999 242.999h-211.002c1.33301 43.333 5 78 11 104
s16.333 45.667 31 59c10.667 9.33301 22.334 15.5 35.001 18.5s25.667 4.5 39 4.5c11.333 0 22 -1.5 32 -4.5s19.333 -9.16699 28 -18.5c12.667 -13.333 21.334 -33 26.001 -59s7.66699 -60.667 9 -104zM372.997 589.999c0 12 -4 22.167 -12 30.5s-17.667 12.5 -29 12.5
s-21 -4.16699 -29 -12.5s-12 -18.5 -12 -30.5c0 -11.333 4 -21.166 12 -29.499s17.667 -12.5 29 -12.5s21 4.16699 29 12.5s12 18.166 12 29.499zM198.997 589.999c0 12 -4 22.167 -12 30.5s-17.667 12.5 -29 12.5s-21 -4.16699 -29 -12.5s-12 -18.5 -12 -30.5
c0 -11.333 4 -21.166 12 -29.499s17.667 -12.5 29 -12.5s21 4.16699 29 12.5s12 18.166 12 29.499z" />
    <glyph glyph-name="igrave" unicode="&#xec;" horiz-adv-x="253" 
d="M234 0c1.33301 0 2 1 2 3s-0.666992 3 -2 3h-55c-4.66699 0 -7 1.33301 -7 4v413c0 2 -0.666992 3 -2 3h-139c-1.33301 0 -2 -1 -2 -3s0.666992 -3 2 -3h55c4 0 6 -1.33301 6 -4v-406c0 -2.66699 -2 -4 -6 -4h-55c-1.33301 0 -2 -1 -2 -3s0.666992 -3 2 -3h203zM209 524
c-23.333 5.33301 -42.5 13.166 -57.5 23.499s-27.667 21.333 -38 33s-18.833 23.667 -25.5 36l-18.5 34c-5.66699 10.333 -11.5 18.666 -17.5 24.999s-13.667 9.5 -23 9.5s-16.666 -2.83301 -21.999 -8.5s-8 -12.5 -8 -20.5c0 -9.33301 2.66699 -19.666 8 -30.999
s15.5 -23.166 30.5 -35.499s36.167 -24.5 63.5 -36.5s63 -23.333 107 -34c1.33301 -0.666992 2.16602 0 2.49902 2s-0.166992 3 -1.5 3z" />
    <glyph glyph-name="iacute" unicode="&#xed;" horiz-adv-x="253" 
d="M234 0c1.33301 0 2 1 2 3s-0.666992 3 -2 3h-55c-4.66699 0 -7 1.33301 -7 4v413c0 2 -0.666992 3 -2 3h-139c-1.33301 0 -2 -1 -2 -3s0.666992 -3 2 -3h55c4 0 6 -1.33301 6 -4v-406c0 -2.66699 -2 -4 -6 -4h-55c-1.33301 0 -2 -1 -2 -3s0.666992 -3 2 -3h203zM289 656
c0 8 -2.66895 14.833 -8.00195 20.5s-12.666 8.5 -21.999 8.5s-17 -3.16699 -23 -9.5s-11.833 -14.666 -17.5 -24.999l-18.5 -34c-6.66699 -12.333 -15.167 -24.333 -25.5 -36s-23.166 -22.667 -38.499 -33s-34.666 -18.166 -57.999 -23.499c-1.33301 0 -1.83301 -1 -1.5 -3
s1.16602 -2.66699 2.49902 -2c44 10.667 79.833 22 107.5 34s49 24.167 64 36.5s25.167 24.166 30.5 35.499s8 21.666 8 30.999z" />
    <glyph glyph-name="icircumflex" unicode="&#xee;" horiz-adv-x="253" 
d="M234 0c1.33301 0 2 1 2 3s-0.666992 3 -2 3h-55c-4.66699 0 -7 1.33301 -7 4v413c0 2 -0.666992 3 -2 3h-139c-1.33301 0 -2 -1 -2 -3s0.666992 -3 2 -3h55c4 0 6 -1.33301 6 -4v-406c0 -2.66699 -2 -4 -6 -4h-55c-1.33301 0 -2 -1 -2 -3s0.666992 -3 2 -3h203zM250 533
l-72.5 85.5c-19.667 24.333 -36.167 46.833 -49.5 67.5c-1.33301 0.666992 -2.33301 0.666992 -3 0c-13.333 -20.667 -29.5 -43.167 -48.5 -67.5s-42.5 -52.833 -70.5 -85.5c-1.33301 -1.33301 -1.5 -2.5 -0.5 -3.5s2.16699 -1.16699 3.5 -0.5l113 85l124 -85
c1.33301 -0.666992 2.5 -0.5 3.5 0.5s1.16699 2.16699 0.5 3.5z" />
    <glyph glyph-name="idieresis" unicode="&#xef;" horiz-adv-x="253" 
d="M234 0c1.33301 0 2 1 2 3s-0.666992 3 -2 3h-55c-4.66699 0 -7 1.33301 -7 4v413c0 2 -0.666992 3 -2 3h-139c-1.33301 0 -2 -1 -2 -3s0.666992 -3 2 -3h55c4 0 6 -1.33301 6 -4v-406c0 -2.66699 -2 -4 -6 -4h-55c-1.33301 0 -2 -1 -2 -3s0.666992 -3 2 -3h203zM265 590
c0 12 -4 22.167 -12 30.5s-17.667 12.5 -29 12.5s-21 -4.16699 -29 -12.5s-12 -18.5 -12 -30.5c0 -11.333 4 -21.166 12 -29.499s17.667 -12.5 29 -12.5s21 4.16699 29 12.5s12 18.166 12 29.499zM91 590c0 12 -4 22.167 -12 30.5s-17.667 12.5 -29 12.5
s-21 -4.16699 -29 -12.5s-12 -18.5 -12 -30.5c0 -11.333 4 -21.166 12 -29.499s17.667 -12.5 29 -12.5s21 4.16699 29 12.5s12 18.166 12 29.499z" />
    <glyph glyph-name="ntilde" unicode="&#xf1;" horiz-adv-x="511" 
d="M501 0c1.33301 0 1.99902 1.00098 1.99902 3.00098s-0.666992 3 -2 3h-55c-4 0 -6 1.33301 -6 4v258c0 54 -14.667 95.333 -44 124s-69.666 43 -120.999 43c-22.667 0 -44.834 -5.83301 -66.501 -17.5s-37.167 -31.834 -46.5 -60.501v66c0 2 -1 3 -3 3h-138
c-1.33301 0 -2 -1 -2 -3s0.666992 -3 2 -3h55c4 0 6 -1 6 -3v-407c0 -2.66699 -2 -4 -6 -4h-55c-1.33301 0 -2 -1 -2 -3s0.666992 -3 2 -3h202c1.33301 0 2 1 2 3s-0.666992 3 -2 3h-55c-4 0 -6 1.33301 -6 4v333c7.33301 24.667 20 45.167 38 61.5s43 24.5 75 24.5
c8.66699 0 17.834 -2 27.501 -6s18.667 -10.167 27 -18.5s15.333 -18.833 21 -31.5s8.5 -28 8.5 -46v-317c0 -2.66699 -2 -4 -6 -4h-55c-1.33301 0 -2 -1 -2 -3s0.666992 -3 2 -3h203zM434.999 671.001c0 1.33301 -1 1.99805 -3 1.99805s-3 -0.666992 -3 -2
c0 -21.333 -5 -38.666 -15 -51.999s-25 -20 -45 -20c-11.333 0 -23 3 -35 9s-24.5 12.833 -37.5 20.5s-27 14.5 -42 20.5s-30.833 9 -47.5 9c-30.667 0 -56.167 -9.83301 -76.5 -29.5s-30.5 -45.5 -30.5 -77.5c0 -1.33301 1 -2 3 -2c2.66699 0 4 0.666992 4 2
c0 20.667 5 37.667 15 51s24.667 20 44 20c10.667 0 22 -3.16699 34 -9.5l38 -20.5c13.333 -7.33301 27.333 -14.166 42 -20.499s30.667 -9.5 48 -9.5c30.667 0 56.167 10.167 76.5 30.5s30.5 46.5 30.5 78.5z" />
    <glyph glyph-name="ograve" unicode="&#xf2;" horiz-adv-x="498" 
d="M458 213c0 30.667 -5.5 59.5 -16.5 86.5s-25.833 50.5 -44.5 70.5s-40.834 35.833 -66.501 47.5s-52.834 17.5 -81.501 17.5s-55.667 -5.83301 -81 -17.5s-47.333 -27.5 -66 -47.5s-33.5 -43.5 -44.5 -70.5s-16.5 -55.833 -16.5 -86.5s5.5 -59.5 16.5 -86.5
s25.833 -50.5 44.5 -70.5s40.667 -35.833 66 -47.5s52.333 -17.5 81 -17.5s55.834 5.83301 81.501 17.5s47.834 27.5 66.501 47.5s33.5 43.5 44.5 70.5s16.5 55.833 16.5 86.5zM376 213c0 -30 -1.00195 -55.5 -3.00195 -76.5s-5.16699 -39 -9.5 -54
s-9.66602 -27.5 -15.999 -37.5s-13.5 -18.667 -21.5 -26c-10.667 -8.66699 -22.167 -14.667 -34.5 -18s-26.5 -5 -42.5 -5c-15.333 0 -29.5 1.66699 -42.5 5s-24.5 9.33301 -34.5 18c-8 7.33301 -15.167 16 -21.5 26s-11.666 22.5 -15.999 37.5s-7.5 33 -9.5 54
s-3 46.5 -3 76.5c0 52 4.16699 93.5 12.5 124.5s20.833 53.833 37.5 68.5c10 9.33301 21.5 15.5 34.5 18.5s27.167 4.5 42.5 4.5c16 0 30.167 -1.5 42.5 -4.5s23.833 -9.16699 34.5 -18.5c16.667 -14.667 29.167 -37.5 37.5 -68.5s12.5 -72.5 12.5 -124.5zM318.998 524
c-23.333 5.33301 -42.5 13.166 -57.5 23.499s-27.667 21.333 -38 33s-18.833 23.667 -25.5 36l-18.5 34c-5.66699 10.333 -11.5 18.666 -17.5 24.999s-13.667 9.5 -23 9.5s-16.666 -2.83301 -21.999 -8.5s-8 -12.5 -8 -20.5c0 -9.33301 2.66699 -19.666 8 -30.999
s15.5 -23.166 30.5 -35.499s36.167 -24.5 63.5 -36.5s63 -23.333 107 -34c1.33301 -0.666992 2.16602 0 2.49902 2s-0.166992 3 -1.5 3z" />
    <glyph glyph-name="oacute" unicode="&#xf3;" horiz-adv-x="498" 
d="M458 213c0 30.667 -5.5 59.5 -16.5 86.5s-25.833 50.5 -44.5 70.5s-40.834 35.833 -66.501 47.5s-52.834 17.5 -81.501 17.5s-55.667 -5.83301 -81 -17.5s-47.333 -27.5 -66 -47.5s-33.5 -43.5 -44.5 -70.5s-16.5 -55.833 -16.5 -86.5s5.5 -59.5 16.5 -86.5
s25.833 -50.5 44.5 -70.5s40.667 -35.833 66 -47.5s52.333 -17.5 81 -17.5s55.834 5.83301 81.501 17.5s47.834 27.5 66.501 47.5s33.5 43.5 44.5 70.5s16.5 55.833 16.5 86.5zM376 213c0 -30 -1.00195 -55.5 -3.00195 -76.5s-5.16699 -39 -9.5 -54
s-9.66602 -27.5 -15.999 -37.5s-13.5 -18.667 -21.5 -26c-10.667 -8.66699 -22.167 -14.667 -34.5 -18s-26.5 -5 -42.5 -5c-15.333 0 -29.5 1.66699 -42.5 5s-24.5 9.33301 -34.5 18c-8 7.33301 -15.167 16 -21.5 26s-11.666 22.5 -15.999 37.5s-7.5 33 -9.5 54
s-3 46.5 -3 76.5c0 52 4.16699 93.5 12.5 124.5s20.833 53.833 37.5 68.5c10 9.33301 21.5 15.5 34.5 18.5s27.167 4.5 42.5 4.5c16 0 30.167 -1.5 42.5 -4.5s23.833 -9.16699 34.5 -18.5c16.667 -14.667 29.167 -37.5 37.5 -68.5s12.5 -72.5 12.5 -124.5zM378.998 656
c0 8 -2.66895 14.833 -8.00195 20.5s-12.666 8.5 -21.999 8.5s-17 -3.16699 -23 -9.5s-11.833 -14.666 -17.5 -24.999l-18.5 -34c-6.66699 -12.333 -15.167 -24.333 -25.5 -36s-23.166 -22.667 -38.499 -33s-34.666 -18.166 -57.999 -23.499c-1.33301 0 -1.83301 -1 -1.5 -3
s1.16602 -2.66699 2.49902 -2c44 10.667 79.833 22 107.5 34s49 24.167 64 36.5s25.167 24.166 30.5 35.499s8 21.666 8 30.999z" />
    <glyph glyph-name="ocircumflex" unicode="&#xf4;" horiz-adv-x="498" 
d="M458 213c0 30.667 -5.5 59.5 -16.5 86.5s-25.833 50.5 -44.5 70.5s-40.834 35.833 -66.501 47.5s-52.834 17.5 -81.501 17.5s-55.667 -5.83301 -81 -17.5s-47.333 -27.5 -66 -47.5s-33.5 -43.5 -44.5 -70.5s-16.5 -55.833 -16.5 -86.5s5.5 -59.5 16.5 -86.5
s25.833 -50.5 44.5 -70.5s40.667 -35.833 66 -47.5s52.333 -17.5 81 -17.5s55.834 5.83301 81.501 17.5s47.834 27.5 66.501 47.5s33.5 43.5 44.5 70.5s16.5 55.833 16.5 86.5zM376 213c0 -30 -1.00195 -55.5 -3.00195 -76.5s-5.16699 -39 -9.5 -54
s-9.66602 -27.5 -15.999 -37.5s-13.5 -18.667 -21.5 -26c-10.667 -8.66699 -22.167 -14.667 -34.5 -18s-26.5 -5 -42.5 -5c-15.333 0 -29.5 1.66699 -42.5 5s-24.5 9.33301 -34.5 18c-8 7.33301 -15.167 16 -21.5 26s-11.666 22.5 -15.999 37.5s-7.5 33 -9.5 54
s-3 46.5 -3 76.5c0 52 4.16699 93.5 12.5 124.5s20.833 53.833 37.5 68.5c10 9.33301 21.5 15.5 34.5 18.5s27.167 4.5 42.5 4.5c16 0 30.167 -1.5 42.5 -4.5s23.833 -9.16699 34.5 -18.5c16.667 -14.667 29.167 -37.5 37.5 -68.5s12.5 -72.5 12.5 -124.5zM367.998 533
l-72.5 85.5c-19.667 24.333 -36.167 46.833 -49.5 67.5c-1.33301 0.666992 -2.33301 0.666992 -3 0c-13.333 -20.667 -29.5 -43.167 -48.5 -67.5s-42.5 -52.833 -70.5 -85.5c-1.33301 -1.33301 -1.5 -2.5 -0.5 -3.5s2.16699 -1.16699 3.5 -0.5l113 85l124 -85
c1.33301 -0.666992 2.5 -0.5 3.5 0.5s1.16699 2.16699 0.5 3.5z" />
    <glyph glyph-name="otilde" unicode="&#xf5;" horiz-adv-x="498" 
d="M458 213c0 30.667 -5.5 59.5 -16.5 86.5s-25.833 50.5 -44.5 70.5s-40.834 35.833 -66.501 47.5s-52.834 17.5 -81.501 17.5s-55.667 -5.83301 -81 -17.5s-47.333 -27.5 -66 -47.5s-33.5 -43.5 -44.5 -70.5s-16.5 -55.833 -16.5 -86.5s5.5 -59.5 16.5 -86.5
s25.833 -50.5 44.5 -70.5s40.667 -35.833 66 -47.5s52.333 -17.5 81 -17.5s55.834 5.83301 81.501 17.5s47.834 27.5 66.501 47.5s33.5 43.5 44.5 70.5s16.5 55.833 16.5 86.5zM376 213c0 -30 -1.00195 -55.5 -3.00195 -76.5s-5.16699 -39 -9.5 -54
s-9.66602 -27.5 -15.999 -37.5s-13.5 -18.667 -21.5 -26c-10.667 -8.66699 -22.167 -14.667 -34.5 -18s-26.5 -5 -42.5 -5c-15.333 0 -29.5 1.66699 -42.5 5s-24.5 9.33301 -34.5 18c-8 7.33301 -15.167 16 -21.5 26s-11.666 22.5 -15.999 37.5s-7.5 33 -9.5 54
s-3 46.5 -3 76.5c0 52 4.16699 93.5 12.5 124.5s20.833 53.833 37.5 68.5c10 9.33301 21.5 15.5 34.5 18.5s27.167 4.5 42.5 4.5c16 0 30.167 -1.5 42.5 -4.5s23.833 -9.16699 34.5 -18.5c16.667 -14.667 29.167 -37.5 37.5 -68.5s12.5 -72.5 12.5 -124.5zM421.998 671
c0 1.33301 -1 1.99805 -3 1.99805s-3 -0.666992 -3 -2c0 -21.333 -5 -38.666 -15 -51.999s-25 -20 -45 -20c-11.333 0 -23 3 -35 9s-24.5 12.833 -37.5 20.5s-27 14.5 -42 20.5s-30.833 9 -47.5 9c-30.667 0 -56.167 -9.83301 -76.5 -29.5s-30.5 -45.5 -30.5 -77.5
c0 -1.33301 1 -2 3 -2c2.66699 0 4 0.666992 4 2c0 20.667 5 37.667 15 51s24.667 20 44 20c10.667 0 22 -3.16699 34 -9.5l38 -20.5c13.333 -7.33301 27.333 -14.166 42 -20.499s30.667 -9.5 48 -9.5c30.667 0 56.167 10.167 76.5 30.5s30.5 46.5 30.5 78.5z" />
    <glyph glyph-name="odieresis" unicode="&#xf6;" horiz-adv-x="498" 
d="M458 213c0 30.667 -5.5 59.5 -16.5 86.5s-25.833 50.5 -44.5 70.5s-40.834 35.833 -66.501 47.5s-52.834 17.5 -81.501 17.5s-55.667 -5.83301 -81 -17.5s-47.333 -27.5 -66 -47.5s-33.5 -43.5 -44.5 -70.5s-16.5 -55.833 -16.5 -86.5s5.5 -59.5 16.5 -86.5
s25.833 -50.5 44.5 -70.5s40.667 -35.833 66 -47.5s52.333 -17.5 81 -17.5s55.834 5.83301 81.501 17.5s47.834 27.5 66.501 47.5s33.5 43.5 44.5 70.5s16.5 55.833 16.5 86.5zM376 213c0 -30 -1.00195 -55.5 -3.00195 -76.5s-5.16699 -39 -9.5 -54
s-9.66602 -27.5 -15.999 -37.5s-13.5 -18.667 -21.5 -26c-10.667 -8.66699 -22.167 -14.667 -34.5 -18s-26.5 -5 -42.5 -5c-15.333 0 -29.5 1.66699 -42.5 5s-24.5 9.33301 -34.5 18c-8 7.33301 -15.167 16 -21.5 26s-11.666 22.5 -15.999 37.5s-7.5 33 -9.5 54
s-3 46.5 -3 76.5c0 52 4.16699 93.5 12.5 124.5s20.833 53.833 37.5 68.5c10 9.33301 21.5 15.5 34.5 18.5s27.167 4.5 42.5 4.5c16 0 30.167 -1.5 42.5 -4.5s23.833 -9.16699 34.5 -18.5c16.667 -14.667 29.167 -37.5 37.5 -68.5s12.5 -72.5 12.5 -124.5zM378.998 590
c0 12 -4 22.167 -12 30.5s-17.667 12.5 -29 12.5s-21 -4.16699 -29 -12.5s-12 -18.5 -12 -30.5c0 -11.333 4 -21.166 12 -29.499s17.667 -12.5 29 -12.5s21 4.16699 29 12.5s12 18.166 12 29.499zM204.998 590c0 12 -4 22.167 -12 30.5s-17.667 12.5 -29 12.5
s-21 -4.16699 -29 -12.5s-12 -18.5 -12 -30.5c0 -11.333 4 -21.166 12 -29.499s17.667 -12.5 29 -12.5s21 4.16699 29 12.5s12 18.166 12 29.499z" />
    <glyph glyph-name="oslash" unicode="&#xf8;" horiz-adv-x="500" 
d="M459 213c0 36.667 -7.50293 70.3311 -22.5029 100.998s-35.167 56.334 -60.5 77.001l38 56c0.666992 0.666992 0 1.83398 -2 3.50098s-3.33301 1.83398 -4 0.500977l-38 -56c-34.667 26.667 -74.667 40 -120 40c-28.667 0 -55.667 -5.83301 -81 -17.5
s-47.333 -27.5 -66 -47.5s-33.5 -43.5 -44.5 -70.5s-16.5 -55.833 -16.5 -86.5c0 -36 7.5 -69.5 22.5 -100.5s35.167 -56.833 60.5 -77.5l-38 -55c-0.666992 -1.33301 -0.166992 -2.83301 1.5 -4.5s2.83398 -1.83398 3.50098 -0.500977l39 56c34 -26.667 73.667 -40 119 -40
c28.667 0 55.834 5.83301 81.501 17.5s47.834 27.5 66.501 47.5s33.5 43.5 44.5 70.5s16.5 55.833 16.5 86.5zM351.997 369.997l-209 -308c-6.66699 15.333 -11.667 35 -15 59s-5 54.667 -5 92c0 52 4.16699 93.5 12.5 124.5s20.833 53.833 37.5 68.5
c10 9.33301 21.5 15.5 34.5 18.5s27.167 4.5 42.5 4.5c16 0 30.167 -1.5 42.5 -4.5s23.833 -9.16699 34.5 -18.5c10.667 -8.66699 19 -20.667 25 -36zM377.997 212.997c0 -30 -1.16895 -55.498 -3.50195 -76.498s-5.66602 -39 -9.99902 -54s-9.66602 -27.5 -15.999 -37.5
s-13.5 -18.667 -21.5 -26c-10.667 -8.66699 -22.167 -14.667 -34.5 -18s-26.5 -5 -42.5 -5c-15.333 0 -29.5 1.66699 -42.5 5s-24.5 9.33301 -34.5 18c-5.33301 5.33301 -10.333 10.666 -15 15.999s-8.66699 11.666 -12 18.999l210 308c14.667 -32 22 -81.667 22 -149z" />
    <glyph glyph-name="ugrave" unicode="&#xf9;" horiz-adv-x="501" 
d="M491 0c1.33301 0 2.00293 0.999023 2.00293 2.99902s-0.666992 3 -2 3h-55c-4.66699 0 -7 1 -7 3v414c0 2 -0.666992 3 -2 3h-139c-1.33301 0 -2 -1 -2 -3s0.666992 -3 2 -3h55c4 0 6 -1.33301 6 -4v-333c-7.33301 -25.333 -20 -46 -38 -62s-43 -24 -75 -24
c-8.66699 0 -17.834 2 -27.501 6s-18.667 10.167 -27 18.5s-15.333 18.833 -21 31.5s-8.5 28 -8.5 46v324c0 2 -1 3 -3 3h-138c-1.33301 0 -2 -1 -2 -3s0.666992 -3 2 -3h55c4 0 6 -1.33301 6 -4v-265c0 -54 14.667 -94.167 44 -120.5s69.333 -39.5 120 -39.5
c23.333 0 45.666 5.83301 66.999 17.5s36.666 31.834 45.999 60.501v-66c0 -2 1 -3 3 -3h139zM341.003 523.999c-23.333 5.33301 -42.5 13.166 -57.5 23.499s-27.667 21.333 -38 33s-18.833 23.667 -25.5 36l-18.5 34c-5.66699 10.333 -11.5 18.666 -17.5 24.999
s-13.667 9.5 -23 9.5s-16.666 -2.83301 -21.999 -8.5s-8 -12.5 -8 -20.5c0 -9.33301 2.66699 -19.666 8 -30.999s15.5 -23.166 30.5 -35.499s36.167 -24.5 63.5 -36.5s63 -23.333 107 -34c1.33301 -0.666992 2.16602 0 2.49902 2s-0.166992 3 -1.5 3z" />
    <glyph glyph-name="uacute" unicode="&#xfa;" horiz-adv-x="501" 
d="M491 0c1.33301 0 2.00293 0.999023 2.00293 2.99902s-0.666992 3 -2 3h-55c-4.66699 0 -7 1 -7 3v414c0 2 -0.666992 3 -2 3h-139c-1.33301 0 -2 -1 -2 -3s0.666992 -3 2 -3h55c4 0 6 -1.33301 6 -4v-333c-7.33301 -25.333 -20 -46 -38 -62s-43 -24 -75 -24
c-8.66699 0 -17.834 2 -27.501 6s-18.667 10.167 -27 18.5s-15.333 18.833 -21 31.5s-8.5 28 -8.5 46v324c0 2 -1 3 -3 3h-138c-1.33301 0 -2 -1 -2 -3s0.666992 -3 2 -3h55c4 0 6 -1.33301 6 -4v-265c0 -54 14.667 -94.167 44 -120.5s69.333 -39.5 120 -39.5
c23.333 0 45.666 5.83301 66.999 17.5s36.666 31.834 45.999 60.501v-66c0 -2 1 -3 3 -3h139zM372.003 655.999c0 8 -2.66895 14.833 -8.00195 20.5s-12.666 8.5 -21.999 8.5s-17 -3.16699 -23 -9.5s-11.833 -14.666 -17.5 -24.999l-18.5 -34
c-6.66699 -12.333 -15.167 -24.333 -25.5 -36s-23.166 -22.667 -38.499 -33s-34.666 -18.166 -57.999 -23.499c-1.33301 0 -1.83301 -1 -1.5 -3s1.16602 -2.66699 2.49902 -2c44 10.667 79.833 22 107.5 34s49 24.167 64 36.5s25.167 24.166 30.5 35.499s8 21.666 8 30.999z
" />
    <glyph glyph-name="ucircumflex" unicode="&#xfb;" horiz-adv-x="501" 
d="M491 0c1.33301 0 2.00293 0.999023 2.00293 2.99902s-0.666992 3 -2 3h-55c-4.66699 0 -7 1 -7 3v414c0 2 -0.666992 3 -2 3h-139c-1.33301 0 -2 -1 -2 -3s0.666992 -3 2 -3h55c4 0 6 -1.33301 6 -4v-333c-7.33301 -25.333 -20 -46 -38 -62s-43 -24 -75 -24
c-8.66699 0 -17.834 2 -27.501 6s-18.667 10.167 -27 18.5s-15.333 18.833 -21 31.5s-8.5 28 -8.5 46v324c0 2 -1 3 -3 3h-138c-1.33301 0 -2 -1 -2 -3s0.666992 -3 2 -3h55c4 0 6 -1.33301 6 -4v-265c0 -54 14.667 -94.167 44 -120.5s69.333 -39.5 120 -39.5
c23.333 0 45.666 5.83301 66.999 17.5s36.666 31.834 45.999 60.501v-66c0 -2 1 -3 3 -3h139zM368.003 532.999l-72.5 85.5c-19.667 24.333 -36.167 46.833 -49.5 67.5c-1.33301 0.666992 -2.33301 0.666992 -3 0c-13.333 -20.667 -29.5 -43.167 -48.5 -67.5
s-42.5 -52.833 -70.5 -85.5c-1.33301 -1.33301 -1.5 -2.5 -0.5 -3.5s2.16699 -1.16699 3.5 -0.5l113 85l124 -85c1.33301 -0.666992 2.5 -0.5 3.5 0.5s1.16699 2.16699 0.5 3.5z" />
    <glyph glyph-name="udieresis" unicode="&#xfc;" horiz-adv-x="501" 
d="M491 0c1.33301 0 2.00293 0.999023 2.00293 2.99902s-0.666992 3 -2 3h-55c-4.66699 0 -7 1 -7 3v414c0 2 -0.666992 3 -2 3h-139c-1.33301 0 -2 -1 -2 -3s0.666992 -3 2 -3h55c4 0 6 -1.33301 6 -4v-333c-7.33301 -25.333 -20 -46 -38 -62s-43 -24 -75 -24
c-8.66699 0 -17.834 2 -27.501 6s-18.667 10.167 -27 18.5s-15.333 18.833 -21 31.5s-8.5 28 -8.5 46v324c0 2 -1 3 -3 3h-138c-1.33301 0 -2 -1 -2 -3s0.666992 -3 2 -3h55c4 0 6 -1.33301 6 -4v-265c0 -54 14.667 -94.167 44 -120.5s69.333 -39.5 120 -39.5
c23.333 0 45.666 5.83301 66.999 17.5s36.666 31.834 45.999 60.501v-66c0 -2 1 -3 3 -3h139zM368.003 589.999c0 12 -4 22.167 -12 30.5s-17.667 12.5 -29 12.5s-21 -4.16699 -29 -12.5s-12 -18.5 -12 -30.5c0 -11.333 4 -21.166 12 -29.499s17.667 -12.5 29 -12.5
s21 4.16699 29 12.5s12 18.166 12 29.499zM194.003 589.999c0 12 -4 22.167 -12 30.5s-17.667 12.5 -29 12.5s-21 -4.16699 -29 -12.5s-12 -18.5 -12 -30.5c0 -11.333 4 -21.166 12 -29.499s17.667 -12.5 29 -12.5s21 4.16699 29 12.5s12 18.166 12 29.499z" />
    <glyph glyph-name="ydieresis" unicode="&#xff;" horiz-adv-x="419" 
d="M447 420c1.33301 0 1.99805 0.995117 1.99805 2.99512s-0.666992 3 -2 3h-131c-1.33301 0 -2 -1 -2 -3s0.666992 -3 2 -3h54c3.33301 0 4.83301 -2.16699 4.5 -6.5s-4.16602 -16.166 -11.499 -35.499l-109 -293l-144 331c-0.666992 2.66699 1 4 5 4h53c1.33301 0 2 1 2 3
s-0.666992 3 -2 3h-198c-1.33301 0 -2 -1 -2 -3s0.666992 -3 2 -3h47c4.66699 0 7.33398 -1.33301 8.00098 -4l196 -427l-85 -228c-9.33301 -26 -18.5 -43.167 -27.5 -51.5s-16.833 -12.5 -23.5 -12.5c-8 0 -14.833 0.833008 -20.5 2.5s-8.5 5.16699 -8.5 10.5
c0 4.66699 1 8.83398 3 12.501s4.16699 7.33398 6.5 11.001s4.5 7.33398 6.5 11.001s3 8.5 3 14.5c0 9.33301 -3.33301 17.5 -10 24.5s-16.667 10.5 -30 10.5c-12.667 0 -23.5 -5.16699 -32.5 -15.5s-13.5 -23.5 -13.5 -39.5c0 -18 6.83301 -32 20.5 -42s30.5 -15 50.5 -15
s36 6 48 18s23.667 33 35 63l226 615c6.66699 18.667 11.5 30.334 14.5 35.001s6.16699 7 9.5 7h54zM363.998 589.995c0 12 -4 22.167 -12 30.5s-17.667 12.5 -29 12.5s-21 -4.16699 -29 -12.5s-12 -18.5 -12 -30.5c0 -11.333 4 -21.166 12 -29.499s17.667 -12.5 29 -12.5
s21 4.16699 29 12.5s12 18.166 12 29.499zM189.998 589.995c0 12 -4 22.167 -12 30.5s-17.667 12.5 -29 12.5s-21 -4.16699 -29 -12.5s-12 -18.5 -12 -30.5c0 -11.333 4 -21.166 12 -29.499s17.667 -12.5 29 -12.5s21 4.16699 29 12.5s12 18.166 12 29.499z" />
    <glyph glyph-name="dotlessi" unicode="&#x131;" horiz-adv-x="253" 
d="M234 0c1.33301 0 2 1 2 3s-0.666992 3 -2 3h-55c-4.66699 0 -7 1.33301 -7 4v413c0 2 -0.666992 3 -2 3h-139c-1.33301 0 -2 -1 -2 -3s0.666992 -3 2 -3h55c4 0 6 -1.33301 6 -4v-406c0 -2.66699 -2 -4 -6 -4h-55c-1.33301 0 -2 -1 -2 -3s0.666992 -3 2 -3h203z" />
    <glyph glyph-name="OE" unicode="&#x152;" horiz-adv-x="967" 
d="M942 3l0.000976562 199.999c0 1.33301 -1 2 -3 2s-3 -0.666992 -3 -2c0 -26 -3.83301 -50.833 -11.5 -74.5s-20.334 -44.5 -38.001 -62.5s-40.834 -32.5 -69.501 -43.5s-63.667 -16.5 -105 -16.5h-129c-4 0 -6 1.33301 -6 4v351h51c40.667 0 71.834 -10.5 93.501 -31.5
s32.5 -48.5 32.5 -82.5c0 -1.33301 0.666992 -2 2 -2c2 0 3 0.666992 3 2v234c0 1.33301 -1 2 -3 2c-1.33301 0 -2 -0.666992 -2 -2c0 -34.667 -10.833 -62.334 -32.5 -83.001s-52.834 -31 -93.501 -31h-51v332c0 2.66699 2 4 6 4h126c31.333 0 58 -4.83301 80 -14.5
s39.833 -22.667 53.5 -39s23.667 -35.166 30 -56.499s9.5 -43.666 9.5 -66.999c0 -1.33301 1 -2 3 -2s3 0.666992 3 2v180c0 2 -1 3 -3 3h-506c-45.333 0 -88 -9.33301 -128 -28s-74.833 -44.167 -104.5 -76.5s-53 -70 -70 -113s-25.5 -88.833 -25.5 -137.5
s8.66699 -94.5 26 -137.5s40.833 -80.5 70.5 -112.5s64.334 -57.333 104.001 -76s82.167 -28 127.5 -28h560c2 0 3 1 3 3zM467.001 9.99902c0 -2.66699 -2.00098 -3.99902 -6.00098 -3.99902h-82c-23.333 0 -46.333 2.66699 -69 8s-42.334 15 -59.001 29
c-14 12 -26.167 25.833 -36.5 41.5s-19.166 35.5 -26.499 59.5s-12.833 53 -16.5 87s-5.5 75 -5.5 123c0 84 7.33301 151.167 22 201.5s35.667 87.166 63 110.499c16.667 14 36.334 23.667 59.001 29s45.667 8 69 8h82c4 0 6 -1.33301 6 -4v-689z" />
    <glyph glyph-name="oe" unicode="&#x153;" horiz-adv-x="778" 
d="M744 240c0 18.667 -3.33203 39.332 -9.99902 61.999s-17 43.834 -31 63.501s-32.167 36.167 -54.5 49.5s-48.833 20 -79.5 20c-34 0 -64.5 -7.66699 -91.5 -23s-49.167 -37.333 -66.5 -66c-17.333 28 -40 49.833 -68 65.5s-59 23.5 -93 23.5
c-28.667 0 -55.667 -5.83301 -81 -17.5s-47.5 -27.5 -66.5 -47.5s-34 -43.5 -45 -70.5s-16.5 -55.833 -16.5 -86.5s5.5 -59.5 16.5 -86.5s26 -50.5 45 -70.5s41.167 -35.833 66.5 -47.5s52.333 -17.5 81 -17.5c34 0 65.333 8 94 24s51 37.667 67 65
c16 -28 37.833 -49.833 65.5 -65.5s58.5 -23.5 92.5 -23.5c35.333 0 66.666 8.66699 93.999 26s50.666 40.333 69.999 69c0.666992 1.33301 0.333984 2.33301 -0.999023 3s-2.33301 0.666992 -3 0c-17.333 -27.333 -39.5 -49.5 -66.5 -66.5s-58.167 -25.5 -93.5 -25.5
c-13.333 0 -26.5 1.66699 -39.5 5s-24.5 9.33301 -34.5 18c-8.66699 7.33301 -15.834 15.833 -21.501 25.5s-10.167 22 -13.5 37s-5.66602 33 -6.99902 54s-2 46.5 -2 76.5v24h290c2 0 3 1 3 3zM663.001 243.998h-211.001c1.33301 43.333 5 77.833 11 103.5
s16.667 45.167 32 58.5c10 8.66699 21.5 14.667 34.5 18s26.167 5 39.5 5c10.667 0 21 -1.66699 31 -5s19.333 -9.33301 28 -18c12.667 -13.333 21.334 -32.833 26.001 -58.5s7.66699 -60.167 9 -103.5zM376 212.998c0 -30 -1 -55.5 -3 -76.5s-5 -39 -9 -54
s-9.16699 -27.333 -15.5 -37s-13.833 -18.167 -22.5 -25.5c-10 -8.66699 -21.333 -14.667 -34 -18s-26.667 -5 -42 -5c-16 0 -30.333 1.66699 -43 5s-24.334 9.33301 -35.001 18c-8 7.33301 -15.167 15.833 -21.5 25.5s-11.5 22 -15.5 37s-7.16699 33 -9.5 54
s-3.5 46.5 -3.5 76.5c0 52 4.33301 93.5 13 124.5s21 53.833 37 68.5c10.667 8.66699 22.334 14.667 35.001 18s27 5 43 5c15.333 0 29.333 -1.66699 42 -5s24 -9.33301 34 -18c17.333 -14.667 30 -37.5 38 -68.5s12 -72.5 12 -124.5z" />
    <glyph glyph-name="Ydieresis" unicode="&#x178;" horiz-adv-x="640" 
d="M662 703c1.33301 0 2 0.999023 2 2.99902s-0.666992 3 -2 3h-201c-1.33301 0 -2 -1 -2 -3s0.666992 -3 2 -3h99c3.33301 0 4.5 -2.16699 3.5 -6.5s-6.16699 -16.166 -15.5 -35.499l-153 -327l-187 365c-1.33301 2.66699 -0.333008 4 3 4h107c0.666992 0 1 1 1 3
s-0.333008 3 -1 3h-332c-1.33301 0 -2 -1 -2 -3s0.666992 -3 2 -3h92c4 0 6.66699 -1.33301 8 -4l202 -390v-299c0 -2.66699 -2.33301 -4 -7 -4h-89c-1.33301 0 -2 -1 -2 -3s0.666992 -3 2 -3h300c1.33301 0 2 1 2 3s-0.666992 3 -2 3h-89c-4 0 -6 1.33301 -6 4v314l157 335
c9.33301 20 16 32.333 20 37s7.66699 7 11 7h77zM508 844.999c0 12 -4 22.167 -12 30.5s-17.667 12.5 -29 12.5s-21 -4.16699 -29 -12.5s-12 -18.5 -12 -30.5c0 -11.333 4 -21.166 12 -29.499s17.667 -12.5 29 -12.5s21 4.16699 29 12.5s12 18.166 12 29.499zM334 844.999
c0 12 -4 22.167 -12 30.5s-17.667 12.5 -29 12.5s-21 -4.16699 -29 -12.5s-12 -18.5 -12 -30.5c0 -11.333 4 -21.166 12 -29.499s17.667 -12.5 29 -12.5s21 4.16699 29 12.5s12 18.166 12 29.499z" />
    <glyph glyph-name="florin" unicode="&#x192;" horiz-adv-x="396" 
d="M499 668c0 10.667 -2.33301 20.6719 -7 30.0049s-11 17.333 -19 24s-17.333 12 -28 16s-21.667 6 -33 6c-28 0 -56 -9 -84 -27s-53.5 -43.833 -76.5 -77.5s-42.333 -74.5 -58 -122.5s-25.5 -102.333 -29.5 -163l-1 -20c0 -2 -2.33301 -3 -7 -3h-90
c-1.33301 0 -2 -1 -2 -3s0.666992 -3 2 -3h90c4 0 6 -1.33301 6 -4c-6 -88.667 -12.167 -171.334 -18.5 -248.001s-15.5 -143.334 -27.5 -200.001s-27.833 -101.167 -47.5 -133.5s-45.5 -48.5 -77.5 -48.5c-10.667 0 -19.167 3.16699 -25.5 9.5s-9.5 14.5 -9.5 24.5
c0 6 0.833008 10.667 2.5 14s3.33398 6.5 5.00098 9.5s3.33398 6.16699 5.00098 9.5s2.5 7.66602 2.5 12.999c0 9.33301 -3 17.333 -9 24s-16 10 -30 10c-13.333 0 -24.5 -4.66699 -33.5 -14s-13.5 -20 -13.5 -32c0 -22.667 8.66699 -41 26 -55s39.333 -21 66 -21
c34 0 64.167 9.66699 90.5 29s49.333 45.166 69 77.499s36.5 69.666 50.5 111.999s25.5 86.333 34.5 132s16.167 91.667 21.5 138s9.33301 89.5 12 129.5l1 20c0.666992 2.66699 3.33398 4 8.00098 4h90c1.33301 0 2 1 2 3s-0.666992 3 -2 3h-90c-4.66699 0 -7 1 -7 3
c6 88 14.667 158.333 26 211s23.666 93.167 36.999 121.5s26.5 47 39.5 56s24.167 13.5 33.5 13.5c10.667 0 19.167 -3.16699 25.5 -9.5s9.5 -14.166 9.5 -23.499c0 -6.66699 -0.833008 -11.834 -2.5 -15.501s-3.33398 -6.83398 -5.00098 -9.50098
s-3.33398 -5.66699 -5.00098 -9s-2.5 -7.66602 -2.5 -12.999c0 -10 3 -18.167 9 -24.5s16 -9.5 30 -9.5c13.333 0 24.5 4.5 33.5 13.5s13.5 19.833 13.5 32.5z" />
    <glyph glyph-name="circumflex" unicode="&#x2c6;" horiz-adv-x="325" 
d="M294 533l-72.5 85.5c-19.667 24.333 -36.167 46.833 -49.5 67.5c-1.33301 0.666992 -2.33301 0.666992 -3 0c-13.333 -20.667 -29.5 -43.167 -48.5 -67.5s-42.5 -52.833 -70.5 -85.5c-1.33301 -1.33301 -1.5 -2.5 -0.5 -3.5s2.16699 -1.16699 3.5 -0.5l113 85l124 -85
c1.33301 -0.666992 2.5 -0.5 3.5 0.5s1.16699 2.16699 0.5 3.5z" />
    <glyph glyph-name="caron" unicode="&#x2c7;" horiz-adv-x="325" 
d="M283 666c1.33301 1.33301 1.33301 2.5 0 3.5s-2.66602 0.833008 -3.99902 -0.5l-113 -84l-124 84c-1.33301 1.33301 -2.5 1.5 -3.5 0.5s-0.833008 -2.16699 0.5 -3.5c28.667 -32.667 52.667 -61.334 72 -86.001s35.666 -47 48.999 -67
c0.666992 -1.33301 1.66699 -1.33301 3 0c13.333 20 29.5 42.333 48.5 67s42.833 53.334 71.5 86.001z" />
    <glyph glyph-name="breve" unicode="&#x2d8;" horiz-adv-x="378" 
d="M329 697c0 1.33301 -1.00195 2 -3.00195 2s-3 -0.666992 -3 -2c0 -13.333 -2 -26.333 -6 -39s-11.167 -24 -21.5 -34s-24.166 -18.167 -41.499 -24.5s-39 -9.5 -65 -9.5s-47.667 3.16699 -65 9.5s-31.166 14.5 -41.499 24.5s-17.5 21.333 -21.5 34s-6 25.667 -6 39
c0 1.33301 -1 2 -3 2s-3 -0.666992 -3 -2c0 -16 2.16699 -33 6.5 -51s12 -34.833 23 -50.5s25.333 -28.5 43 -38.5s40.167 -15 67.5 -15c26.667 0 49 5 67 15s32.5 22.833 43.5 38.5s18.667 32.5 23 50.5s6.5 35 6.5 51z" />
    <glyph glyph-name="dotaccent" unicode="&#x2d9;" horiz-adv-x="245" 
d="M164 590c0 12 -4 22.167 -12 30.5s-17.667 12.5 -29 12.5s-21 -4.16699 -29 -12.5s-12 -18.5 -12 -30.5c0 -11.333 4 -21.166 12 -29.499s17.667 -12.5 29 -12.5s21 4.16699 29 12.5s12 18.166 12 29.499z" />
    <glyph glyph-name="ring" unicode="&#x2da;" horiz-adv-x="282" 
d="M218 608c0 21.333 -7.5 39.5 -22.5 54.5s-33.167 22.5 -54.5 22.5s-39.5 -7.5 -54.5 -22.5s-22.5 -33.167 -22.5 -54.5s7.5 -39.5 22.5 -54.5s33.167 -22.5 54.5 -22.5s39.5 7.5 54.5 22.5s22.5 33.167 22.5 54.5zM211 608c0 -19.333 -6.83301 -36 -20.5 -50
s-30.167 -21 -49.5 -21s-35.666 7 -48.999 21s-20 30.667 -20 50s6.66699 36 20 50s29.666 21 48.999 21s35.833 -7 49.5 -21s20.5 -30.667 20.5 -50z" />
    <glyph glyph-name="ogonek" unicode="&#x2db;" horiz-adv-x="272" 
d="M221 -169c1.33301 1.33301 1.50195 2.66699 0.501953 4s-1.83301 1.33301 -2.5 0c-6.66699 -8.66699 -14.167 -15.667 -22.5 -21s-16.833 -8 -25.5 -8c-14 0 -27.667 4.66699 -41 14s-20 27 -20 53c0 28.667 7.5 53.5 22.5 74.5s34.167 37.833 57.5 50.5
c1.33301 0.666992 1.33301 1.66699 0 3s-2.66602 1.66602 -3.99902 0.999023c-38 -19.333 -68 -41.5 -90 -66.5s-33 -48.833 -33 -71.5c0 -22 6.66699 -40.5 20 -55.5s32.666 -22.5 57.999 -22.5c19.333 0 35.166 4.33301 47.499 13s23.166 19.334 32.499 32.001z" />
    <glyph glyph-name="tilde" unicode="&#x2dc;" horiz-adv-x="404" 
d="M369 671c0 1.33301 -1 1.99805 -3 1.99805s-3 -0.666992 -3 -2c0 -21.333 -5 -38.666 -15 -51.999s-25 -20 -45 -20c-11.333 0 -23 3 -35 9s-24.5 12.833 -37.5 20.5s-27 14.5 -42 20.5s-30.833 9 -47.5 9c-30.667 0 -56.167 -9.83301 -76.5 -29.5
s-30.5 -45.5 -30.5 -77.5c0 -1.33301 1 -2 3 -2c2.66699 0 4 0.666992 4 2c0 20.667 5 37.667 15 51s24.667 20 44 20c10.667 0 22 -3.16699 34 -9.5l38 -20.5c13.333 -7.33301 27.333 -14.166 42 -20.499s30.667 -9.5 48 -9.5c30.667 0 56.167 10.167 76.5 30.5
s30.5 46.5 30.5 78.5z" />
    <glyph glyph-name="hungarumlaut" unicode="&#x2dd;" horiz-adv-x="544" 
d="M448 658c0 8 -2.83398 15 -8.50098 21s-13.167 9 -22.5 9s-17 -3.33301 -23 -10s-11.833 -15.167 -17.5 -25.5l-19 -34.5c-7 -12.667 -15.667 -25 -26 -37s-23.166 -23.167 -38.499 -33.5s-34.666 -18.166 -57.999 -23.499c-1.33301 0 -1.83301 -1 -1.5 -3
s1.16602 -2.66699 2.49902 -2c44.667 10.667 80.834 22.167 108.501 34.5s49.167 24.666 64.5 36.999s25.666 24.333 30.999 36s8 22.167 8 31.5zM269.999 658c0 8 -2.83398 15 -8.50098 21s-13.167 9 -22.5 9s-17 -3.33301 -23 -10s-11.833 -15.167 -17.5 -25.5l-19 -34.5
c-7 -12.667 -15.667 -25 -26 -37s-23.166 -23.167 -38.499 -33.5s-34.666 -18.166 -57.999 -23.499c-1.33301 0 -1.83301 -1 -1.5 -3s1.16602 -2.66699 2.49902 -2c44.667 10.667 80.834 22.167 108.501 34.5s49.167 24.666 64.5 36.999s25.666 24.333 30.999 36
s8 22.167 8 31.5z" />
    <glyph glyph-name="Omega" unicode="&#x3a9;" horiz-adv-x="543" 
d="M603 668c0 10.667 -2.33496 20.6689 -7.00195 30.002s-11 17.333 -19 24s-17.333 12 -28 16s-21.667 6 -33 6c-24.667 0 -47 -5 -67 -15s-37 -26.667 -51 -50s-24.833 -53.833 -32.5 -91.5s-11.5 -83.834 -11.5 -138.501v-19c0 -2.66699 -2 -4 -6 -4h-160
c-4 0 -6 1.33301 -6 4v181c0 22.667 1.83301 41.667 5.5 57s8.33398 27.5 14.001 36.5s12 15.333 19 19s14.167 5.5 21.5 5.5c10.667 0 19.167 -3.16699 25.5 -9.5s9.5 -14.5 9.5 -24.5c0 -6.66699 -0.666992 -11.667 -2 -15s-2.66602 -6.5 -3.99902 -9.5l-4 -9
c-1.33301 -3 -2 -7.16699 -2 -12.5c0 -9.33301 3.33301 -17.333 10 -24s17.334 -10 32.001 -10c13.333 0 24 4.66699 32 14s12 20 12 32c0 10.667 -2.5 20.667 -7.5 30s-11.667 17.333 -20 24s-17.833 12 -28.5 16s-21.667 6 -33 6c-24.667 0 -46.834 -5 -66.501 -15
s-36.5 -26.667 -50.5 -50s-24.667 -53.833 -32 -91.5s-11 -83.834 -11 -138.501v-12c0 -2.66699 -2.33301 -4 -7 -4h-69c-1.33301 0 -2 -1 -2 -3s0.666992 -3 2 -3h69c4.66699 0 7 -1.33301 7 -4v-406c0 -2.66699 -2.33301 -4 -7 -4h-55c-1.33301 0 -2 -1 -2 -3
s0.666992 -3 2 -3h203c1.33301 0 2 1 2 3s-0.666992 3 -2 3h-55c-4 0 -6 1.33301 -6 4v406c0 2.66699 2 4 6 4h160c4 0 6 -1.33301 6 -4v-406c0 -2.66699 -2 -4 -6 -4h-55c-1.33301 0 -2 -1 -2 -3s0.666992 -3 2 -3h202c1.33301 0 2 1 2 3s-0.666992 3 -2 3h-55
c-4 0 -6 1.33301 -6 4v406c0 2.66699 2 4 6 4h83c1.33301 0 2 1 2 3s-0.666992 3 -2 3h-83c-4 0 -6 1.33301 -6 4v188c0 22.667 1.83301 41.667 5.5 57s8.5 27.5 14.5 36.5s12.5 15.333 19.5 19s14.167 5.5 21.5 5.5c10.667 0 19.167 -3.16699 25.5 -9.5
s9.5 -14.5 9.5 -24.5c0 -6.66699 -0.666992 -11.667 -2 -15s-2.83301 -6.5 -4.5 -9.5s-3.16699 -6 -4.5 -9s-2 -7.16699 -2 -12.5c0 -9.33301 3.5 -17.333 10.5 -24s17.833 -10 32.5 -10c12.667 0 23 4.66699 31 14s12 20 12 32z" />
    <glyph glyph-name="endash" unicode="&#x2013;" horiz-adv-x="566" 
d="M530 233c1.33301 0 2 1 2 3s-0.666992 3 -2 3h-494c-1.33301 0 -2 -1 -2 -3s0.666992 -3 2 -3h494z" />
    <glyph glyph-name="emdash" unicode="&#x2014;" horiz-adv-x="1060" 
d="M1024 233c1.33301 0 2 1 2 3s-0.666992 3 -2 3h-988c-1.33301 0 -2 -1 -2 -3s0.666992 -3 2 -3h988z" />
    <glyph glyph-name="quoteleft" unicode="&#x2018;" horiz-adv-x="162" 
d="M136 716c1.33301 0 1.66504 1.00195 0.998047 3.00195s-1.33398 2.66699 -2.00098 2c-13.333 -4 -26.166 -12 -38.499 -24s-23 -25.333 -32 -40s-16.167 -29.667 -21.5 -45s-8 -28.666 -8 -39.999c0 -18 4 -32.5 12 -43.5s19.667 -16.5 35 -16.5
c12.667 0 23.334 4.66699 32.001 14s13 20.666 13 33.999c0 9.33301 -2 17.166 -6 23.499s-8.66699 11.5 -14 15.5c-10 7.33301 -17.333 15.166 -22 23.499s-7 16.833 -7 25.5c0 9.33301 2.83301 18.5 8.5 27.5s13.5 17.5 23.5 25.5c6.66699 6 15.334 11 26.001 15z" />
    <glyph glyph-name="quoteright" unicode="&#x2019;" horiz-adv-x="163" 
d="M130 666c0 18.667 -4.00098 33.332 -12.001 43.999s-19.667 16 -35 16c-12.667 0 -23.334 -4.66699 -32.001 -14s-13 -20.666 -13 -33.999c0 -9.33301 1.83301 -17.166 5.5 -23.499s8.16699 -11.5 13.5 -15.5c19.333 -13.333 29 -29.333 29 -48s-10.667 -36.667 -32 -54
c-3.33301 -2.66699 -7.16602 -5.33398 -11.499 -8.00098s-9.16602 -4.66699 -14.499 -6c-0.666992 0 -0.666992 -1.16699 0 -3.5s1.33398 -3.16602 2.00098 -2.49902c13.333 4 26.166 12 38.499 24s23 25.333 32 40s16.167 29.667 21.5 45s8 28.666 8 39.999z" />
    <glyph glyph-name="quotesinglbase" unicode="&#x201a;" horiz-adv-x="163" 
d="M130 24c0 18 -3.99805 32.3281 -11.998 42.9951s-19.667 16 -35 16c-12.667 0 -23.334 -4.5 -32.001 -13.5s-13 -20.167 -13 -33.5c0 -9.33301 1.83301 -17.166 5.5 -23.499s8.16699 -11.5 13.5 -15.5c10 -7.33301 17.333 -15.166 22 -23.499s7 -16.833 7 -25.5
c0 -9.33301 -2.83301 -18.666 -8.5 -27.999s-13.5 -18 -23.5 -26c-6.66699 -6 -15.334 -11 -26.001 -15c-0.666992 0 -0.666992 -0.833008 0 -2.5s1.33398 -2.16699 2.00098 -1.5c13.333 4 26.166 11.833 38.499 23.5s23 24.834 32 39.501s16.167 29.834 21.5 45.501
s8 29.167 8 40.5z" />
    <glyph glyph-name="quotedblleft" unicode="&#x201c;" horiz-adv-x="293" 
d="M265 716c1.33301 0 1.66602 1.00195 0.999023 3.00195s-1.66699 2.66699 -3 2c-13.333 -4 -26 -12 -38 -24s-22.5 -25.333 -31.5 -40s-16.167 -29.667 -21.5 -45s-8 -28.666 -8 -39.999c0 -18 4 -32.5 12 -43.5s19.667 -16.5 35 -16.5c12 0 22.333 4.66699 31 14
s13 20.666 13 33.999c0 9.33301 -1.83301 17.166 -5.5 23.499s-8.16699 11.5 -13.5 15.5c-10 7.33301 -17.333 15.166 -22 23.499s-7 16.833 -7 25.5c0 9.33301 2.83301 18.5 8.5 27.5s13.5 17.5 23.5 25.5c6.66699 6 15.334 11 26.001 15zM136 716.002
c1.33301 0 1.66504 1.00195 0.998047 3.00195s-1.33398 2.66699 -2.00098 2c-13.333 -4 -26.166 -12 -38.499 -24s-23 -25.333 -32 -40s-16.167 -29.667 -21.5 -45s-8 -28.666 -8 -39.999c0 -18 4 -32.5 12 -43.5s19.667 -16.5 35 -16.5c12.667 0 23.334 4.66699 32.001 14
s13 20.666 13 33.999c0 9.33301 -2 17.166 -6 23.499s-8.66699 11.5 -14 15.5c-10 7.33301 -17.333 15.166 -22 23.499s-7 16.833 -7 25.5c0 9.33301 2.83301 18.5 8.5 27.5s13.5 17.5 23.5 25.5c6.66699 6 15.334 11 26.001 15z" />
    <glyph glyph-name="quotedblright" unicode="&#x201d;" horiz-adv-x="293" 
d="M258 666c0 18.667 -3.83398 33.332 -11.501 43.999s-19.167 16 -34.5 16c-12.667 0 -23.334 -4.66699 -32.001 -14s-13 -20.666 -13 -33.999c0 -9.33301 1.83301 -17.166 5.5 -23.499s8.16699 -11.5 13.5 -15.5c19.333 -13.333 29 -29.333 29 -48
s-10.667 -36.667 -32 -54c-3.33301 -2.66699 -7.16602 -5.33398 -11.499 -8.00098s-9.16602 -4.66699 -14.499 -6c-1.33301 0 -1.5 -1.16699 -0.5 -3.5s1.83301 -3.16602 2.5 -2.49902c13.333 4 26 12 38 24s22.5 25.333 31.5 40s16.167 29.667 21.5 45s8 28.666 8 39.999z
M129.999 665.998c0 18.667 -4.00098 33.332 -12.001 43.999s-19.667 16 -35 16c-12.667 0 -23.334 -4.66699 -32.001 -14s-13 -20.666 -13 -33.999c0 -9.33301 1.83301 -17.166 5.5 -23.499s8.16699 -11.5 13.5 -15.5c19.333 -13.333 29 -29.333 29 -48
s-10.667 -36.667 -32 -54c-3.33301 -2.66699 -7.16602 -5.33398 -11.499 -8.00098s-9.16602 -4.66699 -14.499 -6c-0.666992 0 -0.666992 -1.16699 0 -3.5s1.33398 -3.16602 2.00098 -2.49902c13.333 4 26.166 12 38.499 24s23 25.333 32 40s16.167 29.667 21.5 45
s8 28.666 8 39.999z" />
    <glyph glyph-name="quotedblbase" unicode="&#x201e;" horiz-adv-x="293" 
d="M259 24c0 18 -3.99707 32.3291 -11.9971 42.9961s-19.667 16 -35 16c-12.667 0 -23.334 -4.5 -32.001 -13.5s-13 -20.167 -13 -33.5c0 -9.33301 1.83301 -17.166 5.5 -23.499s8.16699 -11.5 13.5 -15.5c10 -7.33301 17.333 -15.166 22 -23.499s7 -16.833 7 -25.5
c0 -18.667 -10.667 -36.667 -32 -54c-6.66699 -6 -15.334 -11 -26.001 -15c-1.33301 0 -1.5 -0.833008 -0.5 -2.5s1.83301 -2.16699 2.5 -1.5c13.333 4 26 11.833 38 23.5s22.667 24.834 32 39.501s16.666 29.834 21.999 45.501s8 29.167 8 40.5zM130.003 23.9961
c0 18 -3.99805 32.3281 -11.998 42.9951s-19.667 16 -35 16c-12.667 0 -23.334 -4.5 -32.001 -13.5s-13 -20.167 -13 -33.5c0 -9.33301 1.83301 -17.166 5.5 -23.499s8.16699 -11.5 13.5 -15.5c10 -7.33301 17.333 -15.166 22 -23.499s7 -16.833 7 -25.5
c0 -9.33301 -2.83301 -18.666 -8.5 -27.999s-13.5 -18 -23.5 -26c-6.66699 -6 -15.334 -11 -26.001 -15c-0.666992 0 -0.666992 -0.833008 0 -2.5s1.33398 -2.16699 2.00098 -1.5c13.333 4 26.166 11.833 38.499 23.5s23 24.834 32 39.501s16.167 29.834 21.5 45.501
s8 29.167 8 40.5z" />
    <glyph glyph-name="dagger" unicode="&#x2020;" horiz-adv-x="597" 
d="M570 376c0 9.33301 -3.83398 19.166 -11.501 29.499s-18 19.666 -31 27.999s-28 15.333 -45 21s-35.167 8.5 -54.5 8.5c-30.667 0 -54.167 -4.33301 -70.5 -13s-28.166 -21.667 -35.499 -39c0 16.667 1.5 32.834 4.5 48.501s4.5 33.167 4.5 52.5s-3 38.333 -9 57
s-9 33.334 -9 44.001c0 5.33301 1.5 10.666 4.5 15.999l10.5 18c4 6.66699 7.5 14 10.5 22s4.5 17 4.5 27c0 14.667 -4.16699 26.334 -12.5 35.001s-19.166 13 -32.499 13c-14 0 -24.833 -4.33301 -32.5 -13s-11.5 -20.334 -11.5 -35.001c0 -10 1.5 -19 4.5 -27
s6.33301 -15.333 10 -22l10 -18c3 -5.33301 4.5 -10.666 4.5 -15.999c0 -10.667 -3.16699 -25.334 -9.5 -44.001s-9.5 -37.667 -9.5 -57s1.66699 -36.833 5 -52.5s5 -31.834 5 -48.501c-7.33301 17.333 -19.333 30.333 -36 39s-40.334 13 -71.001 13
c-19.333 0 -37.5 -2.83301 -54.5 -8.5s-32 -12.667 -45 -21s-23.333 -17.666 -31 -27.999s-11.5 -20.166 -11.5 -29.499c0 -11.333 3.5 -21.5 10.5 -30.5s15.833 -13.5 26.5 -13.5c16 0 26.5 3.33301 31.5 10s7.5 14.667 7.5 24c0 8.66699 -1.33301 15.334 -4 20.001
s-4 11.667 -4 21c0 8.66699 2.66699 16.167 8 22.5s11.833 11.5 19.5 15.5s15.834 7 24.501 9s16 3 22 3c18.667 0 35.167 -1.66699 49.5 -5s26.333 -9.33301 36 -18s17 -20.5 22 -35.5s7.5 -33.833 7.5 -56.5c0 -13.333 -1.16699 -24.166 -3.5 -32.499s-5.33301 -15 -9 -20
s-7.33398 -8.5 -11.001 -10.5l-9.5 -5c-1.33301 0 -1.83301 -0.833008 -1.5 -2.5s1.16602 -2.16699 2.49902 -1.5c10.667 4.66699 19.167 -5.5 25.5 -30.5s11 -63 14 -114s4.83301 -113.833 5.5 -188.5s1 -159.334 1 -254.001c0 -1.33301 0.666992 -2 2 -2s2 0.666992 2 2
c0 94.667 0.333008 179.334 1 254.001s2.5 137.5 5.5 188.5s7.5 89 13.5 114s14.667 35.167 26 30.5c1.33301 -0.666992 2.33301 -0.166992 3 1.5s0.333984 2.5 -0.999023 2.5c-3.33301 1.33301 -6.83301 3 -10.5 5s-7.33398 5.5 -11.001 10.5s-6.66699 11.667 -9 20
s-3.5 19.166 -3.5 32.499c0 22.667 2.5 41.5 7.5 56.5s12.333 26.833 22 35.5s21.5 14.667 35.5 18s30.333 5 49 5c6 0 13.333 -1 22 -3s17 -5 25 -9s14.667 -9.16699 20 -15.5s8 -13.833 8 -22.5c0 -9.33301 -1.33301 -16.333 -4 -21s-4 -11.334 -4 -20.001
c0 -9.33301 2.5 -17.333 7.5 -24s15.5 -10 31.5 -10c10.667 0 19.334 4.5 26.001 13.5s10 19.167 10 30.5z" />
    <glyph glyph-name="daggerdbl" unicode="&#x2021;" horiz-adv-x="582" 
d="M551 -6c0 12.667 -3.33301 22.834 -10 30.501s-15.667 11.5 -27 11.5c-13.333 0 -23.333 -3 -30 -9s-10 -13.667 -10 -23c0 -8.66699 1.5 -15.167 4.5 -19.5s4.5 -11.166 4.5 -20.499c0 -8.66699 -2 -16 -6 -22s-9.16699 -11 -15.5 -15s-13.166 -6.83301 -20.499 -8.5
s-14 -2.5 -20 -2.5c-34.667 0 -62.167 9.5 -82.5 28.5s-30.5 51.5 -30.5 97.5c0 13.333 1.16699 23.833 3.5 31.5s5.16602 13.334 8.49902 17.001s6.83301 6.16699 10.5 7.5s6.83398 2.66602 9.50098 3.99902c1.33301 0 1.83301 1 1.5 3s-1.16602 2.66699 -2.49902 2
c-5.33301 -2 -9.66602 -3 -12.999 -3c-7.33301 0 -13 3 -17 9s-7.16699 14 -9.5 24s-3.83301 21.667 -4.5 35s-1 27 -1 41c0 14.667 0.333008 28.667 1 42s2.16699 25 4.5 35s5.5 18 9.5 24s9.66699 9 17 9c3.33301 0 7.66602 -1 12.999 -3
c1.33301 -0.666992 2.16602 -0.166992 2.49902 1.5s-0.166992 2.83398 -1.5 3.50098c-2.66699 1.33301 -5.83398 2.66602 -9.50098 3.99902s-7.16699 3.83301 -10.5 7.5s-6.16602 9.16699 -8.49902 16.5s-3.5 17.666 -3.5 30.999c0 46 10.167 78.667 30.5 98
s47.833 29 82.5 29c6 0 12.667 -0.833008 20 -2.5s14.166 -4.5 20.499 -8.5s11.5 -9.16699 15.5 -15.5s6 -13.833 6 -22.5s-1.5 -15.334 -4.5 -20.001s-4.5 -11.334 -4.5 -20.001c0 -20.667 13.333 -31 40 -31c11.333 0 20.333 3.83301 27 11.5s10 17.5 10 29.5
c0 9.33301 -3.16699 19 -9.5 29s-15.166 19.167 -26.499 27.5s-25 15.166 -41 20.499s-33.667 8 -53 8c-28 0 -50.833 -5.83301 -68.5 -17.5s-30.167 -27.167 -37.5 -46.5c0 8 0.5 15.333 1.5 22s2.16699 13.167 3.5 19.5s2.5 13 3.5 20s1.5 15.5 1.5 25.5
c0 9.33301 -1 17.5 -3 24.5s-4 13.167 -6 18.5s-4 10.333 -6 15s-3 9.66699 -3 15s1.5 11 4.5 17l9.5 19.5c3.33301 7 6.5 14.333 9.5 22s4.5 15.834 4.5 24.501c0 15.333 -4 27.166 -12 35.499s-18.667 12.5 -32 12.5c-14 0 -25 -4.16699 -33 -12.5
s-12 -20.166 -12 -35.499c0 -8.66699 1.5 -16.834 4.5 -24.501s6.33301 -15 10 -22l10 -19.5c3 -6 4.5 -11.667 4.5 -17s-1 -10.333 -3 -15s-4 -9.66699 -6 -15s-4 -11.5 -6 -18.5s-3 -15.167 -3 -24.5c0 -10 0.5 -18.5 1.5 -25.5s2.16699 -13.667 3.5 -20
s2.5 -12.833 3.5 -19.5s1.5 -14 1.5 -22c-7.33301 19.333 -20 34.833 -38 46.5s-41 17.5 -69 17.5c-19.333 0 -36.833 -2.66699 -52.5 -8s-29 -12.166 -40 -20.499s-19.667 -17.5 -26 -27.5s-9.5 -19.667 -9.5 -29c0 -12 3.16699 -21.833 9.5 -29.5
s15.166 -11.5 26.499 -11.5c26.667 0 40 10.333 40 31c0 8.66699 -1.33301 15.334 -4 20.001s-4 11.334 -4 20.001s2 16.167 6 22.5s9 11.5 15 15.5s12.5 6.83301 19.5 8.5s13.5 2.5 19.5 2.5c34.667 0 62.334 -9.66699 83.001 -29s31 -52 31 -98
c0 -13.333 -1.16699 -23.666 -3.5 -30.999s-5 -12.833 -8 -16.5s-6.5 -6.16699 -10.5 -7.5s-7.33301 -2.66602 -10 -3.99902c-1.33301 -0.666992 -1.66602 -1.83398 -0.999023 -3.50098s1.66699 -2.16699 3 -1.5c4 2 8.33301 3 13 3c6.66699 0 12 -3 16 -9
s7.16699 -14 9.5 -24s3.83301 -21.667 4.5 -35s1 -27.333 1 -42c0 -14 -0.333008 -27.667 -1 -41s-2.16699 -25 -4.5 -35s-5.5 -18 -9.5 -24s-9.33301 -9 -16 -9c-4.66699 0 -9 1 -13 3c-1.33301 0.666992 -2.33301 0 -3 -2s-0.333984 -3 0.999023 -3
c2.66699 -1.33301 6 -2.66602 10 -3.99902s7.5 -3.83301 10.5 -7.5s5.66699 -9.33398 8 -17.001s3.5 -18.167 3.5 -31.5c0 -46 -10.333 -78.5 -31 -97.5s-48.334 -28.5 -83.001 -28.5c-6 0 -12.5 0.833008 -19.5 2.5s-13.5 4.5 -19.5 8.5s-11 9 -15 15s-6 13.333 -6 22
c0 9.33301 1.33301 16.166 4 20.499s4 10.833 4 19.5c0 9.33301 -3.33301 17 -10 23s-16.667 9 -30 9c-11.333 0 -20.166 -3.83301 -26.499 -11.5s-9.5 -17.834 -9.5 -30.501c0 -9.33301 3.16699 -19 9.5 -29s15 -19 26 -27s24.333 -14.667 40 -20s33.167 -8 52.5 -8
c28 0 51 5.83301 69 17.5s30.667 27.167 38 46.5c0 -8 -0.5 -15.333 -1.5 -22s-2.16699 -13.167 -3.5 -19.5s-2.5 -13.166 -3.5 -20.499s-1.5 -15.666 -1.5 -24.999s1 -17.5 3 -24.5s4 -13.167 6 -18.5s4 -10.333 6 -15s3 -9.66699 3 -15s-1.5 -11 -4.5 -17l-10 -19.5
c-3.66699 -7 -7 -14.333 -10 -22s-4.5 -15.834 -4.5 -24.501c0 -15.333 4 -27.166 12 -35.499s19 -12.5 33 -12.5c13.333 0 24 4.16699 32 12.5s12 20.166 12 35.499c0 8.66699 -1.5 16.834 -4.5 24.501s-6.16699 15 -9.5 22l-9.5 19.5c-3 6 -4.5 11.667 -4.5 17
s1 10.333 3 15s4 9.66699 6 15s4 11.5 6 18.5s3 15.167 3 24.5s-0.5 17.666 -1.5 24.999s-2.16699 14.166 -3.5 20.499s-2.5 12.833 -3.5 19.5s-1.5 14 -1.5 22c7.33301 -19.333 19.833 -34.833 37.5 -46.5s40.5 -17.5 68.5 -17.5c19.333 0 37 2.66699 53 8s29.667 12 41 20
s20.166 17 26.499 27s9.5 19.667 9.5 29z" />
    <glyph glyph-name="bullet" unicode="&#x2022;" horiz-adv-x="310" 
d="M259 354c0 14.667 -2.66699 28.5 -8 41.5s-12.833 24.167 -22.5 33.5s-20.667 16.833 -33 22.5s-25.5 8.5 -39.5 8.5c-14.667 0 -28.334 -2.83301 -41.001 -8.5s-23.834 -13.167 -33.501 -22.5s-17.167 -20.5 -22.5 -33.5s-8 -26.833 -8 -41.5s2.66699 -28.334 8 -41.001
s12.833 -23.834 22.5 -33.501s20.834 -17.167 33.501 -22.5s26.334 -8 41.001 -8c14 0 27.167 2.66699 39.5 8s23.333 12.833 33 22.5s17.167 20.834 22.5 33.501s8 26.334 8 41.001z" />
    <glyph glyph-name="ellipsis" unicode="&#x2026;" horiz-adv-x="576" 
d="M525 35c0 13.333 -4.33301 24.5 -13 33.5s-19.334 13.5 -32.001 13.5c-12 0 -22.333 -4.5 -31 -13.5s-13 -20.167 -13 -33.5s4.33301 -24.666 13 -33.999s19 -14 31 -14c12.667 0 23.334 4.66699 32.001 14s13 20.666 13 33.999zM334 35c0 13.333 -4.5 24.5 -13.5 33.5
s-19.833 13.5 -32.5 13.5s-23.334 -4.5 -32.001 -13.5s-13 -20.167 -13 -33.5s4.33301 -24.666 13 -33.999s19.334 -14 32.001 -14s23.5 4.66699 32.5 14s13.5 20.666 13.5 33.999zM141 35c0 13.333 -4.33301 24.5 -13 33.5s-19.334 13.5 -32.001 13.5
c-12 0 -22.5 -4.5 -31.5 -13.5s-13.5 -20.167 -13.5 -33.5s4.5 -24.666 13.5 -33.999s19.5 -14 31.5 -14c12.667 0 23.334 4.66699 32.001 14s13 20.666 13 33.999z" />
    </font>
</defs>
</svg>
